<?xml version="1.0" encoding="UTF-8"?>
<svg version="1.1" xmlns="http://www.w3.org/2000/svg" width="1024" height="1536">
<path d="M0 0 C337.92 0 675.84 0 1024 0 C1024 506.88 1024 1013.76 1024 1536 C686.08 1536 348.16 1536 0 1536 C0 1029.12 0 522.24 0 0 Z " fill="#050504" transform="translate(0,0)"/>
<path d="M0 0 C337.92 0 675.84 0 1024 0 C1024 364.98 1024 729.96 1024 1106 C1021.69 1104.02 1019.38 1102.04 1017 1100 C1005.49621253 1090.46655821 993.63265869 1082.72372113 979.375 1078.0625 C974.43962129 1076.40295992 971.20936811 1074.93852947 968.5625 1070.25 C967.95535156 1068.96609375 967.95535156 1068.96609375 967.3359375 1067.65625 C962.80492302 1058.64721536 954.29528414 1051.47548934 945 1047.8203125 C939.31141993 1045.94690993 934.09093658 1044.89694569 928.125 1044.4375 C924.25705264 1043.92331778 922.59018613 1043.66781216 919.98046875 1040.71484375 C918.84874671 1038.78800083 917.754592 1036.83869263 916.6953125 1034.87109375 C910.66992197 1024.66680333 897.13335418 1019.34539239 887 1014 C885.38375732 1013.14269287 885.38375732 1013.14269287 883.73486328 1012.26806641 C880.79103957 1010.71005731 877.84436352 1009.15799333 874.89352417 1007.61334229 C873.17553092 1006.7139535 871.45895895 1005.81185143 869.74243164 1004.90966797 C862.63304616 1001.22152619 855.44431465 997.95437313 848 995 C847.97812622 993.75464478 847.97812622 993.75464478 847.95581055 992.48413086 C847.81527272 971.02026527 847.81527272 971.02026527 844 950 C843.82452637 949.36529785 843.64905273 948.7305957 843.46826172 948.07666016 C837.57215575 926.96971996 827.82032522 908.02861501 814 891 C813.54367187 890.43684082 813.08734375 889.87368164 812.6171875 889.29345703 C791.45019297 863.36530364 763.74621803 844.72246412 731 837 C731.97840081 831.57781199 732.96508945 826.15781352 734 820.74609375 C734.16250244 819.88081055 734.32500488 819.01552734 734.49243164 818.12402344 C734.84219874 816.27273093 735.20132205 814.42318983 735.56811523 812.57519531 C736.44405427 807.97003768 737.10277011 803.62077686 737.03515625 798.92578125 C736.99482234 789.78030237 736.99482234 789.78030237 739 786 C743.70010766 781.76751861 749.85945684 779.64314491 755.59130859 777.15966797 C774.70545758 767.95713324 786.13776672 745.15790592 793.03637695 726.14746094 C802.07960176 699.57885356 804.2368758 667.08350222 796 640 C795.649375 638.83984375 795.29875 637.6796875 794.9375 636.484375 C791.82412637 627.87935621 786.51227524 620.86355929 778.75 615.9375 C775.17006298 615.04251575 771.9380022 614.7001211 768.265625 614.44140625 C767.09290039 614.35705322 765.92017578 614.2727002 764.71191406 614.18579102 C763.81698242 614.12447998 762.92205078 614.06316895 762 614 C762.19283066 612.9763887 762.19283066 612.9763887 762.38955688 611.93209839 C765.56683721 595.02530268 768.59193647 578.10120929 771.375 561.125 C771.65997849 559.38997726 771.65997849 559.38997726 771.95071411 557.61990356 C774.89728913 539.59602469 777.54710705 521.54335121 779.9375 503.4375 C780.08088806 502.35881653 780.22427612 501.28013306 780.37200928 500.16876221 C782.79807579 481.80933041 785.03333095 463.40589707 785.4375 444.875 C785.66460228 437.41514415 786.29588013 430.22843204 787.5625 422.875 C791.10773656 401.63766947 790.79911963 378.24874478 778 360 C774.18680832 355.50404089 770.46130893 351.40396217 765 349 C765.32484375 347.58460938 765.32484375 347.58460938 765.65625 346.140625 C768.96574957 330.88015476 769.33141105 316.77187504 761.6953125 302.57421875 C751.75880301 287.48629305 736.58541125 278.08499866 719.125 273.75 C714.26399808 272.20696636 712.1508975 268.86469545 709.19921875 264.875 C688.97080314 238.43074798 657.76366708 227.50191846 625.94848633 222.68969727 C618.1592374 221.68502263 610.27950188 221.64958637 602.4375 221.4375 C600.93683922 221.39421638 599.43618803 221.3505993 597.93554688 221.30664062 C594.29046701 221.20058203 590.64527818 221.09903743 587 221 C587.42007324 220.18921997 587.42007324 220.18921997 587.84863281 219.36206055 C588.21311523 218.64832275 588.57759766 217.93458496 588.953125 217.19921875 C589.31567383 216.49369873 589.67822266 215.78817871 590.05175781 215.0612793 C591.45627868 212.00814601 591.87469703 210.28011388 591 207 C585.29049828 200.65806116 575.95793633 200.44737076 568 200 C551.62689212 199.24781663 535.30857513 200.66156843 519 202 C519.32307129 201.21826416 519.64614258 200.43652832 519.97900391 199.63110352 C521.48735217 195.7440951 521.39688446 193.16728682 521 189 C518.36445945 185.14805612 515.39119032 184.22292844 511 183 C497.19502572 181.58829649 486.05667797 184.40036158 475 193 C474.34 193 473.68 193 473 193 C472.319375 192.195625 471.63875 191.39125 470.9375 190.5625 C467.58938301 187.6418022 465.84660964 187.04522039 461.515625 186.80859375 C450.4832989 187.64800987 439.1365577 194.93693869 431.6875 202.8515625 C426.33029892 209.67207313 422.2808326 217.48244031 418 225 C417.45400146 224.87882813 416.90800293 224.75765625 416.34545898 224.6328125 C383.98352465 217.6378189 353.27622652 219.99502993 324.90625 237.984375 C322.08737655 239.74008826 322.08737655 239.74008826 320.6887207 241.61206055 C318.18787058 243.66747951 316.26805885 243.30768721 313.07421875 243.22265625 C311.89158447 243.20235352 310.7089502 243.18205078 309.49047852 243.16113281 C308.23549561 243.12858398 306.9805127 243.09603516 305.6875 243.0625 C280.43770944 242.68025623 280.43770944 242.68025623 258 253 C255.64401371 254.93005229 255.64401371 254.93005229 255.6875 258.375 C256.01794318 262.2081409 256.63223879 263.16368446 259 266 C258.00742187 266.46148437 257.01484375 266.92296875 255.9921875 267.3984375 C240.00678492 275.00195138 222.01542188 285.39228875 214 302 C213.41275048 305.98024675 213.22264378 307.88638283 215.53515625 311.19921875 C216.01855469 311.79347656 216.50195312 312.38773437 217 313 C216.40574219 313.54785156 215.81148437 314.09570312 215.19921875 314.66015625 C199.38238645 329.78823069 189.56909816 345.89417585 188 368 C187.99484375 368.96679688 187.9896875 369.93359375 187.984375 370.9296875 C187.85752558 378.05439653 185.26577149 382.45238916 181.51708984 388.29736328 C170.5639429 405.45452644 168.08980525 426.28604905 172.0625 446.125 C177.04435743 463.46924438 187.33688172 476.08503783 202.85839844 484.92089844 C207.44378034 487.23136219 212.23486534 489.09610186 217 491 C217.0501123 492.19786133 217.10022461 493.39572266 217.15185547 494.62988281 C217.3436683 499.1778313 217.5431324 503.72542036 217.74462891 508.27294922 C217.82997109 510.22175551 217.9133799 512.17064767 217.99462891 514.11962891 C218.75963538 532.41367254 220.15550185 550.49888617 223.25 568.5625 C223.46035889 569.8117627 223.67071777 571.06102539 223.88745117 572.34814453 C226.13260796 585.33558841 228.9799714 598.17230732 232 611 C230.6847937 610.97498413 230.6847937 610.97498413 229.34301758 610.94946289 C228.18439209 610.9364917 227.0257666 610.92352051 225.83203125 610.91015625 C224.11463745 610.88514038 224.11463745 610.88514038 222.36254883 610.85961914 C214.98588819 611.16758254 209.76984594 613.77155031 204.6875 619.0625 C189.09274582 638.30441443 190.27860414 667.49584387 192.4609375 690.86328125 C194.42348385 707.5278731 198.6002768 724.89675264 206 740 C206.51175781 741.0621875 207.02351562 742.124375 207.55078125 743.21875 C216.30595195 760.4473158 228.93724712 772.78058098 247.359375 779.1640625 C248.23078125 779.43992187 249.1021875 779.71578125 250 780 C250.03867187 781.62228516 250.03867187 781.62228516 250.078125 783.27734375 C251.27886701 819.57669827 262.20218586 852.76367838 278.875 884.8125 C279.30256592 885.63484131 279.73013184 886.45718262 280.1706543 887.30444336 C282.69969675 892.00501965 285.50112521 896.11478926 288.96533203 900.18237305 C290 902 290 902 289.85058594 904.01513672 C288.86969799 906.30406296 287.7463857 907.65273367 286.0078125 909.43359375 C285.39083496 910.07538574 284.77385742 910.71717773 284.13818359 911.37841797 C283.47383301 912.05791504 282.80948242 912.73741211 282.125 913.4375 C280.74261285 914.88464056 279.36242155 916.33388173 277.984375 917.78515625 C277.30310547 918.50203613 276.62183594 919.21891602 275.91992188 919.95751953 C267.43970296 928.97907491 260.11075513 938.75215645 252.9453125 948.8359375 C252.19338623 949.88418701 252.19338623 949.88418701 251.42626953 950.95361328 C250.50059456 952.28175563 249.60826515 953.63401016 248.75732422 955.01123047 C245.77379345 959.70416465 243.44747283 961.03623343 237.875 962.375 C219.64609647 967.30357116 202.60139334 976.90826984 188.37890625 989.2734375 C183.18278483 993.04467834 177.21604766 994.59667114 171.12109375 996.34545898 C159.58516844 999.65666125 148.76094149 1003.69952666 138 1009 C137.3512793 1009.31549805 136.70255859 1009.63099609 136.03417969 1009.95605469 C118.43641045 1018.60702122 102.15599069 1029.94448061 89.59765625 1045.1484375 C85.53167897 1049.86059699 82.07025691 1052.72350942 76.3125 1055.1875 C56.88251452 1063.85875316 39.27727907 1075.31400338 23 1089 C22.45746582 1089.45375 21.91493164 1089.9075 21.35595703 1090.375 C14.76522168 1095.89934897 8.29672034 1101.43926139 2.35546875 1107.671875 C1 1109 1 1109 0 1109 C0 743.03 0 377.06 0 0 Z " fill="#FEFEFE" transform="translate(0,0)"/>
<path d="M0 0 C0.33 0.66 0.66 1.32 1 2 C0.0222168 4.49804688 0.0222168 4.49804688 -1.55078125 7.71875 C-2.14409528 8.95098696 -2.73718208 10.18333335 -3.33007812 11.41577148 C-3.65177979 12.07745331 -3.97348145 12.73913513 -4.30493164 13.42086792 C-36.70728206 80.28359302 -59.12962781 150.29258567 -78 222 C-26.19 221.67 25.62 221.34 79 221 C75.7 203.84 72.4 186.68 69 169 C69 161 69 161 70.91796875 158.34765625 C74.86882241 155.33819738 78.98568907 152.86522816 83.3125 150.4375 C84.12912109 149.96892578 84.94574219 149.50035156 85.78710938 149.01757812 C90.77981989 146.17312552 95.85053605 143.54725116 101 141 C102.93962549 150.67493335 104.87820534 160.35007557 106.81545925 170.02548409 C107.71508395 174.51839424 108.61506548 179.0112323 109.51586914 183.50390625 C110.38555736 187.84146351 111.25429955 192.17920926 112.12239265 196.51708603 C112.45336448 198.17010081 112.78467421 199.82304798 113.1163311 201.47592545 C113.581629 203.79513159 114.04571309 206.11457761 114.50952148 208.43408203 C114.64618729 209.11381577 114.78285309 209.7935495 114.92366028 210.49388123 C115.6878379 214.32300281 116.35763383 218.14580295 117 222 C229.2 222 341.4 222 457 222 C457 265.56 457 309.12 457 354 C119.08 354 -218.84 354 -567 354 C-567 310.44 -567 266.88 -567 222 C-489.78 222 -412.56 222 -333 222 C-333 218.7 -333 215.4 -333 212 C-332.81012706 209.324708 -332.57790926 206.65204047 -332.30078125 203.984375 C-332.22566818 203.25793793 -332.15055511 202.53150085 -332.07316589 201.78305054 C-331.827096 199.43782682 -331.57122188 197.09386001 -331.3125 194.75 C-331.22452148 193.94496033 -331.13654297 193.13992065 -331.04589844 192.31048584 C-329.78506356 180.87513149 -328.31931086 169.48522278 -326.5 158.125 C-326.21636597 156.28373535 -326.21636597 156.28373535 -325.92700195 154.40527344 C-324.12386648 143.70873266 -320.47806263 138.0064954 -312.6875 130.5625 C-311.34183537 129.25065905 -309.99806046 127.93687666 -308.65625 126.62109375 C-307.70298828 125.68692627 -307.70298828 125.68692627 -306.73046875 124.73388672 C-304.06173806 122.05988484 -301.60145438 119.23325964 -299.19921875 116.3203125 C-298 115 -298 115 -296 114 C-295.67 121.59 -295.34 129.18 -295 137 C-293.35 137.33 -291.7 137.66 -290 138 C-289.67 137.67 -289.34 137.34 -289 137 C-289.00076005 134.7859622 -289.05922716 132.57191616 -289.140625 130.359375 C-289.67755891 106.27934568 -289.67755891 106.27934568 -285.2890625 100.3359375 C-282.65119182 97.58268191 -279.67263413 95.3281612 -276.54736328 93.15478516 C-272.7177574 90.29678013 -270.42593135 86.03044124 -268 82 C-267.63342285 81.401875 -267.2668457 80.80375 -266.88916016 80.1875 C-258.28079949 65.99842745 -252.08307034 50.77869751 -247 35 C-243.91412736 38.05488998 -240.88653396 41.15714858 -237.8828125 44.29296875 C-215.90573145 67.03251523 -190.80600169 81.41031582 -158.3359375 82.28540039 C-96.00162003 82.98970711 -44.15639174 39.08707789 0 0 Z " fill="#FEFEFE" transform="translate(567,1182)"/>
<path d="M0 0 C3.62364047 0.59022177 6.48820967 1.57834149 9.74609375 3.2578125 C10.65480225 3.71534912 11.56351074 4.17288574 12.49975586 4.64428711 C13.46921143 5.13292236 14.43866699 5.62155762 15.4375 6.125 C26.66089956 11.63356487 37.96735134 15.66488916 50 19 C51.17127441 19.32653564 51.17127441 19.32653564 52.36621094 19.65966797 C59.81251559 21.70295981 67.25431794 23.71089212 75 24 C76.87751953 24.07734375 76.87751953 24.07734375 78.79296875 24.15625 C92.72310289 24.54364284 107.30165887 23.37658995 119 15 C121.45670578 12.19233625 123.20735527 9.25397558 125 6 C125.97987291 4.65180607 126.97450352 3.31382447 128 2 C128.69480469 2.46148437 129.38960937 2.92296875 130.10546875 3.3984375 C150.62586348 16.55853855 172.85383194 25.46703436 197 29 C197.6283374 29.0942627 198.2566748 29.18852539 198.90405273 29.28564453 C205.80683257 30.19645627 212.73971112 30.22094353 219.69165039 30.24023438 C221.79809174 30.24993366 223.9035521 30.28104564 226.00976562 30.3125 C236.93420966 30.39752636 247.88553618 29.56241395 257 23 C260.37492286 19.64856848 262.98298827 16.31810962 265 12 C265.4640625 12.3403125 265.928125 12.680625 266.40625 13.03125 C287.5332755 27.85170072 311.81934559 34.52631257 337.5703125 30.38671875 C345.56346427 28.74493969 352.65042784 25.53829066 359.77539062 21.64257812 C363.22461912 19.76344128 364.97089341 19 369 19 C383.76974028 28.74498328 392.78280506 46.52523784 400.09765625 62.08447266 C400.93395085 63.85978852 401.79411165 65.6238085 402.65625 67.38671875 C422.52529438 110.21667412 419.50338892 166.30130021 419.3225708 212.38964844 C419.30906799 217.06276691 419.31433092 221.73578936 419.31969929 226.40891838 C419.32307007 230.98713395 419.31635424 235.56529275 419.30657005 240.14349747 C419.30278531 242.29202094 419.30154103 244.44055079 419.3031559 246.589077 C419.30862415 289.98863544 411.4438949 325.81352526 381 358 C379.78957031 359.30710937 379.78957031 359.30710937 378.5546875 360.640625 C368.96584945 370.65881401 356.2581664 382.29474165 343 387 C339.53333333 386.53333333 339.53333333 386.53333333 338 385 C337.80842876 383.5328492 337.67637341 382.05783005 337.5703125 380.58203125 C337.49901123 379.66405762 337.42770996 378.74608398 337.35424805 377.80029297 C337.27859619 376.81432129 337.20294434 375.82834961 337.125 374.8125 C335.69404239 358.01665191 332.94742392 341.51573451 322 328 C321.34 327.67 320.68 327.34 320 327 C320 326.34 320 325.68 320 325 C319.47792969 324.7421875 318.95585938 324.484375 318.41796875 324.21875 C316.55622094 323.28035692 314.70692492 322.3172306 312.86328125 321.34375 C298.90738161 314.04482823 286.18198745 312.8225753 270.5402832 312.86962891 C268.49357206 312.87485678 266.44709388 312.86972912 264.40039062 312.86328125 C256.07618334 312.85944644 247.7839091 313.1165916 239.46875 313.5 C226.99644356 314.06612837 214.54592436 314.15463906 202.0625 314.125 C200.96859955 314.12411377 199.8746991 314.12322754 198.74765015 314.12231445 C186.92653993 314.11110338 175.12169401 314.07536889 163.3125 313.5 C112.59005104 310.61951829 112.59005104 310.61951829 67.6875 331.25 C52.2329586 345.97093975 50.04974545 367.77858769 49 388 C46.47799991 388.98358004 44.66102883 389.22779605 42.08007812 388.33837891 C39.75546818 387.23851181 37.5034392 386.05184605 35.25 384.8125 C34.41597656 384.36269775 33.58195312 383.91289551 32.72265625 383.44946289 C19.88255786 376.35802807 8.09032463 367.57563351 -3 358 C-3.87269531 357.24976563 -4.74539063 356.49953125 -5.64453125 355.7265625 C-10.87263994 351.13335156 -15.61658591 346.40216065 -20 341 C-20.75925781 340.08992188 -21.51851563 339.17984375 -22.30078125 338.2421875 C-46.76256459 308.24325107 -52.80760074 272.72887877 -52 235 C-51.97534668 233.6996582 -51.95069336 232.39931641 -51.92529297 231.05957031 C-48.54637676 57.4090668 -48.54637676 57.4090668 0 0 Z " fill="#FEFEFE" transform="translate(312,457)"/>
<path d="M0 0 C0.33 0 0.66 0 1 0 C1.79614646 28.38568351 -4.01068182 71.05140517 -24.03125 92.51367188 C-24.75828125 93.2803418 -24.75828125 93.2803418 -25.5 94.0625 C-26.44817509 95.07397656 -27.39607519 96.08571095 -28.34375 97.09765625 C-28.89192383 97.67966797 -29.44009766 98.26167969 -30.00488281 98.86132812 C-32.02316675 101.02483366 -34.01765119 103.20925357 -36.01287842 105.39399719 C-42.63959064 112.63107157 -49.47844081 119.63316595 -56.42871094 126.55908203 C-58.2661576 128.39110995 -60.0981165 130.22850605 -61.9296875 132.06640625 C-67.22367843 137.36338902 -72.50898634 142.60318118 -78.21533203 147.46044922 C-81.52296945 150.31379553 -84.64878638 153.36426229 -87.8125 156.375 C-93.189015 161.45735538 -98.6387559 166.28394154 -104.42578125 170.89453125 C-107.21030348 173.17200846 -109.85413803 175.56312008 -112.5 178 C-117.83166643 182.8892356 -123.33178475 187.50770819 -129 192 C-129.64324219 192.51046875 -130.28648437 193.0209375 -130.94921875 193.546875 C-142.07399452 202.34799151 -153.39143873 210.84694752 -165 219 C-165.62938477 219.4429541 -166.25876953 219.8859082 -166.90722656 220.34228516 C-190.80835438 237.03971825 -220.39022532 256.29569842 -250.98046875 251.70263672 C-271.21387885 248.0678631 -287.89144347 237.11797143 -299.71875 220.4375 C-307.20918142 209.36689627 -311.94522659 198.00573058 -315 185 C-315.27585937 183.85402344 -315.55171875 182.70804688 -315.8359375 181.52734375 C-316.0534882 176.85000378 -314.63395161 173.74530027 -312.6875 169.5625 C-304.2311665 150.83655106 -306.634471 131.83486203 -308.6953125 111.84765625 C-308.78220085 110.99076265 -308.8690892 110.13386906 -308.95861053 109.25100899 C-311.0724317 88.441611 -313.65018899 67.69068058 -316.25 46.9375 C-317.04907135 40.55405098 -317.84491717 34.17022446 -318.63393402 27.78552437 C-318.94507815 25.27965099 -319.26134225 22.77446086 -319.57794189 20.26927185 C-319.76737533 18.74196353 -319.95657693 17.21462643 -320.14550781 15.68725586 C-320.23273102 15.00850403 -320.31995422 14.3297522 -320.40982056 13.63043213 C-320.92668423 9.39731136 -321.07538717 5.26236883 -321 1 C-317.3439652 2.35937387 -314.13726292 4.01365262 -310.81640625 6.0546875 C-309.81810791 6.66328613 -308.81980957 7.27188477 -307.79125977 7.89892578 C-306.72576904 8.55103027 -305.66027832 9.20313477 -304.5625 9.875 C-275.85425834 27.24737973 -246.07252368 42.31416065 -215 55 C-213.67645508 55.54527344 -213.67645508 55.54527344 -212.32617188 56.1015625 C-183.44557052 67.86687564 -151.45345861 73.96761978 -121 65 C-120.21141602 64.76877441 -119.42283203 64.53754883 -118.61035156 64.29931641 C-80.19009091 52.54317677 -28.45797586 28.45797586 0 0 Z " fill="#FEFEFE" transform="translate(658,946)"/>
<path d="M0 0 C4.858329 0.91343436 9.72505543 1.77843357 14.59179688 2.64575195 C17.02354753 3.0801522 19.45458126 3.51859119 21.88476562 3.96166992 C23.55635742 4.26488159 23.55635742 4.26488159 25.26171875 4.57421875 C26.24011719 4.75299561 27.21851563 4.93177246 28.2265625 5.1159668 C34.62978253 6.16819834 40.86660352 6.79220236 47.35546875 6.86328125 C48.47254967 6.87797203 48.47254967 6.87797203 49.61219788 6.89295959 C69.55320982 7.10094946 87.85742653 5.47912869 107.33984375 1.0234375 C144.37698154 -7.39228942 144.37698154 -7.39228942 158.32421875 0.625 C165.85373264 5.56784415 169.43392518 11.93082367 171.32421875 20.625 C173.24753496 45.56974807 167.9564766 68.36693979 151.76171875 87.82421875 C145.57962528 94.92768192 139.26217219 100.53031935 131.32421875 105.625 C130.4425 106.20121094 129.56078125 106.77742187 128.65234375 107.37109375 C105.21653336 121.90518058 78.46665235 125.855141 51.38671875 125.875 C50.14708878 125.87601212 50.14708878 125.87601212 48.88241577 125.87704468 C36.78574757 125.86134786 25.1299648 125.49315829 13.32421875 122.625 C12.59364258 122.45871094 11.86306641 122.29242187 11.11035156 122.12109375 C-15.34449235 115.99781226 -39.88611472 102.57423588 -55.6171875 79.81640625 C-65.9285314 63.04655321 -70.82405849 42.78246139 -66.55078125 23.3125 C-63.55221239 13.01367706 -58.89925192 4.73979847 -49.48828125 -0.62109375 C-34.36668657 -7.44943885 -15.55988291 -2.93801516 0 0 Z " fill="#FEFEFE" transform="translate(452.67578125,799.375)"/>
<path d="M0 0 C0.33 0.66 0.66 1.32 1 2 C0.22067261 4.0262146 0.22067261 4.0262146 -1.06689453 6.55615234 C-1.54599274 7.50767685 -2.02509094 8.45920135 -2.51870728 9.43955994 C-3.051362 10.47786453 -3.58401672 11.51616913 -4.1328125 12.5859375 C-4.67650482 13.66214859 -5.22019714 14.73835968 -5.78036499 15.84718323 C-7.25140365 18.75783256 -8.7288604 21.66512184 -10.20840454 24.57145309 C-12.93901769 29.94436744 -15.6437039 35.33043862 -18.3515625 40.71484375 C-18.93983826 41.88372635 -19.52811401 43.05260895 -20.13421631 44.25691223 C-24.40036976 52.75373197 -28.53818138 61.29502775 -32.5 69.9375 C-32.9947583 71.00693848 -33.4895166 72.07637695 -33.99926758 73.17822266 C-36.2228024 78.01099582 -38.37183036 82.86226754 -40.42578125 87.76953125 C-46.04039034 100.85461961 -53.28739156 109.67777955 -64 119 C-64.67885254 119.598125 -65.35770508 120.19625 -66.05712891 120.8125 C-76.2216714 129.75091281 -86.58853703 138.38511533 -97.29003906 146.67236328 C-98.93600379 147.95031248 -100.57420701 149.23760012 -102.2109375 150.52734375 C-115.15877715 160.68094446 -128.72379454 169.82151832 -143 178 C-143.87809326 178.51191895 -143.87809326 178.51191895 -144.77392578 179.03417969 C-174.03649556 195.98975796 -207.86553784 203.98632719 -241.14453125 195.58056641 C-258.12468975 190.89842159 -272.363896 182.11437161 -285 170 C-285.83917969 169.21625 -286.67835938 168.4325 -287.54296875 167.625 C-289.02328411 166.19819002 -290.46988227 164.73529621 -291.875 163.234375 C-294.01538016 160.9069354 -294.01538016 160.9069354 -296.6875 158.703125 C-299.61182733 155.90064464 -301.37928258 153.72326975 -303 150 C-302.85561276 145.21596932 -301.81252991 141.01489205 -300.59375 136.40625 C-298.43570355 128.23573584 -297.25592794 119.90016403 -295.9375 111.5625 C-294.29900313 101.27341692 -292.51338298 91.11900194 -290 81 C-288.00079282 83.99881077 -286.96834144 86.62113307 -285.75 90 C-277.4813119 111.74448008 -262.7408304 130.42830095 -241.6875 140.8125 C-220.5090219 149.60126325 -198.13010116 149.41277867 -176.85546875 140.7578125 C-144.66205142 126.44768561 -116.68204482 105.45664837 -89.6484375 83.1796875 C-87.84773163 81.69769063 -86.04015429 80.22401206 -84.2265625 78.7578125 C-78.78721002 74.35452716 -73.50732182 69.82792443 -68.33203125 65.1171875 C-66.24176111 63.21948831 -64.13013885 61.35266585 -62 59.5 C-45.73609343 45.30135141 -30.21644523 30.37177115 -15 15.0625 C-13.53148965 13.58895383 -12.06274055 12.11564558 -10.59375 10.64257812 C-7.05975901 7.09777119 -3.52895352 3.54982161 0 0 Z " fill="#FEFEFE" transform="translate(626,1058)"/>
<path d="M0 0 C3.9129703 2.99605039 7.37520992 6.29551208 10.6171875 10.00390625 C11.17921875 10.56464844 11.74125 11.12539063 12.3203125 11.703125 C14.2968497 15.2096925 13.97097994 18.71742508 13.8671875 22.62890625 C13.85075195 23.87087769 13.85075195 23.87087769 13.83398438 25.13793945 C13.68370869 33.77144087 13.19352515 42.38971674 12.6171875 51.00390625 C10.08032254 47.85641733 7.61130073 44.67045385 5.1796875 41.44140625 C0.27882963 35.18322834 -4.87706808 31.609879 -12.3828125 29.00390625 C-15.26192292 28.66187931 -15.26192292 28.66187931 -17.3828125 29.00390625 C-17.7128125 30.65390625 -18.0428125 32.30390625 -18.3828125 34.00390625 C-17.5371875 34.40480469 -16.6915625 34.80570313 -15.8203125 35.21875 C-4.60847276 40.8374106 1.47989094 47.48602425 7.6171875 58.31640625 C8.01583008 58.99106934 8.41447266 59.66573242 8.82519531 60.36083984 C12.16009298 66.60750714 12.00247795 72.0511649 11.6171875 79.00390625 C11.55324761 80.4642048 11.49102133 81.92457902 11.43017578 83.38500977 C11.24833092 87.57529176 11.03791393 91.76367153 10.8192749 95.95217896 C10.58257028 100.49122546 10.35570746 105.03076196 10.12890625 109.5703125 C10.0840509 110.46509811 10.03919556 111.35988373 9.99298096 112.28178406 C9.43478925 123.51864715 9.0061637 134.75996403 8.6171875 146.00390625 C-8.247819 141.00996719 -19.02845776 128.96669383 -27.3828125 114.00390625 C-41.52371801 86.04130302 -47.93065491 48.4684166 -39.3828125 18.00390625 C-36.61906316 9.66365558 -32.9188444 0.54422383 -25.8203125 -4.99609375 C-16.23622638 -8.92802652 -8.16645096 -5.54069407 0 0 Z " fill="#FDFDFD" transform="translate(240.3828125,624.99609375)"/>
<path d="M0 0 C12.41610429 10.76062372 15.45829953 25.61810867 16.8125 41.4375 C18.68920578 72.2045953 13.06995551 106.86134894 -7.21875 131.25390625 C-15.79148541 140.76215843 -23.8056501 148.39858022 -36.1875 152.4375 C-36.37378491 141.59696422 -36.51547173 130.75681614 -36.60199738 119.91499901 C-36.64354985 114.8792764 -36.6998066 109.84465773 -36.79101562 104.80957031 C-36.87866256 99.94002239 -36.92592363 95.07152849 -36.94651794 90.20125198 C-36.96117209 88.35379083 -36.9897858 86.50638004 -37.03334045 84.65937424 C-37.32022947 71.97588932 -35.78303845 63.82920958 -28.1875 53.4375 C-27.6368689 52.67529144 -27.08623779 51.91308289 -26.5189209 51.1277771 C-21.63148675 44.69361142 -14.53789937 41.34703308 -7.1875 38.4375 C-7.1875 36.7875 -7.1875 35.1375 -7.1875 33.4375 C-11.05238134 31.93962733 -13.3454288 32.9829812 -17.0625 34.5625 C-25.78648131 38.45392439 -29.91989217 43.10288825 -34.76953125 51.20703125 C-35.23746094 51.94308594 -35.70539062 52.67914062 -36.1875 53.4375 C-36.5175 53.4375 -36.8475 53.4375 -37.1875 53.4375 C-37.36182636 48.4755205 -37.48815639 43.51535949 -37.57202148 38.55102539 C-37.60701243 36.86613888 -37.65462421 35.18146165 -37.71557617 33.49731445 C-38.27217568 17.71140402 -38.27217568 17.71140402 -33.8984375 11.984375 C-32.07568359 10.07714844 -32.07568359 10.07714844 -30.1875 8.4375 C-29.52363281 7.84670654 -28.85976563 7.25591309 -28.17578125 6.6472168 C-20.49606088 0.1554792 -9.61775643 -4.71458649 0 0 Z " fill="#FEFEFE" transform="translate(776.1875,623.5625)"/>
<path d="M0 0 C2.26149871 0.01080412 4.52221513 -0.00002052 6.78369141 -0.01269531 C18.826065 -0.02540473 31.27294669 0.08784772 41.49853516 7.26074219 C46.22589998 12.21685047 47.87433388 17.1368959 47.77587891 23.84277344 C47.32514547 27.77240723 46.06439245 31.22836539 43.49853516 34.26074219 C34.82244765 39.70041255 23.84245861 37.53179042 14.12353516 36.26074219 C-9.39381596 33.23261954 -31.22857345 36.71095129 -52.81396484 46.57324219 C-58.41535999 49.02821379 -63.39983594 50.69361003 -69.50146484 49.26074219 C-72.07783956 47.37558996 -73.09813913 46.06739362 -74.50146484 43.26074219 C-75.27053642 33.83961542 -71.79543188 26.54395226 -65.95849609 19.36230469 C-49.93386778 1.52679087 -22.4310922 -0.12714375 0 0 Z " fill="#000000" transform="translate(391.50146484375,560.7392578125)"/>
<path d="M0 0 C2.54500816 0.0364684 5.08854651 0.04101795 7.63378906 0.04052734 C20.82073965 0.09555862 33.94991402 0.70698168 46.49316406 5.16162109 C47.25024658 5.42330078 48.0073291 5.68498047 48.78735352 5.95458984 C54.73083583 8.08641489 60.05409639 10.69215357 65.18066406 14.41162109 C65.82132813 14.83701172 66.46199219 15.26240234 67.12207031 15.70068359 C73.48216577 20.39863747 77.00730266 27.67228986 78.87988281 35.23583984 C79.42211242 39.13639479 79.48098917 41.66871163 77.99316406 45.34912109 C75.1217138 48.61663346 73.61244255 50.25068475 69.15722656 50.75146484 C63.92258517 50.30410355 60.01595263 48.38110387 55.30566406 46.16162109 C34.50647764 36.8456022 11.44908308 33.58020977 -11.25683594 35.91162109 C-15.90358444 36.37978974 -20.52697998 36.62264534 -25.19433594 36.72412109 C-25.87294678 36.75376953 -26.55155762 36.78341797 -27.25073242 36.81396484 C-30.74085063 36.85554997 -32.68319179 36.49610507 -35.67089844 34.64208984 C-39.23066523 30.94640468 -40.12133979 28.27135162 -40.19433594 23.16162109 C-40.0445219 16.13908793 -37.98821714 11.85856399 -33.38183594 6.66162109 C-23.72214571 -0.41730384 -11.38808253 -0.16817843 0 0 Z " fill="#000000" transform="translate(608.8193359375,561.58837890625)"/>
<path d="M0 0 C7.89003568 4.01578049 11.42424691 11.7738097 14.16796875 19.7734375 C17.76424103 32.11141778 17.14736655 46.51590705 11.60546875 58.171875 C8.1045072 64.41112144 4.59821612 68.63220506 -1.9453125 71.76171875 C-7.28194778 72.82904581 -11.32718244 72.25828378 -16.1953125 69.82421875 C-24.28850946 62.96259524 -28.46986526 53.81982293 -30.0703125 43.38671875 C-30.87564925 29.9732411 -30.62421039 16.81389622 -21.58984375 5.97265625 C-15.37583389 -0.51291703 -8.8452565 -2.62019862 0 0 Z " fill="#000000" transform="translate(394.0703125,630.61328125)"/>
<path d="M0 0 C4.81788026 3.33988512 7.33388722 7.85046379 9.8125 13.0625 C10.15410156 13.77792969 10.49570312 14.49335937 10.84765625 15.23046875 C15.18949063 26.64040561 14.17686062 42.08383597 10.08203125 53.35546875 C7.11249217 59.68743977 2.66035751 66.12335699 -4.0625 68.8125 C-10.82380413 69.60794754 -15.65240112 69.10486552 -21.1875 65.0625 C-30.40197256 55.86675605 -34.08476551 43.60539294 -34.22265625 30.796875 C-33.67198973 19.46120313 -30.59109587 9.06829251 -22.1875 1.0625 C-14.97453315 -3.93514979 -7.68374959 -4.09020891 0 0 Z " fill="#010101" transform="translate(627.1875,633.9375)"/>
<path d="M0 0 C2.525805 0.88657141 4.19679996 2.12337183 6.32421875 3.75 C31.6695404 21.6968318 61.09540056 28.89933304 91.69921875 29.125 C92.43430664 29.13330841 93.16939453 29.14161682 93.92675781 29.150177 C124.27859701 29.40053901 153.61474299 20.0497826 177.38671875 0.94140625 C179.13671875 -0.25 179.13671875 -0.25 181.82421875 0 C184.13671875 0.75 184.13671875 0.75 185.13671875 1.75 C185.52248438 4.81040733 185.53979715 6.22818533 183.625 8.70703125 C160.55605488 28.37983005 129.44038649 39.78858922 99.13671875 40.75 C98.41033203 40.78109863 97.68394531 40.81219727 96.93554688 40.84423828 C81.93930007 41.42664521 67.81192279 39.80392578 53.13671875 36.75 C52.4087207 36.60046875 51.68072266 36.4509375 50.93066406 36.296875 C33.15848032 32.4979718 6.40245147 23.05029265 -4.86328125 7.75 C-5.05078125 3.8125 -5.05078125 3.8125 -3.86328125 0.75 C-1.86328125 -0.25 -1.86328125 -0.25 0 0 Z " fill="#030303" transform="translate(416.86328125,807.25)"/>
<path d="M0 0 C1.98 0 3.96 0 6 0 C7.45451847 4.26225226 6.89370879 6.81131027 5.05664062 10.74731445 C4.1058873 12.62750244 3.13785063 14.49901223 2.15625 16.36328125 C1.38248016 17.88133362 1.38248016 17.88133362 0.59307861 19.43005371 C-0.51531282 21.60193257 -1.63060608 23.77030028 -2.7520752 25.93545532 C-5.68709734 31.60600871 -8.56818947 37.30384671 -11.453125 43 C-12.02520691 44.12678665 -12.59728882 45.2535733 -13.18670654 46.414505 C-17.76095543 55.45179731 -22.11285915 64.5676823 -26.25 73.8125 C-26.54043182 74.46034454 -26.83086365 75.10818909 -27.13009644 75.77566528 C-28.54187602 78.93040832 -29.9451281 82.08881267 -31.34130859 85.25048828 C-33.36718813 89.83722899 -35.42138875 94.41116696 -37.47525024 98.98542786 C-37.76604462 99.63307602 -38.05683899 100.28072418 -38.35644531 100.94799805 C-38.64249634 101.58506683 -38.92854736 102.22213562 -39.2232666 102.87850952 C-40.02277705 104.66141783 -40.81956552 106.44554602 -41.61621094 108.22973633 C-45.01850304 115.84788774 -48.48725029 123.43216498 -52 131 C-54.97 131 -57.94 131 -61 131 C-56.51111368 119.43161012 -51.55873934 108.11269309 -46.4375 96.8125 C-45.84017059 95.49185547 -45.84017059 95.49185547 -45.23077393 94.14453125 C-42.84211178 88.86354109 -40.44680632 83.58560311 -38.04815674 78.30914307 C-37.12393966 76.27304543 -36.20309599 74.23549098 -35.28466797 72.19677734 C-24.26669861 47.77307655 -12.05901198 23.92098347 0 0 Z " fill="#020202" transform="translate(480,1273)"/>
<path d="M0 0 C4.47424648 2.3672606 5.52007391 5.52022867 6.98706055 10.26928711 C7.36088688 11.72546197 7.72541665 13.18404593 8.08203125 14.64453125 C8.27755081 15.42228409 8.47307037 16.20003693 8.67451477 17.00135803 C9.08430177 18.64012593 9.49000365 20.27992014 9.8918457 21.9206543 C10.50563425 24.42081479 11.13562247 26.91648675 11.76757812 29.41210938 C12.16503906 31.0101741 12.56155513 32.60847418 12.95703125 34.20703125 C13.1444841 34.94783432 13.33193695 35.68863739 13.52507019 36.45188904 C14.51423555 40.53699796 15.19643448 44.28881799 14.8203125 48.4921875 C11.06701982 52.62080945 5.09116991 55.68856598 -0.1796875 57.4921875 C-2.8671875 57.44140625 -2.8671875 57.44140625 -5.1796875 56.4921875 C-7.30589634 52.30687109 -8.04479877 47.76686725 -8.90625 43.19140625 C-9.05879242 42.39620071 -9.21133484 41.60099518 -9.36849976 40.7816925 C-9.68867444 39.10373087 -10.00621834 37.42526538 -10.32128906 35.74633789 C-10.80144597 33.19689869 -11.29473455 30.65024005 -11.7890625 28.10351562 C-12.09976186 26.46629812 -12.40968294 24.82893268 -12.71875 23.19140625 C-12.86559235 22.43905197 -13.01243469 21.68669769 -13.16372681 20.9115448 C-14.06568652 16.02679598 -14.49472101 11.46237964 -14.1796875 6.4921875 C-11.984375 4.109375 -11.984375 4.109375 -9.0546875 2.3671875 C-8.10335937 1.76648437 -7.15203125 1.16578125 -6.171875 0.546875 C-3.1796875 -0.5078125 -3.1796875 -0.5078125 0 0 Z " fill="#030303" transform="translate(658.1796875,1344.5078125)"/>
<path d="M0 0 C2 0.6875 2 0.6875 4 2.6875 C3.40182339 13.77677405 -3.32110296 22.29392546 -11 29.6875 C-24.68889737 41.0665479 -41.03887225 41.54798562 -58 40.6875 C-73.06235008 38.82444202 -85.25374185 30.06927241 -94.625 18.4375 C-96.9295631 15.45812008 -97.43105637 13.45616425 -97 9.6875 C-95 7.6875 -95 7.6875 -92.6171875 7.2734375 C-90 7.6875 -90 7.6875 -88.0078125 9.6640625 C-87.38648438 10.53804687 -86.76515625 11.41203125 -86.125 12.3125 C-78.38843448 22.52246566 -68.34944739 29.45232346 -55.41015625 31.44140625 C-41.35890545 32.87613688 -27.36222627 30.47908684 -16 21.6875 C-10.46575406 16.37747765 -7.67727064 10.21445683 -5.04296875 3.09375 C-3.78839837 0.19931048 -3.16186613 -0.49404158 0 0 Z " fill="#020202" transform="translate(557,724.3125)"/>
<path d="M0 0 C5.17765813 0.53581429 9.65327794 1.46812017 14.625 3.0625 C31.75649761 7.84570771 51.93937638 6.34606672 69 2 C72.00174848 1.56071973 74.97700159 1.2651753 78 1 C80 4 80 4 80.0625 6.5 C79 9 79 9 75.86206055 10.55249023 C64.26149226 15.16528047 51.99291252 15.53691101 39.6875 15.4375 C38.92329742 15.43545563 38.15909485 15.43341125 37.37173462 15.43130493 C23.75949217 15.37202142 10.13965374 14.88517675 -2 8 C-3.0625 6.0625 -3.0625 6.0625 -3 4 C-1.5625 1.75 -1.5625 1.75 0 0 Z " fill="#030303" transform="translate(468,866)"/>
<path d="M0 0 C1.32 0.33 2.64 0.66 4 1 C2.43509465 21.92031366 2.43509465 21.92031366 -1 28 C-3.375 27.75 -3.375 27.75 -6 27 C-8.01185634 24.48517957 -8.16565598 21.92189936 -8.5 18.8125 C-8.665 17.554375 -8.83 16.29625 -9 15 C-9.66 14.67 -10.32 14.34 -11 14 C-11.07516846 14.57218262 -11.15033691 15.14436523 -11.2277832 15.73388672 C-12.91815608 28.5337019 -14.78579551 41.28010184 -17 54 C-18.98 53.34 -20.96 52.68 -23 52 C-23.99 54.97 -24.98 57.94 -26 61 C-28.97 60.67 -31.94 60.34 -35 60 C-34.67 57.36 -34.34 54.72 -34 52 C-32.02 51.505 -32.02 51.505 -30 51 C-30 49.68 -30 48.36 -30 47 C-30.66 47 -31.32 47 -32 47 C-32.33 47.99 -32.66 48.98 -33 50 C-32.67 47.36 -32.34 44.72 -32 42 C-31.06027344 42.14308594 -31.06027344 42.14308594 -30.1015625 42.2890625 C-29.28429688 42.39992188 -28.46703125 42.51078125 -27.625 42.625 C-26.81289063 42.74101563 -26.00078125 42.85703125 -25.1640625 42.9765625 C-24.44992188 42.98429687 -23.73578125 42.99203125 -23 43 C-22.34 42.34 -21.68 41.68 -21 41 C-20.67 41 -20.34 41 -20 41 C-19.86424561 40.12263184 -19.72849121 39.24526367 -19.58862305 38.34130859 C-19.07657379 35.06358658 -18.55556521 31.78754507 -18.02856445 28.51220703 C-17.80299253 27.09870911 -17.58092838 25.68464649 -17.36254883 24.27001953 C-17.04665727 22.22787772 -16.71789046 20.18815024 -16.38671875 18.1484375 C-16.19295654 16.92302246 -15.99919434 15.69760742 -15.79956055 14.43505859 C-14.97259312 10.88225502 -13.88971117 8.11655005 -12 5 C-9.3125 4.125 -9.3125 4.125 -7 4 C-4.65102489 7.57452735 -3.87313739 9.63431305 -3 14 C-2.01 9.38 -1.02 4.76 0 0 Z " fill="#2C2D2F" transform="translate(80,1194)"/>
<path d="M0 0 C0.33 0.66 0.66 1.32 1 2 C1.99 2.33 2.98 2.66 4 3 C3.38641858 11.80171974 1.70450615 20.35954742 0 29 C-1.65 28.67 -3.3 28.34 -5 28 C-5.33 26.68 -5.66 25.36 -6 24 C-6.66 25.32 -7.32 26.64 -8 28 C-8.33 28 -8.66 28 -9 28 C-9 26.35 -9 24.7 -9 23 C-9.66 23 -10.32 23 -11 23 C-11.33 24.32 -11.66 25.64 -12 27 C-12.66 26.34 -13.32 25.68 -14 25 C-14.66 25.33 -15.32 25.66 -16 26 C-16 24.02 -16 22.04 -16 20 C-13.53721199 18.768606 -11.7204945 18.92840804 -9 19 C-8.67 18.34 -8.34 17.68 -8 17 C-9.98 16.67 -11.96 16.34 -14 16 C-14.04254356 14.00045254 -14.04080783 11.99958364 -14 10 C-13 9 -13 9 -9.75 8.8125 C-6 9 -6 9 -1 11 C-0.67 7.37 -0.34 3.74 0 0 Z " fill="#070706" transform="translate(58,1247)"/>
<path d="M0 0 C2 2 2 2 3.4375 5 C4.80851764 8.22025543 4.80851764 8.22025543 8 10 C9.9418988 16.61228833 8.82393858 21.90029267 6 28 C2.59687262 26.94124926 -0.01353231 25.99097846 -3 24 C-4.3606864 17.95250488 -3.74778894 13.39033027 -2.0625 7.5 C-1.86720703 6.77296875 -1.67191406 6.0459375 -1.47070312 5.296875 C-0.99348788 3.52768677 -0.4985978 1.76328149 0 0 Z " fill="#070706" transform="translate(70,1217)"/>
<path d="M0 0 C3.42034651 11.5936636 6.72351148 23.11832747 9 35 C7.02 35.99 5.04 36.98 3 38 C1.11549283 30.17643991 -0.58738641 22.32356967 -2.1875 14.4375 C-2.36635742 13.56899414 -2.54521484 12.70048828 -2.72949219 11.80566406 C-2.89481445 10.98163086 -3.06013672 10.15759766 -3.23046875 9.30859375 C-3.37895264 8.57439209 -3.52743652 7.84019043 -3.68041992 7.08374023 C-4 5 -4 5 -4 1 C-2 0 -2 0 0 0 Z " fill="#F9F9F9" transform="translate(656,1354)"/>
<path d="M0 0 C2 2 2 2 2.046875 3.91015625 C1.89992188 4.97556641 1.89992188 4.97556641 1.75 6.0625 C1.61851563 7.13177734 1.61851563 7.13177734 1.484375 8.22265625 C1.24460937 9.10244141 1.24460937 9.10244141 1 10 C0.01 10.495 0.01 10.495 -1 11 C-1.90725434 13.11327425 -1.90725434 13.11327425 -2.625 15.5625 C-2.88539062 16.38878906 -3.14578125 17.21507812 -3.4140625 18.06640625 C-3.60742188 18.70449219 -3.80078125 19.34257813 -4 20 C-6.97 19.67 -9.94 19.34 -13 19 C-12.67 16.36 -12.34 13.72 -12 11 C-10.68 10.67 -9.36 10.34 -8 10 C-8 8.68 -8 7.36 -8 6 C-8.66 6 -9.32 6 -10 6 C-10.33 6.99 -10.66 7.98 -11 9 C-10.67 6.36 -10.34 3.72 -10 1 C-7.03 1.33 -4.06 1.66 -1 2 C-0.67 1.34 -0.34 0.68 0 0 Z " fill="#090909" transform="translate(58,1235)"/>
<path d="M0 0 C3.23356015 1.21258505 4.00856305 2.01284458 6 5 C6.265625 7.55859375 6.265625 7.55859375 6.25 10.4375 C6.25515625 11.38496094 6.2603125 12.33242187 6.265625 13.30859375 C5.99748089 16.02552453 5.38531142 17.67465583 4 20 C3.34 19.67 2.68 19.34 2 19 C2.495 14.545 2.495 14.545 3 10 C1.515 12.475 1.515 12.475 0 15 C-1.32 14.34 -2.64 13.68 -4 13 C-4.17673419 8.4932782 -4.13551182 5.03374456 -2 1 C-1.34 0.67 -0.68 0.34 0 0 Z " fill="#242425" transform="translate(62,1278)"/>
<path d="M0 0 C0.33 0.66 0.66 1.32 1 2 C1.99 2.33 2.98 2.66 4 3 C3.38641858 11.80171974 1.70450615 20.35954742 0 29 C-1.65 28.67 -3.3 28.34 -5 28 C-3.35 18.76 -1.7 9.52 0 0 Z " fill="#292A2B" transform="translate(58,1247)"/>
<path d="M0 0 C0 3.3 0 6.6 0 10 C-5.94 10 -11.88 10 -18 10 C-18 7.36 -18 4.72 -18 2 C-17.2575 2.495 -17.2575 2.495 -16.5 3 C-13.00242279 4.39903089 -9.6829636 4.6284422 -6 4 C-0.125 0 -0.125 0 0 0 Z " fill="#E7C987" transform="translate(146,1351)"/>
<path d="M0 0 C0.99 0.33 1.98 0.66 3 1 C3 1.99 3 2.98 3 4 C3.9590625 4.4640625 3.9590625 4.4640625 4.9375 4.9375 C7 6 7 6 8 7 C8.36090226 14.45864662 8.36090226 14.45864662 6 18 C3.69 17.01 1.38 16.02 -1 15 C-1 13.68 -1 12.36 -1 11 C-0.01 11 0.98 11 2 11 C1.34 10.34 0.68 9.68 0 9 C-0.1953125 6.8359375 -0.1953125 6.8359375 -0.125 4.375 C-0.10695312 3.55773438 -0.08890625 2.74046875 -0.0703125 1.8984375 C-0.04710937 1.27195312 -0.02390625 0.64546875 0 0 Z " fill="#303132" transform="translate(63,1261)"/>
<path d="M0 0 C2 2 2 2 3.4375 5 C4.80851764 8.22025543 4.80851764 8.22025543 8 10 C8.36328125 11.875 8.36328125 11.875 8.3125 14 C8.30863281 14.70125 8.30476563 15.4025 8.30078125 16.125 C8 18 8 18 6 20 C5.67 18.35 5.34 16.7 5 15 C2.69 15.66 0.38 16.32 -2 17 C-2.25706972 11.08739655 -1.2982126 5.76081841 0 0 Z " fill="#2F2F31" transform="translate(70,1217)"/>
<path d="M0 0 C3.96 1.98 3.96 1.98 8 4 C8.125 9.75 8.125 9.75 7 12 C6.01 11.67 5.02 11.34 4 11 C3.67 10.01 3.34 9.02 3 8 C1.00334686 6.31461399 1.00334686 6.31461399 -1 5 C-0.67 3.35 -0.34 1.7 0 0 Z " fill="#333336" transform="translate(65,1253)"/>
<path d="M0 0 C0.99 0 1.98 0 3 0 C3 0.66 3 1.32 3 2 C8.94 1.505 8.94 1.505 15 1 C15.33 2.32 15.66 3.64 16 5 C10.72 5 5.44 5 0 5 C0 3.35 0 1.7 0 0 Z " fill="#C5A46D" transform="translate(129,1355)"/>
<path d="M0 0 C0.66 0 1.32 0 2 0 C2 1.65 2 3.3 2 5 C0.865625 5.12375 -0.26875 5.2475 -1.4375 5.375 C-3.2009375 5.684375 -3.2009375 5.684375 -5 6 C-5.33 6.66 -5.66 7.32 -6 8 C-3.69 8.33 -1.38 8.66 1 9 C1 9.99 1 10.98 1 12 C-1.97 11.67 -4.94 11.34 -8 11 C-7.67 8.36 -7.34 5.72 -7 3 C-4.69 3 -2.38 3 0 3 C0 2.01 0 1.02 0 0 Z " fill="#2B2C2E" transform="translate(53,1243)"/>
<path d="M0 0 C1.134375 0.020625 2.26875 0.04125 3.4375 0.0625 C3.7675 1.0525 4.0975 2.0425 4.4375 3.0625 C2.1275 3.0625 -0.1825 3.0625 -2.5625 3.0625 C0.2799854 4.63523568 0.2799854 4.63523568 3.4375 5.0625 C3.4375 7.0425 3.4375 9.0225 3.4375 11.0625 C2.7775 11.0625 2.1175 11.0625 1.4375 11.0625 C1.4375 10.0725 1.4375 9.0825 1.4375 8.0625 C-1.5325 7.5675 -1.5325 7.5675 -4.5625 7.0625 C-4.60504356 5.06295254 -4.60330783 3.06208364 -4.5625 1.0625 C-3.5625 0.0625 -3.5625 0.0625 0 0 Z " fill="#2E3031" transform="translate(48.5625,1255.9375)"/>
<path d="M0 0 C2.64 0.33 5.28 0.66 8 1 C8 2.65 8 4.3 8 6 C7.38125 6.12375 6.7625 6.2475 6.125 6.375 C3.80879168 6.87197356 3.80879168 6.87197356 2 9 C2 7.68 2 6.36 2 5 C1.34 5 0.68 5 0 5 C-0.33 5.99 -0.66 6.98 -1 8 C-0.67 5.36 -0.34 2.72 0 0 Z " fill="#303133" transform="translate(48,1236)"/>
<path d="M0 0 C3.40312738 1.05875074 6.01353231 2.00902154 9 4 C9.1875 6.625 9.1875 6.625 9 9 C5.59687262 7.94124926 2.98646769 6.99097846 0 5 C-0.1875 2.375 -0.1875 2.375 0 0 Z " fill="#333436" transform="translate(67,1236)"/>
<path d="M0 0 C1.31823302 0.59155331 2.62947051 1.19871463 3.9375 1.8125 C5.03384766 2.31716797 5.03384766 2.31716797 6.15234375 2.83203125 C8 4 8 4 9 7 C8.67 7.66 8.34 8.32 8 9 C2.25 7.125 2.25 7.125 0 6 C0 4.02 0 2.04 0 0 Z " fill="#2F3032" transform="translate(66,1244)"/>
<path d="M0 0 C1.84765625 0.33984375 1.84765625 0.33984375 4.0625 0.9375 C5.16271484 1.22947266 5.16271484 1.22947266 6.28515625 1.52734375 C7.13400391 1.76130859 7.13400391 1.76130859 8 2 C8 3.98 8 5.96 8 8 C7.01 8.495 7.01 8.495 6 9 C6 7.35 6 5.7 6 4 C5.34 4 4.68 4 4 4 C3.67 5.32 3.34 6.64 3 8 C2.34 7.34 1.68 6.68 1 6 C0.01 6.495 0.01 6.495 -1 7 C-1.04254356 5.00045254 -1.04080783 2.99958364 -1 1 C-0.67 0.67 -0.34 0.34 0 0 Z " fill="#2D2E30" transform="translate(43,1266)"/>
<path d="M0 0 C2.64 0 5.28 0 8 0 C8 0.99 8 1.98 8 3 C7.01 3.33 6.02 3.66 5 4 C5.66 4.33 6.32 4.66 7 5 C7 5.66 7 6.32 7 7 C1.25 7.125 1.25 7.125 -1 6 C-1 5.34 -1 4.68 -1 4 C-0.01 4 0.98 4 2 4 C2 3.34 2 2.68 2 2 C1.34 2 0.68 2 0 2 C0 1.34 0 0.68 0 0 Z " fill="#2E2F31" transform="translate(51,1221)"/>
<path d="M0 0 C5.75 -0.125 5.75 -0.125 8 1 C8 2.65 8 4.3 8 6 C2.25 6.125 2.25 6.125 0 5 C0 3.35 0 1.7 0 0 Z " fill="#323335" transform="translate(49,1229)"/>
<path d="M0 0 C3 1 3 1 4 3 C4.12207871 4.78859511 4.17548448 6.58228381 4.1875 8.375 C4.20167969 9.33148437 4.21585937 10.28796875 4.23046875 11.2734375 C3.99745572 14.03010017 3.40920164 15.64947395 2 18 C1.34 17.67 0.68 17.34 0 17 C0.16757813 16.10796875 0.33515625 15.2159375 0.5078125 14.296875 C0.71148437 13.12640625 0.91515625 11.9559375 1.125 10.75 C1.33382812 9.58984375 1.54265625 8.4296875 1.7578125 7.234375 C2.00266144 3.96445684 1.78779541 2.67507166 0 0 Z " fill="#313234" transform="translate(64,1280)"/>
<path d="M0 0 C0.66 0.33 1.32 0.66 2 1 C1.34 3.64 0.68 6.28 0 9 C0.66 9 1.32 9 2 9 C2.33 8.01 2.66 7.02 3 6 C3 7.98 3 9.96 3 12 C1.68 12 0.36 12 -1 12 C-2 11 -2 11 -2.1875 7.6875 C-2.01798052 4.35361682 -1.75557129 2.74308013 0 0 Z " fill="#2D2E30" transform="translate(60,1280)"/>
<path d="M0 0 C2.475 0.99 2.475 0.99 5 2 C4.625 3.9375 4.625 3.9375 4 6 C3.01 6.495 3.01 6.495 2 7 C1.67 7.99 1.34 8.98 1 10 C0.34 10 -0.32 10 -1 10 C-1.125 3.375 -1.125 3.375 0 0 Z " fill="#2A2C2D" transform="translate(53,1277)"/>
<path d="M0 0 C1.32 0.66 2.64 1.32 4 2 C3.67 3.32 3.34 4.64 3 6 C-1.75 7.125 -1.75 7.125 -4 6 C-4 4.68 -4 3.36 -4 2 C-2.68 2 -1.36 2 0 2 C0 1.34 0 0.68 0 0 Z " fill="#292A2C" transform="translate(66,1270)"/>
<path d="M0 0 C0.33 1.32 0.66 2.64 1 4 C-2.63 3.67 -6.26 3.34 -10 3 C-4 0 -4 0 0 0 Z " fill="#C09E66" transform="translate(144,1356)"/>
<path d="M0 0 C3 4 3 4 2.85546875 6.578125 C2.63503906 7.45984375 2.41460937 8.3415625 2.1875 9.25 C1.97480469 10.14203125 1.76210938 11.0340625 1.54296875 11.953125 C1.36378906 12.62859375 1.18460937 13.3040625 1 14 C0.67 14 0.34 14 0 14 C0 9.38 0 4.76 0 0 Z " fill="#0F0E0D" transform="translate(309,1212)"/>
<path d="M0 0 C1.98 0.99 3.96 1.98 6 3 C5.67 4.32 5.34 5.64 5 7 C4.01 6.67 3.02 6.34 2 6 C0.8125 2.9375 0.8125 2.9375 0 0 Z " fill="#222223" transform="translate(67,1258)"/>
<path d="M0 0 C1.65 0.33 3.3 0.66 5 1 C5.33 1.99 5.66 2.98 6 4 C5.01 4.33 4.02 4.66 3 5 C0.8125 3.5625 0.8125 3.5625 -1 2 C-0.67 1.34 -0.34 0.68 0 0 Z " fill="#2C2D2F" transform="translate(69,1239)"/>
<path d="M0 0 C0.66 0.33 1.32 0.66 2 1 C1.67 2.32 1.34 3.64 1 5 C1 4.34 1 3.68 1 3 C0.01 3.33 -0.98 3.66 -2 4 C-3.56118428 4.06740865 -5.1250252 4.08514456 -6.6875 4.0625 C-7.89986328 4.04896484 -7.89986328 4.04896484 -9.13671875 4.03515625 C-10.05904297 4.01775391 -10.05904297 4.01775391 -11 4 C-11 3.67 -11 3.34 -11 3 C-10.28972656 2.86722656 -9.57945312 2.73445313 -8.84765625 2.59765625 C-7.92855469 2.42105469 -7.00945312 2.24445313 -6.0625 2.0625 C-4.68771484 1.80146484 -4.68771484 1.80146484 -3.28515625 1.53515625 C-1.04710156 1.22285012 -1.04710156 1.22285012 0 0 Z " fill="#D9BB82" transform="translate(143,1353)"/>
<path d="M0 0 C2.31 0.33 4.62 0.66 7 1 C6.67 1.99 6.34 2.98 6 4 C3.69 3.34 1.38 2.68 -1 2 C-0.67 1.34 -0.34 0.68 0 0 Z " fill="#090909" transform="translate(46,1258)"/>
<path d="M0 0 C1.98 0 3.96 0 6 0 C6.33 1.32 6.66 2.64 7 4 C5.68 4 4.36 4 3 4 C3 3.34 3 2.68 3 2 C2.01 2 1.02 2 0 2 C0 1.34 0 0.68 0 0 Z " fill="#1E1E1F" transform="translate(49,1238)"/>
<path d="M0 0 C1.98 0.99 3.96 1.98 6 3 C5.01 3.33 4.02 3.66 3 4 C2.67 4.66 2.34 5.32 2 6 C1.34 5.34 0.68 4.68 0 4 C0 2.68 0 1.36 0 0 Z " fill="#2C2C2E" transform="translate(64,1254)"/>
<path d="M0 0 C1.98 0 3.96 0 6 0 C6 0.99 6 1.98 6 3 C4.35 3.33 2.7 3.66 1 4 C0.67 2.68 0.34 1.36 0 0 Z " fill="#1D1D1E" transform="translate(50,1231)"/>
</svg>
