<?xml version="1.0" encoding="UTF-8"?>
<svg version="1.1" xmlns="http://www.w3.org/2000/svg" width="96" height="96">
<path d="M0 0 C7.43490526 6.51240594 12.4207096 12.67792714 13.48828125 22.7890625 C13.53032926 24.19372872 13.56138635 25.59876249 13.58203125 27.00390625 C13.62328125 27.67873047 13.66453125 28.35355469 13.70703125 29.04882812 C13.82722313 37.18431604 10.92663183 40.61143834 7.08203125 48.94140625 C15.00203125 56.86140625 22.92203125 64.78140625 31.08203125 72.94140625 C29.10203125 75.25140625 27.12203125 77.56140625 25.08203125 79.94140625 C19.27311379 75.12273378 13.95137573 69.92884217 8.64453125 64.56640625 C7.81759766 63.73496094 6.99066406 62.90351562 6.13867188 62.046875 C4.11747594 60.01399585 2.0986679 57.97880662 0.08203125 55.94140625 C-4.13566905 57.31320511 -4.13566905 57.31320511 -8.23046875 59.00390625 C-17.17063804 62.12256995 -26.70152463 61.13295254 -35.23046875 57.12890625 C-43.7961233 52.33144189 -49.57063436 45.46459072 -52.29296875 35.87890625 C-54.06283676 24.72873776 -52.29737445 15.29009097 -45.65234375 5.98046875 C-34.24324176 -7.43293494 -14.5294938 -10.25039255 0 0 Z M-42.31640625 9.79296875 C-47.42785989 17.44537623 -49.02052769 25.12231891 -47.55859375 34.1640625 C-45.55348872 41.84578243 -40.20032992 47.73174699 -33.9375 52.42578125 C-27.16177012 56.28166052 -19.19258126 56.8046127 -11.73046875 54.87890625 C-2.92735245 51.76782078 2.79312668 46.16766584 7.08203125 37.94140625 C9.93640942 31.1934984 9.53102266 24.229901 7.2109375 17.36328125 C3.97129526 10.054469 -1.01840691 4.45031981 -8.18359375 0.78125 C-20.24102287 -3.75082563 -34.38291458 -0.7111515 -42.31640625 9.79296875 Z " fill="#000000" transform="translate(59.91796875,11.05859375)"/>
</svg>
