<?xml version="1.0" encoding="UTF-8"?>
<svg version="1.1" xmlns="http://www.w3.org/2000/svg" width="512" height="512">
<path d="M0 0 C0.83015625 -0.02449219 1.6603125 -0.04898438 2.515625 -0.07421875 C13.84193925 -0.12665539 22.84652211 4.95809233 32.3125 10.6875 C34.43053045 11.94608548 36.5490366 13.20387069 38.66796875 14.4609375 C40.29484619 15.43111816 40.29484619 15.43111816 41.95458984 16.42089844 C47.31652107 19.60039892 52.72090911 22.70538241 58.125 25.8125 C60.30997595 27.07147554 62.49487142 28.33059078 64.6796875 29.58984375 C66.30729004 30.52739502 66.30729004 30.52739502 67.96777344 31.48388672 C73.39659942 34.61180148 78.82319281 37.74358448 84.25 40.875 C86.41665583 42.12501879 88.5833225 43.37501878 90.75 44.625 C112.41666667 57.125 134.08333333 69.625 155.75 82.125 C156.8237085 82.74439453 157.89741699 83.36378906 159.00366211 84.00195312 C161.15830624 85.245123 163.31276757 86.48860975 165.46704102 87.73242188 C170.47754121 90.62483147 175.48962635 93.51435227 180.50863647 96.39196777 C182.26728749 97.40048314 184.02533209 98.4100477 185.78320312 99.41992188 C187.97472231 100.67850518 190.16734504 101.93516987 192.36132812 103.18945312 C209.01558903 112.76271164 222.38751961 120.78826962 227.83014035 140.34483492 C228.61442441 144.13711674 228.53134571 147.93305116 228.51742554 151.79179382 C228.52195665 152.72035795 228.52648776 153.64892207 228.53115618 154.6056245 C228.54378271 157.70677925 228.54218092 160.80775799 228.54052734 163.90893555 C228.54651374 166.13677699 228.55331955 168.36461636 228.56088257 170.592453 C228.57854001 176.63811706 228.58323789 182.68372449 228.58451414 188.72941184 C228.58593663 192.50940587 228.59020813 196.28938554 228.59550858 200.06937599 C228.61305476 212.58419495 228.62234893 225.09898176 228.62084763 237.61381044 C228.62076772 238.28773493 228.6206878 238.96165942 228.62060547 239.65600586 C228.62052371 240.33075979 228.62044195 241.00551372 228.62035771 241.70071474 C228.61954544 252.6271185 228.63867033 263.55338419 228.6668822 274.47974803 C228.69566589 285.7168778 228.70905385 296.95394245 228.70769465 308.19111663 C228.70718558 314.49264922 228.71283834 320.79402559 228.73405075 327.09552574 C228.75346872 333.02585918 228.75353301 338.95588796 228.73901749 344.88623238 C228.73693261 347.05654217 228.74161098 349.22687122 228.7537384 351.39714813 C228.84233976 368.35845063 227.22930423 381.7583981 215.2890625 394.69921875 C210.62547417 399.28093615 205.12126636 402.22634428 199.4375 405.375 C197.69616257 406.35937867 195.95483481 407.34377496 194.21411133 408.32923889 C192.41631647 409.3451924 190.61586198 410.35629866 188.81494141 411.36669922 C183.22410125 414.50899624 177.67663085 417.72662022 172.125 420.9375 C171.04742432 421.55890869 169.96984863 422.18031738 168.85961914 422.82055664 C161.68348851 426.95978199 154.52568033 431.12950036 147.375 435.3125 C138.10500223 440.73421178 128.79168248 446.07704915 119.46154785 451.39422607 C110.3371716 456.59545129 101.24867226 461.85527878 92.18310547 467.15844727 C81.67671741 473.3023965 71.1313613 479.37819756 60.58496094 485.453125 C56.01562194 488.08634876 51.44853252 490.72345995 46.8815918 493.36083984 C43.59814742 495.25585496 40.31281218 497.14755947 37.02734375 499.0390625 C33.59299566 501.0176122 30.16645548 503.00753915 26.75390625 505.0234375 C26.11356445 505.39863525 25.47322266 505.77383301 24.81347656 506.16040039 C23.23323126 507.08735131 21.65735787 508.02174559 20.08203125 508.95703125 C13.6166946 512.19415843 7.58871655 512.73919403 0.5 512.75 C-0.33015625 512.77449219 -1.1603125 512.79898438 -2.015625 512.82421875 C-13.34193925 512.87665539 -22.34652211 507.79190767 -31.8125 502.0625 C-33.93053045 500.80391452 -36.0490366 499.54612931 -38.16796875 498.2890625 C-39.25255371 497.64227539 -40.33713867 496.99548828 -41.45458984 496.32910156 C-46.81652107 493.14960108 -52.22090911 490.04461759 -57.625 486.9375 C-59.80997595 485.67852446 -61.99487142 484.41940922 -64.1796875 483.16015625 C-65.26475586 482.53512207 -66.34982422 481.91008789 -67.46777344 481.26611328 C-72.89659942 478.13819852 -78.32319281 475.00641552 -83.75 471.875 C-85.91665583 470.62498121 -88.0833225 469.37498122 -90.25 468.125 C-111.91666667 455.625 -133.58333333 443.125 -155.25 430.625 C-156.3237085 430.00560547 -157.39741699 429.38621094 -158.50366211 428.74804688 C-160.65830624 427.504877 -162.81276757 426.26139025 -164.96704102 425.01757812 C-169.97754121 422.12516853 -174.98962635 419.23564773 -180.00863647 416.35803223 C-181.76728749 415.34951686 -183.52533209 414.3399523 -185.28320312 413.33007812 C-187.47472231 412.07149482 -189.66734504 410.81483013 -191.86132812 409.56054688 C-208.51558903 399.98728836 -221.88751961 391.96173038 -227.33014035 372.40516508 C-228.11442441 368.61288326 -228.03134571 364.81694884 -228.01742554 360.95820618 C-228.02195665 360.02964205 -228.02648776 359.10107793 -228.03115618 358.1443755 C-228.04378271 355.04322075 -228.04218092 351.94224201 -228.04052734 348.84106445 C-228.04651374 346.61322301 -228.05331955 344.38538364 -228.06088257 342.157547 C-228.07854001 336.11188294 -228.08323789 330.06627551 -228.08451414 324.02058816 C-228.08593663 320.24059413 -228.09020813 316.46061446 -228.09550858 312.68062401 C-228.11305476 300.16580505 -228.12234893 287.65101824 -228.12084763 275.13618956 C-228.12076772 274.46226507 -228.1206878 273.78834058 -228.12060547 273.09399414 C-228.12052371 272.41924021 -228.12044195 271.74448628 -228.12035771 271.04928526 C-228.11954544 260.1228815 -228.13867033 249.19661581 -228.1668822 238.27025197 C-228.19566589 227.0331222 -228.20905385 215.79605755 -228.20769465 204.55888337 C-228.20718558 198.25735078 -228.21283834 191.95597441 -228.23405075 185.65447426 C-228.25346872 179.72414082 -228.25353301 173.79411204 -228.23901749 167.86376762 C-228.23693261 165.69345783 -228.24161098 163.52312878 -228.2537384 161.35285187 C-228.34233976 144.39154937 -226.72930423 130.9916019 -214.7890625 118.05078125 C-210.12548281 113.46907235 -204.62127628 110.52361549 -198.9375 107.375 C-197.19405382 106.3895739 -195.45061738 105.40413004 -193.70779419 104.41760254 C-191.90915686 103.40127078 -190.10786773 102.38976947 -188.30615234 101.37890625 C-182.75888081 98.26065211 -177.25715277 95.06337366 -171.75 91.875 C-169.58354229 90.62463789 -167.416875 89.37463881 -165.25 88.125 C-164.1775 87.50625 -163.105 86.8875 -162 86.25 C-126.25 65.625 -126.25 65.625 -122.99951172 63.74975586 C-120.83442929 62.50064482 -118.66939018 61.25145871 -116.50439453 60.00219727 C-111.06384294 56.86297691 -105.62252784 53.72509437 -100.1796875 50.58984375 C-89.72793808 44.56752675 -79.28699707 38.52831935 -68.875 32.4375 C-58.80171347 26.545832 -48.68034386 20.74144069 -38.53955078 14.96704102 C-36.88802002 14.02622681 -36.88802002 14.02622681 -35.203125 13.06640625 C-34.12998047 12.45684082 -33.05683594 11.84727539 -31.95117188 11.21923828 C-29.78888499 9.97351565 -27.63926319 8.70558571 -25.50195312 7.41748047 C-16.84358057 2.20981109 -10.06159636 0.0153378 0 0 Z " fill="#000000" transform="translate(255.75,-0.375)"/>
<path d="M0 0 C1.18335938 1.01513672 1.18335938 1.01513672 2.390625 2.05078125 C3.20015625 2.73785156 4.0096875 3.42492187 4.84375 4.1328125 C14.28129712 12.36840787 22.39768144 21.27268096 29.515625 31.55078125 C29.9892749 32.23342041 30.4629248 32.91605957 30.95092773 33.61938477 C33.07881594 36.77723843 34.61327821 39.28070091 35.390625 43.05078125 C34.53404297 43.531521 34.53404297 43.531521 33.66015625 44.02197266 C22.39906404 50.34850439 11.16960872 56.72445535 0.015625 63.23828125 C-0.97840332 63.81868164 -1.97243164 64.39908203 -2.99658203 64.99707031 C-7.6172217 67.70001097 -12.22984055 70.41543973 -16.828125 73.15625 C-17.62041504 73.62716064 -18.41270508 74.09807129 -19.22900391 74.58325195 C-20.69199263 75.45410874 -22.15275202 76.32872588 -23.61083984 77.20776367 C-28.3873029 80.05078125 -28.3873029 80.05078125 -30.609375 80.05078125 C-32.08984375 78.14453125 -32.08984375 78.14453125 -33.796875 75.55078125 C-44.50029073 59.98814611 -60.17617082 48.4624555 -78.90356445 44.50366211 C-100.69083746 40.53534573 -120.58668068 43.77992306 -139.0546875 56.33984375 C-155.38680812 67.99960669 -165.89444191 84.91186334 -170.0703125 104.4375 C-173.26056803 125.82145919 -167.58380093 146.18610127 -155.609375 164.05078125 C-143.8320025 179.77703747 -124.95197136 190.21417017 -105.609375 193.05078125 C-84.27921141 195.06734127 -64.0307147 188.87742124 -46.9609375 176.0625 C-40.12393331 170.30889801 -35.38264296 163.51045364 -30.609375 156.05078125 C-27.21934779 157.34186316 -24.08776669 158.80859666 -20.93359375 160.59765625 C-20.03503662 161.10594971 -19.13647949 161.61424316 -18.21069336 162.13793945 C-17.2491333 162.68667725 -16.28757324 163.23541504 -15.296875 163.80078125 C-14.29084229 164.37207764 -13.28480957 164.94337402 -12.24829102 165.53198242 C-2.81523876 170.90300366 6.55805645 176.37548728 15.92578125 181.859375 C22.38631228 185.63893683 28.87929171 189.35949724 35.390625 193.05078125 C33.95932304 198.52191181 31.34388239 202.27370797 27.953125 206.67578125 C27.41888916 207.37654785 26.88465332 208.07731445 26.33422852 208.79931641 C15.84550261 222.37878831 3.89878791 234.75329657 -10.609375 244.05078125 C-11.42100098 244.57454346 -11.42100098 244.57454346 -12.24902344 245.10888672 C-21.63442609 251.11481485 -31.23207919 255.99967284 -41.609375 260.05078125 C-42.28774414 260.32019531 -42.96611328 260.58960938 -43.66503906 260.8671875 C-79.85623333 274.95572011 -120.41679063 272.98729251 -155.859375 257.73828125 C-169.70657405 251.49689943 -182.06018257 243.91701237 -193.609375 234.05078125 C-194.12983398 233.61008301 -194.65029297 233.16938477 -195.18652344 232.71533203 C-207.82897244 221.90471537 -218.2374517 209.41441358 -226.609375 195.05078125 C-226.95983887 194.45152832 -227.31030273 193.85227539 -227.67138672 193.23486328 C-246.98868906 159.73907071 -252.98680502 119.05264117 -243.5078125 81.48046875 C-232.62905738 41.45418341 -207.57576252 7.46030409 -171.63525391 -13.54785156 C-156.53415025 -22.13025754 -139.83859031 -29.08232186 -122.609375 -31.94921875 C-121.51238281 -32.13355469 -120.41539062 -32.31789063 -119.28515625 -32.5078125 C-77.21709096 -38.67552682 -32.92178954 -27.34632518 0 0 Z " fill="#FDFDFD" transform="translate(351.609375,137.94921875)"/>
<path d="M0 0 C5.61 0 11.22 0 17 0 C17 5.61 17 11.22 17 17 C22.61 17 28.22 17 34 17 C34 22.28 34 27.56 34 33 C28.39 33 22.78 33 17 33 C17 38.61 17 44.22 17 50 C11.39 50 5.78 50 0 50 C0 44.72 0 39.44 0 34 C-5.61 34 -11.22 34 -17 34 C-17 28.06 -17 22.12 -17 16 C-11.39 16 -5.78 16 0 16 C0 10.72 0 5.44 0 0 Z " fill="#F9F9F9" transform="translate(437,231)"/>
<path d="M0 0 C5.61 0 11.22 0 17 0 C17 5.61 17 11.22 17 17 C22.28 17 27.56 17 33 17 C33 22.28 33 27.56 33 33 C27.72 33 22.44 33 17 33 C17 38.61 17 44.22 17 50 C11.39 50 5.78 50 0 50 C0 44.39 0 38.78 0 33 C-5.61 33 -11.22 33 -17 33 C-17 27.72 -17 22.44 -17 17 C-11.39 17 -5.78 17 0 17 C0 11.39 0 5.78 0 0 Z " fill="#FDFDFD" transform="translate(374,231)"/>
</svg>
