<?xml version="1.0" encoding="UTF-8"?>
<svg version="1.1" xmlns="http://www.w3.org/2000/svg" width="512" height="512">
<path d="M0 0 C9.73425724 0.57659363 20.07327703 11.34998739 26.4296875 17.984375 C36.32211422 29.59068721 42.99471141 42.79572236 45 58 C45.87914062 57.84144531 46.75828125 57.68289062 47.6640625 57.51953125 C69.05749263 54.49783001 91.664631 55.84223994 110 68 C111.84765625 69.53125 111.84765625 69.53125 113 71 C113.21629325 81.16578272 105.94689694 90.96306698 99.609375 98.33203125 C86.68431108 111.54732864 68.63002154 121.41454192 49.84326172 122.07592773 C47.43627538 122.09802612 45.03194341 122.08745236 42.625 122.0625 C41.79355469 122.05798828 40.96210938 122.05347656 40.10546875 122.04882812 C38.07028103 122.03713164 36.03513077 122.01919935 34 122 C33.87488037 122.72566162 33.74976074 123.45132324 33.62084961 124.19897461 C33.01473706 126.93351225 32.17561285 129.24953114 31.06640625 131.81640625 C30.47194702 133.19469604 30.47194702 133.19469604 29.86547852 134.60083008 C29.43549561 135.57818115 29.0055127 136.55553223 28.5625 137.5625 C28.11511475 138.58174561 27.66772949 139.60099121 27.20678711 140.65112305 C-1.07391761 204.45726562 -46.44892867 253.91857084 -112.17578125 279.48828125 C-136.08155126 288.47029624 -160.68123967 293.2414393 -186 296 C-186.85859619 296.09788818 -187.71719238 296.19577637 -188.60180664 296.29663086 C-197.90035853 297.22342704 -207.21543458 297.18609391 -216.55053711 297.18530273 C-219.40038398 297.18747175 -222.2498315 297.2056355 -225.09960938 297.22460938 C-241.72800174 297.27625425 -258.24693121 296.18373508 -274.625 293.1875 C-276.05162964 292.92984863 -276.05162964 292.92984863 -277.50708008 292.66699219 C-302.24892339 288.05176222 -326.48124604 280.47866485 -346 264 C-347.20076172 263.00033203 -347.20076172 263.00033203 -348.42578125 261.98046875 C-378.96940114 235.61700213 -393.02647904 192.96077125 -398 154 C-398.0928125 153.28046143 -398.185625 152.56092285 -398.28125 151.81958008 C-399.09839279 144.69252579 -399.28716853 137.55346549 -399.35009766 130.38549805 C-399.36676577 128.99795893 -399.39419666 127.61050935 -399.43212891 126.22338867 C-399.78411665 113.20443346 -399.78411665 113.20443346 -396.8515625 108.73046875 C-392.26556073 104.339215 -388.25751279 102.62528443 -381.9267931 102.62361908 C-380.12379237 102.61220941 -380.12379237 102.61220941 -378.28436738 102.60056925 C-376.31645762 102.61091015 -376.31645762 102.61091015 -374.30879211 102.62145996 C-372.89409525 102.61816792 -371.47940095 102.61355338 -370.06471223 102.6077323 C-366.1813342 102.59552214 -362.29817448 102.6018859 -358.41479671 102.61123729 C-354.22429942 102.6180341 -350.03384232 102.60750033 -345.84335327 102.59895325 C-338.58014051 102.58638285 -331.31698729 102.58441545 -324.05376625 102.58930969 C-313.53169173 102.59612161 -303.00970678 102.58359195 -292.48764827 102.56580251 C-275.38882348 102.53714219 -258.29000836 102.51963855 -241.19116211 102.51123047 C-240.16777692 102.51072329 -239.14439173 102.51021611 -238.08999487 102.50969356 C-230.83083004 102.5061685 -223.57166505 102.50303986 -216.3125 102.5 C-208.04288723 102.49653414 -199.77327459 102.49288371 -191.50366211 102.48876953 C-190.48546764 102.48826692 -189.46727316 102.4877643 -188.41822431 102.48724645 C-171.39880741 102.47848124 -154.37942357 102.45799831 -137.36002892 102.42928743 C-126.87544695 102.41216506 -116.39095891 102.40549672 -105.90636482 102.41259348 C-98.70784202 102.41679471 -91.50937812 102.4103529 -84.31086902 102.39579475 C-80.16675402 102.38779071 -76.02278539 102.38453327 -71.87867165 102.39461708 C-42.52538314 102.59715894 -42.52538314 102.59715894 -14.15234375 95.76953125 C-12 95 -12 95 -10 95 C-10.47050781 94.01902344 -10.94101562 93.03804688 -11.42578125 92.02734375 C-21.65970126 70.10456088 -22.60379597 47.73453859 -14.375 24.9375 C-11.11100721 16.35122657 -6.54748803 6.54748803 0 0 Z " fill="#000000" transform="translate(399,143)"/>
<path d="M0 0 C1.49164673 -0.00945648 1.49164673 -0.00945648 3.01342773 -0.019104 C4.09052002 -0.01505554 5.1676123 -0.01100708 6.27734375 -0.00683594 C7.37957275 -0.00874939 8.48180176 -0.01066284 9.61743164 -0.01263428 C11.95101143 -0.01399706 14.28459878 -0.01029416 16.61816406 -0.00195312 C20.20004222 0.00874485 23.78141878 -0.00184552 27.36328125 -0.01464844 C29.6263032 -0.01332686 31.88932483 -0.0107645 34.15234375 -0.00683594 C35.76798218 -0.01290863 35.76798218 -0.01290863 37.41625977 -0.019104 C38.41069092 -0.01279968 39.40512207 -0.00649536 40.4296875 0 C41.3074585 0.00159119 42.18522949 0.00318237 43.08959961 0.00482178 C45.21484375 0.25878906 45.21484375 0.25878906 47.21484375 2.25878906 C47.46881104 4.19421387 47.46881104 4.19421387 47.47363281 6.58496094 C47.47993713 7.47928833 47.48624146 8.37361572 47.49273682 9.29504395 C47.48868835 10.26276733 47.48463989 11.23049072 47.48046875 12.22753906 C47.48333893 13.71441223 47.48333893 13.71441223 47.48626709 15.23132324 C47.4876296 17.32951104 47.48392857 19.42770725 47.47558594 21.52587891 C47.46488746 24.74563452 47.47547911 27.96483214 47.48828125 31.18457031 C47.48695967 33.2197278 47.4843973 35.25488494 47.48046875 37.29003906 C47.48451721 38.25776245 47.48856567 39.22548584 47.49273682 40.22253418 C47.4864325 41.11686157 47.48012817 42.01118896 47.47363281 42.93261719 C47.47204163 43.72156372 47.47045044 44.51051025 47.46881104 45.32336426 C47.21484375 47.25878906 47.21484375 47.25878906 45.21484375 49.25878906 C43.08959961 49.51275635 43.08959961 49.51275635 40.4296875 49.51757812 C39.43525635 49.52388245 38.4408252 49.53018677 37.41625977 49.53668213 C36.33916748 49.53263367 35.2620752 49.52858521 34.15234375 49.52441406 C33.05011475 49.52632751 31.94788574 49.52824097 30.81225586 49.5302124 C28.47867607 49.53157519 26.14508872 49.52787229 23.81152344 49.51953125 C20.22964528 49.50883327 16.64826872 49.51942364 13.06640625 49.53222656 C10.8033843 49.53090498 8.54036267 49.52834263 6.27734375 49.52441406 C5.20025146 49.52846252 4.12315918 49.53251099 3.01342773 49.53668213 C1.52178101 49.52722565 1.52178101 49.52722565 0 49.51757812 C-0.877771 49.51598694 -1.75554199 49.51439575 -2.65991211 49.51275635 C-4.78515625 49.25878906 -4.78515625 49.25878906 -6.78515625 47.25878906 C-7.03912354 45.32336426 -7.03912354 45.32336426 -7.04394531 42.93261719 C-7.05024963 42.03828979 -7.05655396 41.1439624 -7.06304932 40.22253418 C-7.05900085 39.25481079 -7.05495239 38.2870874 -7.05078125 37.29003906 C-7.0526947 36.29879028 -7.05460815 35.3075415 -7.05657959 34.28625488 C-7.0579421 32.18806708 -7.05424107 30.08987088 -7.04589844 27.99169922 C-7.03519996 24.7719436 -7.04579161 21.55274598 -7.05859375 18.33300781 C-7.05727217 16.29785033 -7.0547098 14.26269319 -7.05078125 12.22753906 C-7.05685394 10.77595398 -7.05685394 10.77595398 -7.06304932 9.29504395 C-7.056745 8.40071655 -7.05044067 7.50638916 -7.04394531 6.58496094 C-7.04235413 5.7960144 -7.04076294 5.00706787 -7.03912354 4.19421387 C-6.47124517 -0.13345327 -3.66547694 0.00664462 0 0 Z " fill="#000000" transform="translate(300.78515625,187.7412109375)"/>
<path d="M0 0 C1.49164673 -0.00945648 1.49164673 -0.00945648 3.01342773 -0.019104 C4.09052002 -0.01505554 5.1676123 -0.01100708 6.27734375 -0.00683594 C7.37957275 -0.00874939 8.48180176 -0.01066284 9.61743164 -0.01263428 C11.95101143 -0.01399706 14.28459878 -0.01029416 16.61816406 -0.00195312 C20.20004222 0.00874485 23.78141878 -0.00184552 27.36328125 -0.01464844 C29.6263032 -0.01332686 31.88932483 -0.0107645 34.15234375 -0.00683594 C35.76798218 -0.01290863 35.76798218 -0.01290863 37.41625977 -0.019104 C38.41069092 -0.01279968 39.40512207 -0.00649536 40.4296875 0 C41.3074585 0.00159119 42.18522949 0.00318237 43.08959961 0.00482178 C45.21484375 0.25878906 45.21484375 0.25878906 47.21484375 2.25878906 C47.46881104 4.19421387 47.46881104 4.19421387 47.47363281 6.58496094 C47.47993713 7.47928833 47.48624146 8.37361572 47.49273682 9.29504395 C47.48868835 10.26276733 47.48463989 11.23049072 47.48046875 12.22753906 C47.48333893 13.71441223 47.48333893 13.71441223 47.48626709 15.23132324 C47.4876296 17.32951104 47.48392857 19.42770725 47.47558594 21.52587891 C47.46488746 24.74563452 47.47547911 27.96483214 47.48828125 31.18457031 C47.48695967 33.2197278 47.4843973 35.25488494 47.48046875 37.29003906 C47.48451721 38.25776245 47.48856567 39.22548584 47.49273682 40.22253418 C47.4864325 41.11686157 47.48012817 42.01118896 47.47363281 42.93261719 C47.47204163 43.72156372 47.47045044 44.51051025 47.46881104 45.32336426 C47.21484375 47.25878906 47.21484375 47.25878906 45.21484375 49.25878906 C43.08959961 49.51275635 43.08959961 49.51275635 40.4296875 49.51757812 C39.43525635 49.52388245 38.4408252 49.53018677 37.41625977 49.53668213 C36.33916748 49.53263367 35.2620752 49.52858521 34.15234375 49.52441406 C33.05011475 49.52632751 31.94788574 49.52824097 30.81225586 49.5302124 C28.47867607 49.53157519 26.14508872 49.52787229 23.81152344 49.51953125 C20.22964528 49.50883327 16.64826872 49.51942364 13.06640625 49.53222656 C10.8033843 49.53090498 8.54036267 49.52834263 6.27734375 49.52441406 C5.20025146 49.52846252 4.12315918 49.53251099 3.01342773 49.53668213 C1.52178101 49.52722565 1.52178101 49.52722565 0 49.51757812 C-0.877771 49.51598694 -1.75554199 49.51439575 -2.65991211 49.51275635 C-4.78515625 49.25878906 -4.78515625 49.25878906 -6.78515625 47.25878906 C-7.03912354 45.32336426 -7.03912354 45.32336426 -7.04394531 42.93261719 C-7.05024963 42.03828979 -7.05655396 41.1439624 -7.06304932 40.22253418 C-7.05900085 39.25481079 -7.05495239 38.2870874 -7.05078125 37.29003906 C-7.0526947 36.29879028 -7.05460815 35.3075415 -7.05657959 34.28625488 C-7.0579421 32.18806708 -7.05424107 30.08987088 -7.04589844 27.99169922 C-7.03519996 24.7719436 -7.04579161 21.55274598 -7.05859375 18.33300781 C-7.05727217 16.29785033 -7.0547098 14.26269319 -7.05078125 12.22753906 C-7.05685394 10.77595398 -7.05685394 10.77595398 -7.06304932 9.29504395 C-7.056745 8.40071655 -7.05044067 7.50638916 -7.04394531 6.58496094 C-7.04235413 5.7960144 -7.04076294 5.00706787 -7.03912354 4.19421387 C-6.47124517 -0.13345327 -3.66547694 0.00664462 0 0 Z " fill="#000000" transform="translate(237.78515625,187.7412109375)"/>
<path d="M0 0 C1.49164673 -0.00945648 1.49164673 -0.00945648 3.01342773 -0.019104 C4.09052002 -0.01505554 5.1676123 -0.01100708 6.27734375 -0.00683594 C7.37957275 -0.00874939 8.48180176 -0.01066284 9.61743164 -0.01263428 C11.95101143 -0.01399706 14.28459878 -0.01029416 16.61816406 -0.00195312 C20.20004222 0.00874485 23.78141878 -0.00184552 27.36328125 -0.01464844 C29.6263032 -0.01332686 31.88932483 -0.0107645 34.15234375 -0.00683594 C35.76798218 -0.01290863 35.76798218 -0.01290863 37.41625977 -0.019104 C38.41069092 -0.01279968 39.40512207 -0.00649536 40.4296875 0 C41.3074585 0.00159119 42.18522949 0.00318237 43.08959961 0.00482178 C45.21484375 0.25878906 45.21484375 0.25878906 47.21484375 2.25878906 C47.46881104 4.19421387 47.46881104 4.19421387 47.47363281 6.58496094 C47.47993713 7.47928833 47.48624146 8.37361572 47.49273682 9.29504395 C47.48868835 10.26276733 47.48463989 11.23049072 47.48046875 12.22753906 C47.48333893 13.71441223 47.48333893 13.71441223 47.48626709 15.23132324 C47.4876296 17.32951104 47.48392857 19.42770725 47.47558594 21.52587891 C47.46488746 24.74563452 47.47547911 27.96483214 47.48828125 31.18457031 C47.48695967 33.2197278 47.4843973 35.25488494 47.48046875 37.29003906 C47.48451721 38.25776245 47.48856567 39.22548584 47.49273682 40.22253418 C47.4864325 41.11686157 47.48012817 42.01118896 47.47363281 42.93261719 C47.47204163 43.72156372 47.47045044 44.51051025 47.46881104 45.32336426 C47.21484375 47.25878906 47.21484375 47.25878906 45.21484375 49.25878906 C43.08959961 49.51275635 43.08959961 49.51275635 40.4296875 49.51757812 C39.43525635 49.52388245 38.4408252 49.53018677 37.41625977 49.53668213 C36.33916748 49.53263367 35.2620752 49.52858521 34.15234375 49.52441406 C33.05011475 49.52632751 31.94788574 49.52824097 30.81225586 49.5302124 C28.47867607 49.53157519 26.14508872 49.52787229 23.81152344 49.51953125 C20.22964528 49.50883327 16.64826872 49.51942364 13.06640625 49.53222656 C10.8033843 49.53090498 8.54036267 49.52834263 6.27734375 49.52441406 C5.20025146 49.52846252 4.12315918 49.53251099 3.01342773 49.53668213 C1.52178101 49.52722565 1.52178101 49.52722565 0 49.51757812 C-0.877771 49.51598694 -1.75554199 49.51439575 -2.65991211 49.51275635 C-4.78515625 49.25878906 -4.78515625 49.25878906 -6.78515625 47.25878906 C-7.03912354 45.32336426 -7.03912354 45.32336426 -7.04394531 42.93261719 C-7.05024963 42.03828979 -7.05655396 41.1439624 -7.06304932 40.22253418 C-7.05900085 39.25481079 -7.05495239 38.2870874 -7.05078125 37.29003906 C-7.0526947 36.29879028 -7.05460815 35.3075415 -7.05657959 34.28625488 C-7.0579421 32.18806708 -7.05424107 30.08987088 -7.04589844 27.99169922 C-7.03519996 24.7719436 -7.04579161 21.55274598 -7.05859375 18.33300781 C-7.05727217 16.29785033 -7.0547098 14.26269319 -7.05078125 12.22753906 C-7.05685394 10.77595398 -7.05685394 10.77595398 -7.06304932 9.29504395 C-7.056745 8.40071655 -7.05044067 7.50638916 -7.04394531 6.58496094 C-7.04235413 5.7960144 -7.04076294 5.00706787 -7.03912354 4.19421387 C-6.47124517 -0.13345327 -3.66547694 0.00664462 0 0 Z " fill="#000000" transform="translate(237.78515625,129.7412109375)"/>
<path d="M0 0 C1.49164673 -0.00945648 1.49164673 -0.00945648 3.01342773 -0.019104 C4.09052002 -0.01505554 5.1676123 -0.01100708 6.27734375 -0.00683594 C7.37957275 -0.00874939 8.48180176 -0.01066284 9.61743164 -0.01263428 C11.95101143 -0.01399706 14.28459878 -0.01029416 16.61816406 -0.00195312 C20.20004222 0.00874485 23.78141878 -0.00184552 27.36328125 -0.01464844 C29.6263032 -0.01332686 31.88932483 -0.0107645 34.15234375 -0.00683594 C35.76798218 -0.01290863 35.76798218 -0.01290863 37.41625977 -0.019104 C38.41069092 -0.01279968 39.40512207 -0.00649536 40.4296875 0 C41.3074585 0.00159119 42.18522949 0.00318237 43.08959961 0.00482178 C45.21484375 0.25878906 45.21484375 0.25878906 47.21484375 2.25878906 C47.46881104 4.19421387 47.46881104 4.19421387 47.47363281 6.58496094 C47.47993713 7.47928833 47.48624146 8.37361572 47.49273682 9.29504395 C47.48868835 10.26276733 47.48463989 11.23049072 47.48046875 12.22753906 C47.48333893 13.71441223 47.48333893 13.71441223 47.48626709 15.23132324 C47.4876296 17.32951104 47.48392857 19.42770725 47.47558594 21.52587891 C47.46488746 24.74563452 47.47547911 27.96483214 47.48828125 31.18457031 C47.48695967 33.2197278 47.4843973 35.25488494 47.48046875 37.29003906 C47.48451721 38.25776245 47.48856567 39.22548584 47.49273682 40.22253418 C47.4864325 41.11686157 47.48012817 42.01118896 47.47363281 42.93261719 C47.47204163 43.72156372 47.47045044 44.51051025 47.46881104 45.32336426 C47.21484375 47.25878906 47.21484375 47.25878906 45.21484375 49.25878906 C43.08959961 49.51275635 43.08959961 49.51275635 40.4296875 49.51757812 C39.43525635 49.52388245 38.4408252 49.53018677 37.41625977 49.53668213 C36.33916748 49.53263367 35.2620752 49.52858521 34.15234375 49.52441406 C33.05011475 49.52632751 31.94788574 49.52824097 30.81225586 49.5302124 C28.47867607 49.53157519 26.14508872 49.52787229 23.81152344 49.51953125 C20.22964528 49.50883327 16.64826872 49.51942364 13.06640625 49.53222656 C10.8033843 49.53090498 8.54036267 49.52834263 6.27734375 49.52441406 C5.20025146 49.52846252 4.12315918 49.53251099 3.01342773 49.53668213 C1.52178101 49.52722565 1.52178101 49.52722565 0 49.51757812 C-0.877771 49.51598694 -1.75554199 49.51439575 -2.65991211 49.51275635 C-4.78515625 49.25878906 -4.78515625 49.25878906 -6.78515625 47.25878906 C-7.03912354 45.32336426 -7.03912354 45.32336426 -7.04394531 42.93261719 C-7.05024963 42.03828979 -7.05655396 41.1439624 -7.06304932 40.22253418 C-7.05900085 39.25481079 -7.05495239 38.2870874 -7.05078125 37.29003906 C-7.0526947 36.29879028 -7.05460815 35.3075415 -7.05657959 34.28625488 C-7.0579421 32.18806708 -7.05424107 30.08987088 -7.04589844 27.99169922 C-7.03519996 24.7719436 -7.04579161 21.55274598 -7.05859375 18.33300781 C-7.05727217 16.29785033 -7.0547098 14.26269319 -7.05078125 12.22753906 C-7.05685394 10.77595398 -7.05685394 10.77595398 -7.06304932 9.29504395 C-7.056745 8.40071655 -7.05044067 7.50638916 -7.04394531 6.58496094 C-7.04235413 5.7960144 -7.04076294 5.00706787 -7.03912354 4.19421387 C-6.47124517 -0.13345327 -3.66547694 0.00664462 0 0 Z " fill="#000000" transform="translate(111.78515625,129.7412109375)"/>
<path d="M0 0 C1.49164673 -0.00945648 1.49164673 -0.00945648 3.01342773 -0.019104 C4.09052002 -0.01505554 5.1676123 -0.01100708 6.27734375 -0.00683594 C7.37957275 -0.00874939 8.48180176 -0.01066284 9.61743164 -0.01263428 C11.95101143 -0.01399706 14.28459878 -0.01029416 16.61816406 -0.00195312 C20.20004222 0.00874485 23.78141878 -0.00184552 27.36328125 -0.01464844 C29.6263032 -0.01332686 31.88932483 -0.0107645 34.15234375 -0.00683594 C35.76798218 -0.01290863 35.76798218 -0.01290863 37.41625977 -0.019104 C38.41069092 -0.01279968 39.40512207 -0.00649536 40.4296875 0 C41.3074585 0.00159119 42.18522949 0.00318237 43.08959961 0.00482178 C45.21484375 0.25878906 45.21484375 0.25878906 47.21484375 2.25878906 C47.46881104 4.19421387 47.46881104 4.19421387 47.47363281 6.58496094 C47.47993713 7.47928833 47.48624146 8.37361572 47.49273682 9.29504395 C47.48868835 10.26276733 47.48463989 11.23049072 47.48046875 12.22753906 C47.48333893 13.71441223 47.48333893 13.71441223 47.48626709 15.23132324 C47.4876296 17.32951104 47.48392857 19.42770725 47.47558594 21.52587891 C47.46488746 24.74563452 47.47547911 27.96483214 47.48828125 31.18457031 C47.48695967 33.2197278 47.4843973 35.25488494 47.48046875 37.29003906 C47.48451721 38.25776245 47.48856567 39.22548584 47.49273682 40.22253418 C47.4864325 41.11686157 47.48012817 42.01118896 47.47363281 42.93261719 C47.47204163 43.72156372 47.47045044 44.51051025 47.46881104 45.32336426 C47.21484375 47.25878906 47.21484375 47.25878906 45.21484375 49.25878906 C43.08959961 49.51275635 43.08959961 49.51275635 40.4296875 49.51757812 C39.43525635 49.52388245 38.4408252 49.53018677 37.41625977 49.53668213 C36.33916748 49.53263367 35.2620752 49.52858521 34.15234375 49.52441406 C33.05011475 49.52632751 31.94788574 49.52824097 30.81225586 49.5302124 C28.47867607 49.53157519 26.14508872 49.52787229 23.81152344 49.51953125 C20.22964528 49.50883327 16.64826872 49.51942364 13.06640625 49.53222656 C10.8033843 49.53090498 8.54036267 49.52834263 6.27734375 49.52441406 C5.20025146 49.52846252 4.12315918 49.53251099 3.01342773 49.53668213 C1.52178101 49.52722565 1.52178101 49.52722565 0 49.51757812 C-0.877771 49.51598694 -1.75554199 49.51439575 -2.65991211 49.51275635 C-4.78515625 49.25878906 -4.78515625 49.25878906 -6.78515625 47.25878906 C-7.03912354 45.32336426 -7.03912354 45.32336426 -7.04394531 42.93261719 C-7.05024963 42.03828979 -7.05655396 41.1439624 -7.06304932 40.22253418 C-7.05900085 39.25481079 -7.05495239 38.2870874 -7.05078125 37.29003906 C-7.0526947 36.29879028 -7.05460815 35.3075415 -7.05657959 34.28625488 C-7.0579421 32.18806708 -7.05424107 30.08987088 -7.04589844 27.99169922 C-7.03519996 24.7719436 -7.04579161 21.55274598 -7.05859375 18.33300781 C-7.05727217 16.29785033 -7.0547098 14.26269319 -7.05078125 12.22753906 C-7.05685394 10.77595398 -7.05685394 10.77595398 -7.06304932 9.29504395 C-7.056745 8.40071655 -7.05044067 7.50638916 -7.04394531 6.58496094 C-7.04235413 5.7960144 -7.04076294 5.00706787 -7.03912354 4.19421387 C-6.47124517 -0.13345327 -3.66547694 0.00664462 0 0 Z " fill="#000000" transform="translate(237.78515625,71.7412109375)"/>
<path d="M0 0 C2.16993713 -0.36749268 2.16993713 -0.36749268 4.89282227 -0.35644531 C6.41934166 -0.36094696 6.41934166 -0.36094696 7.97669983 -0.36553955 C9.62985451 -0.34701935 9.62985451 -0.34701935 11.31640625 -0.328125 C12.44320297 -0.32625183 13.56999969 -0.32437866 14.73094177 -0.32244873 C17.1158239 -0.31571764 19.5006948 -0.30178237 21.88549805 -0.28125 C25.55072193 -0.2501001 29.21551627 -0.24028168 32.88085938 -0.234375 C35.19271362 -0.22520538 37.50456345 -0.21482975 39.81640625 -0.203125 C40.9205336 -0.19887512 42.02466095 -0.19462524 43.1622467 -0.19024658 C44.17677414 -0.18063904 45.19130157 -0.17103149 46.23657227 -0.16113281 C47.13432877 -0.15430481 48.03208527 -0.14747681 48.95704651 -0.14044189 C51 0 51 0 52 1 C52.10331927 2.43190861 52.13849886 3.86882803 52.14526367 5.30444336 C52.15164352 6.21886703 52.15802338 7.13329071 52.16459656 8.07542419 C52.16570938 9.07018265 52.1668222 10.0649411 52.16796875 11.08984375 C52.17296135 12.61213341 52.17296135 12.61213341 52.17805481 14.16517639 C52.1831285 16.3164118 52.185463 18.4676551 52.18530273 20.61889648 C52.18748834 23.91989036 52.20563707 27.22054975 52.22460938 30.52148438 C52.22754331 32.60676968 52.2295281 34.69205659 52.23046875 36.77734375 C52.23765427 37.77007797 52.24483978 38.76281219 52.25224304 39.78562927 C52.24916641 40.70320511 52.24608978 41.62078094 52.24291992 42.56616211 C52.24434494 43.37588974 52.24576996 44.18561737 52.24723816 45.0198822 C52 47 52 47 50 49 C47.91944885 49.26069641 47.91944885 49.26069641 45.32250977 49.2746582 C43.8657357 49.28895622 43.8657357 49.28895622 42.37953186 49.30354309 C41.32745041 49.30263168 40.27536896 49.30172028 39.19140625 49.30078125 C38.11374496 49.30506638 37.03608368 49.3093515 35.92576599 49.31376648 C33.64347029 49.31951726 31.36115626 49.32000457 29.07885742 49.31567383 C25.58024919 49.31251602 22.08248783 49.33595702 18.58398438 49.36132812 C16.36979274 49.36360119 14.15559882 49.36430458 11.94140625 49.36328125 C10.89134903 49.372491 9.84129181 49.38170074 8.75941467 49.39118958 C7.7850798 49.38496078 6.81074493 49.37873199 5.80688477 49.37231445 C4.52020653 49.37325859 4.52020653 49.37325859 3.20753479 49.3742218 C1 49 1 49 -0.77716064 47.741745 C-2.29344595 45.58203176 -2.37452284 44.38481669 -2.37231445 41.75976562 C-2.37854324 40.90878296 -2.38477203 40.05780029 -2.39118958 39.18103027 C-2.37737495 37.80751404 -2.37737495 37.80751404 -2.36328125 36.40625 C-2.36377975 35.46317993 -2.36427826 34.52010986 -2.36479187 33.54846191 C-2.3624514 31.55458469 -2.35272445 29.56070451 -2.33618164 27.56689453 C-2.31259093 24.51177603 -2.31562071 21.45753016 -2.32226562 18.40234375 C-2.31668882 16.46614062 -2.30957892 14.52994117 -2.30078125 12.59375 C-2.30169266 11.67807251 -2.30260406 10.76239502 -2.30354309 9.81896973 C-2.29401108 8.96798706 -2.28447906 8.11700439 -2.2746582 7.24023438 C-2.27005081 6.49205444 -2.26544342 5.74387451 -2.26069641 4.97302246 C-2 3 -2 3 0 0 Z " fill="#000000" transform="translate(170,188)"/>
<path d="M0 0 C1.49164673 -0.00945648 1.49164673 -0.00945648 3.01342773 -0.019104 C4.09052002 -0.01505554 5.1676123 -0.01100708 6.27734375 -0.00683594 C7.37957275 -0.00874939 8.48180176 -0.01066284 9.61743164 -0.01263428 C11.95101143 -0.01399706 14.28459878 -0.01029416 16.61816406 -0.00195312 C20.20004222 0.00874485 23.78141878 -0.00184552 27.36328125 -0.01464844 C29.6263032 -0.01332686 31.88932483 -0.0107645 34.15234375 -0.00683594 C35.76798218 -0.01290863 35.76798218 -0.01290863 37.41625977 -0.019104 C38.41069092 -0.01279968 39.40512207 -0.00649536 40.4296875 0 C41.3074585 0.00159119 42.18522949 0.00318237 43.08959961 0.00482178 C45.21484375 0.25878906 45.21484375 0.25878906 47.21484375 2.25878906 C47.46881104 4.19421387 47.46881104 4.19421387 47.47363281 6.58496094 C47.47993713 7.47928833 47.48624146 8.37361572 47.49273682 9.29504395 C47.48868835 10.26276733 47.48463989 11.23049072 47.48046875 12.22753906 C47.48333893 13.71441223 47.48333893 13.71441223 47.48626709 15.23132324 C47.4876296 17.32951104 47.48392857 19.42770725 47.47558594 21.52587891 C47.46488746 24.74563452 47.47547911 27.96483214 47.48828125 31.18457031 C47.48695967 33.2197278 47.4843973 35.25488494 47.48046875 37.29003906 C47.48451721 38.25776245 47.48856567 39.22548584 47.49273682 40.22253418 C47.4864325 41.11686157 47.48012817 42.01118896 47.47363281 42.93261719 C47.47204163 43.72156372 47.47045044 44.51051025 47.46881104 45.32336426 C47.21484375 47.25878906 47.21484375 47.25878906 45.21484375 49.25878906 C43.1342926 49.51275635 43.1342926 49.51275635 40.53735352 49.51757812 C39.56617081 49.52388245 38.5949881 49.53018677 37.59437561 49.53668213 C36.01625343 49.53060944 36.01625343 49.53060944 34.40625 49.52441406 C33.32858871 49.52632751 32.25092743 49.52824097 31.14060974 49.5302124 C28.85830451 49.53157525 26.57599156 49.5278719 24.29370117 49.51953125 C20.79523318 49.50884371 17.29727995 49.51941804 13.79882812 49.53222656 C11.58463428 49.53090478 9.37044076 49.528342 7.15625 49.52441406 C6.10619278 49.52846252 5.05613556 49.53251099 3.97425842 49.53668213 C2.51275612 49.52722565 2.51275612 49.52722565 1.02172852 49.51757812 C-0.26494972 49.51519135 -0.26494972 49.51519135 -1.57762146 49.51275635 C-3.78515625 49.25878906 -3.78515625 49.25878906 -6.78515625 47.25878906 C-7.15937805 45.32336426 -7.15937805 45.32336426 -7.1574707 42.93261719 C-7.16369949 42.03828979 -7.16992828 41.1439624 -7.17634583 40.22253418 C-7.16713608 39.25481079 -7.15792633 38.2870874 -7.1484375 37.29003906 C-7.148936 36.29879028 -7.14943451 35.3075415 -7.14994812 34.28625488 C-7.14760499 32.1880493 -7.13786248 30.08984104 -7.12133789 27.99169922 C-7.09775215 24.77188094 -7.10077431 21.55289045 -7.10742188 18.33300781 C-7.10184519 16.2978466 -7.09473536 14.2626889 -7.0859375 12.22753906 C-7.08684891 11.25981567 -7.08776031 10.29209229 -7.08869934 9.29504395 C-7.07916733 8.40071655 -7.06963531 7.50638916 -7.05981445 6.58496094 C-7.05520706 5.7960144 -7.05059967 5.00706787 -7.04585266 4.19421387 C-6.463277 -0.13086059 -3.67013475 0.00665307 0 0 Z " fill="#000000" transform="translate(111.78515625,187.7412109375)"/>
<path d="M0 0 C1.49164673 -0.00945648 1.49164673 -0.00945648 3.01342773 -0.019104 C4.09052002 -0.01505554 5.1676123 -0.01100708 6.27734375 -0.00683594 C7.37957275 -0.00874939 8.48180176 -0.01066284 9.61743164 -0.01263428 C11.95101143 -0.01399706 14.28459878 -0.01029416 16.61816406 -0.00195312 C20.20004222 0.00874485 23.78141878 -0.00184552 27.36328125 -0.01464844 C29.6263032 -0.01332686 31.88932483 -0.0107645 34.15234375 -0.00683594 C35.76798218 -0.01290863 35.76798218 -0.01290863 37.41625977 -0.019104 C38.41069092 -0.01279968 39.40512207 -0.00649536 40.4296875 0 C41.3074585 0.00159119 42.18522949 0.00318237 43.08959961 0.00482178 C45.21484375 0.25878906 45.21484375 0.25878906 47.21484375 2.25878906 C47.47554016 4.19421387 47.47554016 4.19421387 47.48950195 6.58496094 C47.50379997 7.92645203 47.50379997 7.92645203 47.51838684 9.29504395 C47.51747543 10.26276733 47.51656403 11.23049072 47.515625 12.22753906 C47.51991013 13.21878784 47.52419525 14.21003662 47.52861023 15.23132324 C47.53435959 17.32950068 47.53484935 19.42769806 47.53051758 21.52587891 C47.52735652 24.74578637 47.55081335 27.96477649 47.57617188 31.18457031 C47.57844459 33.2197254 47.57914849 35.25488297 47.578125 37.29003906 C47.58733475 38.25776245 47.59654449 39.22548584 47.60603333 40.22253418 C47.59980453 41.11686157 47.59357574 42.01118896 47.5871582 42.93261719 C47.58778763 43.72156372 47.58841705 44.51051025 47.58906555 45.32336426 C47.46557236 45.96205444 47.34207916 46.60074463 47.21484375 47.25878906 C43.98934422 49.40912208 43.12398347 49.51068492 39.40795898 49.51757812 C37.94645668 49.52703461 37.94645668 49.52703461 36.45542908 49.53668213 C35.40537186 49.53263367 34.35531464 49.52858521 33.2734375 49.52441406 C32.19481949 49.52632751 31.11620148 49.52824097 30.00489807 49.5302124 C27.72437303 49.53157378 25.44384024 49.52788065 23.16333008 49.51953125 C19.6627472 49.50882089 16.16267634 49.51943371 12.66210938 49.53222656 C10.44921761 49.53090516 8.23632617 49.52834318 6.0234375 49.52441406 C4.97135605 49.52846252 3.9192746 49.53251099 2.83531189 49.53668213 C1.86412918 49.53037781 0.89294647 49.52407349 -0.10766602 49.51757812 C-0.96465591 49.51598694 -1.82164581 49.51439575 -2.7046051 49.51275635 C-4.78515625 49.25878906 -4.78515625 49.25878906 -6.78515625 47.25878906 C-7.03912354 45.32336426 -7.03912354 45.32336426 -7.04394531 42.93261719 C-7.05024963 42.03828979 -7.05655396 41.1439624 -7.06304932 40.22253418 C-7.05900085 39.25481079 -7.05495239 38.2870874 -7.05078125 37.29003906 C-7.0526947 36.29879028 -7.05460815 35.3075415 -7.05657959 34.28625488 C-7.0579421 32.18806708 -7.05424107 30.08987088 -7.04589844 27.99169922 C-7.03519996 24.7719436 -7.04579161 21.55274598 -7.05859375 18.33300781 C-7.05727217 16.29785033 -7.0547098 14.26269319 -7.05078125 12.22753906 C-7.05685394 10.77595398 -7.05685394 10.77595398 -7.06304932 9.29504395 C-7.056745 8.40071655 -7.05044067 7.50638916 -7.04394531 6.58496094 C-7.04235413 5.7960144 -7.04076294 5.00706787 -7.03912354 4.19421387 C-6.47124517 -0.13345327 -3.66547694 0.00664462 0 0 Z " fill="#000000" transform="translate(49.78515625,187.7412109375)"/>
<path d="M0 0 C2.16993713 -0.36749268 2.16993713 -0.36749268 4.89282227 -0.35644531 C6.41934166 -0.36094696 6.41934166 -0.36094696 7.97669983 -0.36553955 C9.62985451 -0.34701935 9.62985451 -0.34701935 11.31640625 -0.328125 C12.44320297 -0.32625183 13.56999969 -0.32437866 14.73094177 -0.32244873 C17.1158239 -0.31571764 19.5006948 -0.30178237 21.88549805 -0.28125 C25.55072193 -0.2501001 29.21551627 -0.24028168 32.88085938 -0.234375 C35.19271362 -0.22520538 37.50456345 -0.21482975 39.81640625 -0.203125 C40.9205336 -0.19887512 42.02466095 -0.19462524 43.1622467 -0.19024658 C44.17677414 -0.18063904 45.19130157 -0.17103149 46.23657227 -0.16113281 C47.13432877 -0.15430481 48.03208527 -0.14747681 48.95704651 -0.14044189 C51 0 51 0 52 1 C52.10331927 2.43190861 52.13849886 3.86882803 52.14526367 5.30444336 C52.15164352 6.21886703 52.15802338 7.13329071 52.16459656 8.07542419 C52.16570938 9.07018265 52.1668222 10.0649411 52.16796875 11.08984375 C52.17296135 12.61213341 52.17296135 12.61213341 52.17805481 14.16517639 C52.1831285 16.3164118 52.185463 18.4676551 52.18530273 20.61889648 C52.18748834 23.91989036 52.20563707 27.22054975 52.22460938 30.52148438 C52.22754331 32.60676968 52.2295281 34.69205659 52.23046875 36.77734375 C52.23765427 37.77007797 52.24483978 38.76281219 52.25224304 39.78562927 C52.24916641 40.70320511 52.24608978 41.62078094 52.24291992 42.56616211 C52.24434494 43.37588974 52.24576996 44.18561737 52.24723816 45.0198822 C52 47 52 47 50 49 C47.91944885 49.26069641 47.91944885 49.26069641 45.32250977 49.2746582 C43.8657357 49.28895622 43.8657357 49.28895622 42.37953186 49.30354309 C41.32745041 49.30263168 40.27536896 49.30172028 39.19140625 49.30078125 C38.11374496 49.30506638 37.03608368 49.3093515 35.92576599 49.31376648 C33.64347029 49.31951726 31.36115626 49.32000457 29.07885742 49.31567383 C25.58024919 49.31251602 22.08248783 49.33595702 18.58398438 49.36132812 C16.36979274 49.36360119 14.15559882 49.36430458 11.94140625 49.36328125 C10.89134903 49.372491 9.84129181 49.38170074 8.75941467 49.39118958 C7.7850798 49.38496078 6.81074493 49.37873199 5.80688477 49.37231445 C4.52020653 49.37325859 4.52020653 49.37325859 3.20753479 49.3742218 C1 49 1 49 -0.77716064 47.741745 C-2.29344595 45.58203176 -2.37452284 44.38481669 -2.37231445 41.75976562 C-2.37854324 40.90878296 -2.38477203 40.05780029 -2.39118958 39.18103027 C-2.37737495 37.80751404 -2.37737495 37.80751404 -2.36328125 36.40625 C-2.36377975 35.46317993 -2.36427826 34.52010986 -2.36479187 33.54846191 C-2.3624514 31.55458469 -2.35272445 29.56070451 -2.33618164 27.56689453 C-2.31259093 24.51177603 -2.31562071 21.45753016 -2.32226562 18.40234375 C-2.31668882 16.46614062 -2.30957892 14.52994117 -2.30078125 12.59375 C-2.30169266 11.67807251 -2.30260406 10.76239502 -2.30354309 9.81896973 C-2.29401108 8.96798706 -2.28447906 8.11700439 -2.2746582 7.24023438 C-2.27005081 6.49205444 -2.26544342 5.74387451 -2.26069641 4.97302246 C-2 3 -2 3 0 0 Z " fill="#000000" transform="translate(170,130)"/>
</svg>
