<?xml version="1.0" encoding="UTF-8"?>
<svg version="1.1" xmlns="http://www.w3.org/2000/svg" width="16" height="16">
<path d="M0 0 C2.3125 1.375 2.3125 1.375 4.3125 4.375 C4.3125 6.375 4.3125 8.375 4.3125 10.375 C5.21081016 12.67730766 5.21081016 12.67730766 6.3125 14.375 C5.8175 14.065625 5.3225 13.75625 4.8125 13.4375 C2.40124174 12.41271524 0.76156451 12.16214563 -1.8125 11.9375 C-3.09125 11.751875 -4.37 11.56625 -5.6875 11.375 C-8.00317384 7.90148925 -8.28337577 6.46100528 -7.6875 2.375 C-4.92798454 -0.14798556 -3.68672145 -0.85737708 0 0 Z M-3.6875 1.375 C-5.40461243 3.81996043 -5.40461243 3.81996043 -6.6875 6.375 C-5.3675 7.695 -4.0475 9.015 -2.6875 10.375 C-0.17179364 9.40117818 1.05194098 8.91348865 2.25 6.4375 C2.52324888 4.29658352 2.52324888 4.29658352 1.0625 2.625 C-0.73593652 1.0843809 -0.73593652 1.0843809 -3.6875 1.375 Z " fill="#000000" transform="translate(8.6875,0.625)"/>
</svg>
