<svg role="img" viewBox="0 0 23 23" xmlns="http://www.w3.org/2000/svg" id="Leetcode--Streamline-Simple-Icons" height="23" width="23"><desc>Leetcode Streamline Icon: https://streamlinehq.com</desc><title>LeetCode</title><path d="M12.921208333333334 0a1.31675 1.31675 0 0 0 -0.9209583333333333 0.41975L6.8195 5.966583333333333l-3.693416666666667 3.9540833333333336a5.046583333333333 5.046583333333333 0 0 0 -1.158625 2.0163333333333333 5.127083333333333 5.127083333333333 0 0 0 -0.11979166666666667 0.49162500000000003 5.296708333333334 5.296708333333334 0 0 0 0.059416666666666666 2.2635833333333335 5.587083333333333 5.587083333333333 0 0 0 0.3344583333333333 0.974625 5.6905833333333335 5.6905833333333335 0 0 0 1.2180416666666667 1.74225l4.098791666666667 4.018291666666666 0.037375 0.03641666666666667c2.1543333333333337 2.0747916666666666 5.608166666666667 2.044125 7.7270416666666675 -0.07091666666666667l2.2961666666666667 -2.292333333333333c0.5175000000000001 -0.5175000000000001 0.5175000000000001 -1.3550833333333334 0.0028750000000000004 -1.8735416666666669a1.3205833333333332 1.3205833333333332 0 0 0 -1.8697083333333335 -0.0028750000000000004l-2.2961666666666667 2.292333333333333a2.895125 2.895125 0 0 1 -4.029791666666667 0.03641666666666667l-0.01916666666666667 -0.018208333333333333 -4.097833333333333 -4.018291666666666c-0.6248333333333334 -0.6133333333333334 -0.9315 -1.4077916666666668 -0.9085 -2.1687083333333335a2.568333333333334 2.568333333333334 0 0 1 0.06325 -0.5012083333333334 2.4389583333333333 2.4389583333333333 0 0 1 0.5932083333333333 -1.1155L8.749583333333334 7.775916666666668c1.0139166666666668 -1.0867499999999999 3.0705000000000005 -1.2170833333333333 4.245416666666666 -0.2664166666666667l3.355125 2.713041666666667c0.5682916666666666 0.46 1.400125 0.370875 1.8591666666666666 -0.198375a1.3263333333333334 1.3263333333333334 0 0 0 -0.198375 -1.8620416666666668l-3.354166666666667 -2.713041666666667c-0.7666666666666667 -0.6200416666666667 -1.6924166666666667 -1.0014583333333333 -2.6584166666666667 -1.1519166666666667l1.9310416666666668 -2.0680833333333335A1.3263333333333334 1.3263333333333334 0 0 0 12.921208333333334 0zm-2.7465833333333336 12.281041666666667a1.3225 1.3225 0 0 0 -1.3225 1.3244166666666666 1.3225 1.3225 0 0 0 1.3225 1.3244166666666666H19.92375a1.3225 1.3225 0 0 0 1.3225 -1.3244166666666666 1.3225 1.3225 0 0 0 -1.3225 -1.3244166666666666z" fill="#000000" stroke-width="0.9583"></path></svg>