<?xml version="1.0" encoding="UTF-8"?>
<svg version="1.1" xmlns="http://www.w3.org/2000/svg" width="512" height="512">
<path d="M0 0 C1.01545898 0.19867676 2.03091797 0.39735352 3.07714844 0.60205078 C52.9758035 10.58327711 96.53871388 34.88580573 133 70 C133.7940625 70.7528125 134.588125 71.505625 135.40625 72.28125 C140.75597303 77.46114055 145.38660506 83.16405541 150 89 C151.19109375 90.48306641 151.19109375 90.48306641 152.40625 91.99609375 C176.9776499 123.13801039 193.32468106 159.51240285 201.25 198.3125 C201.40114258 199.05121338 201.55228516 199.78992676 201.70800781 200.55102539 C202.18439803 203.02841582 202.60252786 205.50866222 203 208 C203.26707764 209.67364624 203.26707764 209.67364624 203.53955078 211.38110352 C205.19998488 223.01972268 205.3987437 234.56896253 205.375 246.3125 C205.37418427 247.83293915 205.37418427 247.83293915 205.37335205 249.38409424 C205.33347417 265.58121221 204.46747801 281.12508365 201 297 C200.78037598 298.02625488 200.56075195 299.05250977 200.33447266 300.10986328 C191.83138831 338.85817193 174.61772522 375.56726438 149 406 C148.57138672 406.51739746 148.14277344 407.03479492 147.70117188 407.56787109 C137.18164284 420.2564129 126.03816903 431.86528878 113 442 C111.52660156 443.18142578 111.52660156 443.18142578 110.0234375 444.38671875 C70.29759115 476.0035908 18.37047678 496.93437939 -32.79296875 497.203125 C-33.69337387 497.21018463 -34.59377899 497.21724426 -35.52146912 497.22451782 C-72.98691069 497.45161655 -72.98691069 497.45161655 -90 494 C-91.01545898 493.80132324 -92.03091797 493.60264648 -93.07714844 493.39794922 C-142.9758035 483.41672289 -186.53871388 459.11419427 -223 424 C-223.7940625 423.2471875 -224.588125 422.494375 -225.40625 421.71875 C-230.75597303 416.53885945 -235.38660506 410.83594459 -240 405 C-240.7940625 404.01128906 -241.588125 403.02257812 -242.40625 402.00390625 C-265.32205725 372.96029611 -281.22147176 339.14314413 -289.6875 303.1875 C-289.87787842 302.39625732 -290.06825684 301.60501465 -290.2644043 300.78979492 C-294.22851721 283.10947098 -295.555362 265.38707345 -295.4375 247.3125 C-295.43445862 246.31385925 -295.43141724 245.31521851 -295.42828369 244.28631592 C-295.35621635 228.21658083 -294.43972751 212.74786814 -291 197 C-290.78037598 195.97374512 -290.56075195 194.94749023 -290.33447266 193.89013672 C-279.82149525 145.98280374 -255.85138923 104.15003587 -222 69 C-221.2471875 68.2059375 -220.494375 67.411875 -219.71875 66.59375 C-214.53885945 61.24402697 -208.83594459 56.61339494 -203 52 C-202.01128906 51.2059375 -201.02257812 50.411875 -200.00390625 49.59375 C-167.66655102 24.07913264 -130.33332447 7.86607287 -90 0 C-89.17274414 -0.16661133 -88.34548828 -0.33322266 -87.49316406 -0.50488281 C-59.91781494 -5.80488028 -27.50199116 -5.57960557 0 0 Z M-76 113 C-76.79229004 113.19867676 -77.58458008 113.39735352 -78.40087891 113.60205078 C-113.40082166 122.63800583 -143.45558575 143.65515327 -162 175 C-181.33958947 209.15253267 -186.33513656 248.55278644 -176.1015625 286.54272461 C-166.19717669 320.8919067 -143.91882154 349.29392479 -112.84375 366.9375 C-101.16285773 373.32623291 -88.91617245 377.83558232 -76 381 C-75.34467285 381.16516113 -74.6893457 381.33032227 -74.01416016 381.50048828 C-38.97423347 389.92715058 -0.70672523 383.1860221 30.11328125 365.15722656 C59.16611739 347.33755222 78.86551823 318.70993567 88.0625 286.25 C89.31893611 280.55415628 90.11308462 274.76495 91 269 C66.91 269 42.82 269 18 269 C16.02 273.95 14.04 278.9 12 284 C3.89766554 299.30440953 -7.0381794 308.78244672 -23.375 314.4375 C-40.31836404 319.03788006 -58.46871563 317.45239965 -74 309 C-89.67420729 299.17141996 -99.21593988 285.30276738 -103.875 267.5625 C-108.67213959 245.43091121 -105.86478647 223.18172291 -93.875 203.75 C-84.59208879 190.13506355 -71.68099256 181.7353298 -55.625 178.1875 C-38.57799724 175.19438347 -21.76385403 177.55702214 -7 187 C5.3605223 196.38751038 11.33875824 206.72591052 18 221 C41.76 221 65.52 221 90 221 C89.33172486 214.9855237 88.6436155 209.75483446 86.9375 204.0625 C86.61313965 202.98005005 86.61313965 202.98005005 86.28222656 201.87573242 C75.83948154 168.4481455 53.48546361 141.74835044 23.125 124.58984375 C-6.55812079 109.48855605 -43.53305118 104.69102919 -76 113 Z " fill="#000000" transform="translate(301,9)"/>
</svg>
