<?xml version="1.0" encoding="UTF-8"?>
<svg version="1.1" xmlns="http://www.w3.org/2000/svg" width="512" height="512">
<path d="M0 0 C4.02613207 1.98435352 6.38137292 4.3594018 9.125 7.875 C9.90488281 8.85855469 10.68476563 9.84210937 11.48828125 10.85546875 C11.89771973 11.37286621 12.3071582 11.89026367 12.72900391 12.42333984 C14.42204017 14.52353735 16.18244558 16.56110689 17.94580078 18.60229492 C24.10440061 25.74552262 29.7581046 33.20907046 35.359375 40.79296875 C37.06856271 43.09223317 38.79724274 45.3756535 40.53125 47.65625 C58.84518213 71.77934877 75.71500091 96.84952808 91 123 C91.64388672 124.09272217 91.64388672 124.09272217 92.30078125 125.20751953 C120.26653394 172.7788404 143.81749942 224.00548826 152 279 C152.11714355 279.77263184 152.23428711 280.54526367 152.35498047 281.34130859 C158.77346475 325.56495138 151.13121608 370.63936642 124.6875 407.125 C95.79603427 444.50804435 51.45703148 468.77629494 6 480 C5.99761165 478.76255948 5.99522329 477.52511896 5.99276257 476.25018024 C5.93541654 446.88319698 5.86269588 417.51629358 5.77101372 388.14939951 C5.7597454 384.53571655 5.74860698 380.92203321 5.73754883 377.30834961 C5.7342433 376.2292097 5.7342433 376.2292097 5.730871 375.12826898 C5.69548785 363.47574412 5.67062947 351.82321933 5.64965298 340.17066065 C5.62789902 328.21619228 5.59485248 316.26179369 5.55129844 304.30738467 C5.52715614 297.59187019 5.50825376 290.87642521 5.50238609 284.16086769 C5.4963549 277.84325015 5.47642619 271.52583064 5.44572449 265.20828629 C5.4369127 262.88670538 5.43322814 260.56509862 5.43499184 258.24350166 C5.43663722 255.07895852 5.42000771 251.91502439 5.39872742 248.75056458 C5.40357499 247.82741024 5.40842257 246.90425591 5.41341704 245.95312721 C5.3599124 241.14696089 5.13385955 237.89971771 2 234 C-0.54229606 232.07136161 -1.78345018 231.99097709 -5 232.125 C-8.41867312 233.12211299 -9.76834454 234.27242111 -12 237 C-13.13240386 239.26480773 -13.12952827 240.49592115 -13.1386652 243.00988197 C-13.14413964 243.8533624 -13.14961409 244.69684283 -13.15525442 245.56588328 C-13.15623253 246.49777614 -13.15721064 247.42966899 -13.15821838 248.38980103 C-13.16315636 249.37564599 -13.16809434 250.36149096 -13.17318195 251.37721002 C-13.18861737 254.70150413 -13.19693389 258.02577883 -13.20532227 261.35009766 C-13.21489604 263.72474846 -13.22490582 266.09939754 -13.23532104 268.4740448 C-13.25961145 274.2663734 -13.2793341 280.05870475 -13.29707379 285.85105683 C-13.31795451 292.58930471 -13.34442024 299.32752709 -13.37124526 306.0657535 C-13.41893693 318.08288551 -13.46219684 330.10002923 -13.50268555 342.1171875 C-13.54203247 353.79265251 -13.58345676 365.4681071 -13.62768555 377.14355469 C-13.63177196 378.22256542 -13.63177196 378.22256542 -13.63594092 379.32337435 C-13.64962026 382.93199438 -13.66334056 386.54061426 -13.67708123 390.14923406 C-13.79107074 420.09946769 -13.89780104 450.04972367 -14 480 C-17.20581341 479.0506387 -20.41026494 478.09675694 -23.61450195 477.14208984 C-24.51672737 476.87496689 -25.41895279 476.60784393 -26.34851837 476.33262634 C-32.77449464 474.41476104 -39.01663151 472.25938301 -45.1875 469.625 C-46.09983398 469.2419873 -47.01216797 468.85897461 -47.95214844 468.46435547 C-50.64191307 467.32536566 -53.32235766 466.16716435 -56 465 C-56.76973145 464.66742188 -57.53946289 464.33484375 -58.33251953 463.9921875 C-81.37583452 453.93915183 -102.15356102 439.68898821 -120 422 C-120.85980469 421.15308594 -121.71960938 420.30617188 -122.60546875 419.43359375 C-142.98291937 398.21383197 -154.74679992 370.61024095 -160 342 C-160.226875 340.77667969 -160.45375 339.55335938 -160.6875 338.29296875 C-171.41108222 268.36627637 -140.24791754 194.49621847 -106 135 C-105.23139648 133.66050293 -105.23139648 133.66050293 -104.44726562 132.29394531 C-93.52974605 113.35278742 -81.91768872 94.82203277 -69.35205078 76.92871094 C-67.96501393 74.9500921 -66.58948906 72.96380592 -65.21484375 70.9765625 C-53.66041935 54.35075692 -41.29136393 38.33668664 -28.41357422 22.71777344 C-27.08300927 21.10087275 -25.76040916 19.47790087 -24.44140625 17.8515625 C-22.30674588 15.22373439 -20.15948814 12.60744458 -18 10 C-17.35160156 9.21496094 -16.70320312 8.42992187 -16.03515625 7.62109375 C-15.42542969 6.90050781 -14.81570312 6.17992187 -14.1875 5.4375 C-13.40439453 4.50744141 -13.40439453 4.50744141 -12.60546875 3.55859375 C-8.77864518 -0.15649774 -5.22449611 -0.45828913 0 0 Z " fill="#000000" transform="translate(260,15)"/>
</svg>
