<?xml version="1.0" encoding="UTF-8"?>
<svg version="1.1" xmlns="http://www.w3.org/2000/svg" width="512" height="512">
<path d="M0 0 C2.50324395 1.53373655 4.88248658 3.1599127 7.26269531 4.87695312 C19.68820884 13.74575631 31.17493646 15.92967364 46.15234375 18.06494141 C91.31978445 25.16159489 135.01227455 47.14634075 169.62988281 76.61132812 C170.64566406 77.44277344 171.66144531 78.27421875 172.70800781 79.13085938 C187.2988371 91.18199537 201.0370072 104.64211603 212.62988281 119.61132812 C214.23066399 121.48921932 215.83504567 123.3640453 217.44238281 125.23632812 C232.11913807 142.84389054 244.34500217 162.70406136 255.62988281 182.61132812 C256.10087402 183.43826172 256.57186523 184.26519531 257.05712891 185.1171875 C271.22848383 210.1642334 283.19665745 236.41984773 294.43261719 262.89501953 C295.38005627 265.12479022 296.33814002 267.35008014 297.30883789 269.56982422 C298.16340228 271.53732803 298.98598399 273.51916867 299.76928711 275.51611328 C301.74063911 280.14737362 303.25969351 282.91557194 307.93066406 285.05664062 C309.58975883 285.64968512 311.26143041 286.20841123 312.94238281 286.73632812 C314.74909281 287.38042245 316.55376881 288.03024852 318.35644531 288.68554688 C319.25008789 289.00313965 320.14373047 289.32073242 321.06445312 289.64794922 C326.82476624 291.81108165 332.22966007 294.73279588 337.66894531 297.59033203 C339.65534779 298.62458691 341.65595029 299.62575778 343.66113281 300.62304688 C367.24715795 312.51644924 388.82517867 328.74264907 408.29785156 346.49804688 C410.38023018 348.38509349 412.49491345 350.22191045 414.62988281 352.04882812 C419.53385838 356.33607654 424.15308319 360.88112475 428.62988281 365.61132812 C429.20609375 366.21976562 429.78230469 366.82820313 430.37597656 367.45507812 C433.76433442 371.52494705 434.21278357 375.10091562 434.29394531 380.18164062 C433.2715314 383.92247271 431.70880854 385.24086167 428.62988281 387.61132812 C425.1003883 389.14685156 421.46136129 390.15251488 417.75488281 391.17382812 C416.06818481 391.65722656 416.06818481 391.65722656 414.34741211 392.15039062 C394.5577347 397.72125612 374.56994665 402.61288007 354.62988281 407.61132812 C355.58100431 408.89012725 356.53360173 410.16782872 357.48681641 411.44506836 C358.0171347 412.15670639 358.547453 412.86834442 359.09384155 413.60154724 C368.49917491 425.90763542 381.77891987 434.45905145 394.16796875 443.45410156 C431.64812042 470.68427855 431.64812042 470.68427855 434.31347656 481.34570312 C434.52241367 485.62574804 434.00856385 487.99281577 431.75488281 491.67382812 C428.79347337 494.37393673 427.17055305 494.76630595 423.25488281 494.79882812 C422.48402344 494.81300781 421.71316406 494.8271875 420.91894531 494.84179688 C417.0881401 494.45610147 415.24804913 493.34459236 412.76269531 490.39648438 C412.10011719 489.49800781 411.43753906 488.59953125 410.75488281 487.67382812 C405.23140787 480.76948445 398.72344611 475.82074204 391.62988281 470.61132812 C390.07382813 469.46037446 388.51784156 468.30932872 386.96191406 467.15820312 C383.70615937 464.75516942 380.4463928 462.3576797 377.18457031 459.96289062 C366.81845076 452.34213607 356.96337809 444.47411398 347.62988281 435.61132812 C346.90027344 434.95777344 346.17066406 434.30421875 345.41894531 433.63085938 C335.96327108 424.86660796 327.06214396 411.45454424 326.06738281 398.29882812 C326.61249296 394.72532824 327.25055688 392.46351227 329.79907227 389.83520508 C332.06363126 388.321372 334.01535871 387.82455373 336.67285156 387.21679688 C337.74293457 386.96615479 338.81301758 386.7155127 339.91552734 386.45727539 C341.14126465 386.17811279 342.36700195 385.8989502 343.62988281 385.61132812 C345.04150926 385.27931709 346.45278945 384.9458313 347.86376953 384.61108398 C350.98727462 383.87046603 354.11158861 383.13346219 357.23681641 382.40014648 C371.7523711 378.99259633 386.25340341 375.57382037 400.62988281 371.61132812 C373.35737843 344.14261868 339.39770633 321.35501468 303.17285156 307.49023438 C301.8155896 306.96864746 301.8155896 306.96864746 300.4309082 306.43652344 C298.69859023 305.7809578 296.95970219 305.14239423 295.21362305 304.52441406 C294.42544189 304.22954102 293.63726074 303.93466797 292.82519531 303.63085938 C291.78903076 303.26118042 291.78903076 303.26118042 290.73193359 302.8840332 C284.7981905 299.29139641 282.10087578 293.01868359 279.34082031 286.94335938 C278.9552597 286.11206009 278.5696991 285.2807608 278.17245483 284.42427063 C274.79763239 277.0992946 271.58796307 269.70324001 268.40478516 262.29345703 C235.72712317 186.24263281 192.44071617 110.0295501 101.62988281 60.61132812 C100.95151367 60.28277832 100.27314453 59.95422852 99.57421875 59.61572266 C74.97235628 47.7658834 48.00522647 40.51141576 20.87988281 37.54882812 C14.73456749 36.81167381 10.6980037 35.08612673 5.62988281 31.61132812 C3.48710792 30.21049596 1.34189638 28.81422986 -0.80761719 27.42382812 C-1.39567139 27.04170166 -1.98372559 26.6595752 -2.58959961 26.26586914 C-26.73762156 9.87523105 -26.73762156 9.87523105 -54.37011719 5.61132812 C-55.92901733 7.17022827 -55.76599801 8.6256886 -55.93261719 10.79882812 C-55.70133056 24.42546523 -42.0917686 38.13897828 -34.37011719 48.61132812 C-24.03325835 62.64430415 -15.89445193 74.74478666 -12.98388672 92.17333984 C-8.13868916 120.10885453 4.7439136 153.09669082 23.62988281 174.61132812 C27.16236201 178.91395144 29.09692917 181.38287213 29.01806641 187.12304688 C28.17910724 192.50082792 25.34292602 197.28327719 22.94238281 202.11132812 C7.55532779 234.3674203 2.47242043 272.62936929 13.79785156 307.17382812 C15.99393075 312.85947002 18.82897541 317.83533 22.39550781 322.77148438 C23.62988281 324.61132812 23.62988281 324.61132812 24.62988281 327.61132812 C26.4292086 328.67849516 26.4292086 328.67849516 28.62988281 329.61132812 C29.80550781 330.38476562 29.80550781 330.38476562 31.00488281 331.17382812 C33.91450895 332.76719482 36.35468455 333.23049112 39.62988281 333.61132812 C41.87868027 326.65629418 43.50099559 319.74614076 44.75488281 312.54882812 C44.92375 311.62005859 45.09261719 310.69128906 45.26660156 309.734375 C47.11927682 299.34042914 47.8541072 289.15384632 48.14746094 278.60742188 C48.34311648 273.2841146 48.73068182 268.61233836 50.62988281 263.61132812 C54.40570064 260.10521157 57.53222822 259.15853673 62.50488281 258.98242188 C65.94822617 260.0014996 68.3332654 261.93458367 70.62988281 264.61132812 C72.1681365 267.51884114 73.16182754 270.55591177 74.19238281 273.67382812 C89.3665266 316.07349734 114.01431795 360.79819488 150.88769531 388.27929688 C154.9701989 391.40067294 156.46110258 393.42986646 157.19238281 398.54882812 C156.96976283 403.25056224 154.92757628 405.39215117 151.62988281 408.61132812 C148.33156196 410.26048855 145.18186111 410.22479588 141.62988281 409.61132812 C134.14269123 406.22195012 128.13199131 399.80563138 122.26855469 394.18261719 C121.16269542 393.12223127 120.05188057 392.06699268 118.93652344 391.01660156 C109.38243805 381.99689723 101.25971833 372.30018831 93.62988281 361.61132812 C92.96545166 360.68199463 92.96545166 360.68199463 92.28759766 359.73388672 C83.35856111 347.10014043 75.37383596 333.53359072 68.62988281 319.61132812 C68.23800781 320.82820313 67.84613281 322.04507812 67.44238281 323.29882812 C66.84399481 325.07162249 66.23908013 326.84221912 65.62988281 328.61132812 C65.26636719 329.6709375 64.90285156 330.73054688 64.52832031 331.82226562 C61.08851306 341.3427644 56.97827244 348.69788547 48.62988281 354.61132812 C41.21540559 358.0714175 33.6552163 357.10152833 26.10253906 354.58007812 C10.16066364 348.33428807 1.04314519 336.07108692 -6.18261719 321.11132812 C-13.05559053 304.94799082 -14.72885975 288.58480896 -14.68579102 271.2121582 C-14.68265101 268.57720719 -14.70610349 265.94340535 -14.73144531 263.30859375 C-14.81998725 239.57285215 -10.27120349 218.13700833 -0.22900391 196.65258789 C0.15497559 195.80881592 0.53895508 194.96504395 0.93457031 194.09570312 C1.28503418 193.35030273 1.63549805 192.60490234 1.99658203 191.83691406 C2.7846906 189.06729273 2.4318028 187.35259686 1.62988281 184.61132812 C0.3260291 182.43451234 0.3260291 182.43451234 -1.37011719 180.29882812 C-18.43969463 156.5332579 -30.61191569 126.07805468 -35.49511719 97.29882812 C-36.87167487 89.33825844 -38.68097349 83.31891901 -43.37011719 76.61132812 C-43.84771484 75.91249512 -44.3253125 75.21366211 -44.81738281 74.49365234 C-48.92757558 68.47972658 -53.1361116 62.53848141 -57.37011719 56.61132812 C-78.9940246 26.32064713 -78.9940246 26.32064713 -78.80761719 12.79882812 C-78.79859375 12.0127417 -78.78957031 11.22665527 -78.78027344 10.41674805 C-78.52704548 1.86063246 -77.03188507 -5.2675214 -70.68261719 -11.38867188 C-50.06592749 -29.04750673 -18.85517119 -10.90242251 0 0 Z " fill="#1B1B1B" transform="translate(78.3701171875,17.388671875)"/>
<path d="M0 0 C7.24044998 4.35413772 11.80426754 10.50918596 15.04296875 18.25390625 C16.96629349 30.43496295 16.96629349 30.43496295 13.85546875 35.87890625 C10.71878259 38.57994155 8.85664846 39.6532089 4.73046875 40.19140625 C0.76059361 39.71502123 -1.28989661 38.28600199 -4.39453125 35.81640625 C-6.27953989 32.98889328 -6.81770782 31.53988571 -7.45703125 28.31640625 C-7.9815315 25.71557857 -8.552496 23.342512 -9.39453125 20.81640625 C-12.02293205 19.92898793 -12.02293205 19.92898793 -15.14453125 19.37890625 C-19.81294379 18.32421138 -23.0301139 17.41285238 -26.39453125 13.81640625 C-28.25308407 10.09930062 -27.97361564 5.86363344 -27.39453125 1.81640625 C-20.3259419 -7.54469857 -9.24724321 -4.57082332 0 0 Z " fill="#272727" transform="translate(123.39453125,78.18359375)"/>
</svg>
