<?xml version="1.0" encoding="UTF-8"?>
<svg version="1.1" xmlns="http://www.w3.org/2000/svg" width="500" height="500">
<path d="M0 0 C8.6381014 2.70314902 16.62410099 4.81761634 25.73046875 4.89453125 C26.86814697 4.9107251 26.86814697 4.9107251 28.02880859 4.92724609 C34.90445291 4.75094752 40.24134449 2.44615551 45.10546875 -2.41796875 C47.41796875 -4.73046875 47.41796875 -4.73046875 49.91796875 -5.85546875 C52.41796875 -5.73046875 52.41796875 -5.73046875 54.9296875 -3.7109375 C57.88987307 -0.16522071 58.75263866 2.65851419 59.73046875 7.08203125 C59.89869141 7.77490234 60.06691406 8.46777344 60.24023438 9.18164062 C60.64869832 10.87384839 61.03558617 12.57123991 61.41796875 14.26953125 C62.36671875 13.60953125 63.31546875 12.94953125 64.29296875 12.26953125 C68.94875289 9.66003933 73.19810652 9.230355 78.41796875 10.26953125 C86.20313287 13.74935991 92.18554016 20.18957556 96.23046875 27.58203125 C97.78520472 32.40989557 98.64845338 37.26315481 99.41796875 42.26953125 C99.83046875 41.48578125 100.24296875 40.70203125 100.66796875 39.89453125 C102.49528129 37.15356245 103.29847926 36.18702816 106.41796875 35.26953125 C110.8411337 35.49636022 113.32397054 37.17553304 116.41796875 40.26953125 C122.42969776 49.43223547 123.61341094 60.12897052 121.8359375 70.74609375 C118.74384093 84.38520467 111.91395234 95.94123657 100.41796875 104.26953125 C98.76400757 105.29040842 97.10025642 106.29603961 95.41796875 107.26953125 C95.53390381 107.90866455 95.64983887 108.54779785 95.76928711 109.20629883 C96.30290838 112.16401674 96.82921533 115.12299388 97.35546875 118.08203125 C97.53787109 119.08685547 97.72027344 120.09167969 97.90820312 121.12695312 C100.93826973 138.26060247 101.33616239 154.70851196 98.48535156 171.87451172 C96.87271847 181.75907154 97.58187195 190.19462547 99.41796875 200.01953125 C100.90951158 208.53241202 102.11970247 216.60714613 101.41796875 225.26953125 C101.37027344 226.31238281 101.32257813 227.35523438 101.2734375 228.4296875 C99.2473419 252.39164482 87.66301298 278.72174971 75.41796875 299.26953125 C74.67558126 300.54024776 73.93341096 301.81109118 73.19140625 303.08203125 C72.39320798 304.43695332 71.59373221 305.79112363 70.79296875 307.14453125 C70.42042969 307.77601074 70.04789063 308.40749023 69.6640625 309.05810547 C67.48884987 312.68184715 65.25889227 316.11694523 62.41796875 319.26953125 C61.75796875 319.26953125 61.09796875 319.26953125 60.41796875 319.26953125 C60.41796875 319.92953125 60.41796875 320.58953125 60.41796875 321.26953125 C52.35596969 328.212294 41.87420392 334.04671949 31.08984375 334.5859375 C30.290625 334.62783203 29.49140625 334.66972656 28.66796875 334.71289062 C27.84296875 334.75220703 27.01796875 334.79152344 26.16796875 334.83203125 C25.3275 334.87521484 24.48703125 334.91839844 23.62109375 334.96289062 C21.55356204 335.06861668 19.48578594 335.1695442 17.41796875 335.26953125 C17.43891602 336.31294678 17.45986328 337.3563623 17.48144531 338.43139648 C17.55439055 342.33945746 17.59996439 346.24745949 17.63769531 350.15600586 C17.65768761 351.84067946 17.68489098 353.52528476 17.71972656 355.2097168 C17.94583069 366.4317966 18.03628746 375.18755765 10.29296875 384.01953125 C-1.64529073 395.03749663 -18.17345606 395.81555552 -33.56738281 395.36279297 C-45.24212419 394.82234808 -56.35502899 392.36997632 -67.58203125 389.26953125 C-68.98775391 388.89828125 -68.98775391 388.89828125 -70.421875 388.51953125 C-76.79478736 386.74759985 -82.63343263 384.13830351 -88.58203125 381.26953125 C-90.22365234 380.51349609 -90.22365234 380.51349609 -91.8984375 379.7421875 C-100.89187372 375.47156136 -108.69151218 370.29549359 -116.58203125 364.26953125 C-118.11730469 363.10744141 -118.11730469 363.10744141 -119.68359375 361.921875 C-124.76067546 357.98177356 -124.76067546 357.98177356 -126.58203125 356.26953125 C-126.58203125 355.60953125 -126.58203125 354.94953125 -126.58203125 354.26953125 C-127.24203125 354.26953125 -127.90203125 354.26953125 -128.58203125 354.26953125 C-128.58203125 353.60953125 -128.58203125 352.94953125 -128.58203125 352.26953125 C-129.24203125 352.26953125 -129.90203125 352.26953125 -130.58203125 352.26953125 C-130.58203125 351.60953125 -130.58203125 350.94953125 -130.58203125 350.26953125 C-131.24203125 350.26953125 -131.90203125 350.26953125 -132.58203125 350.26953125 C-134.27433841 348.3046578 -135.84466328 346.34254704 -137.39453125 344.26953125 C-137.84304443 343.67374268 -138.29155762 343.0779541 -138.75366211 342.46411133 C-140.04071368 340.74032727 -141.31411193 339.00741901 -142.58203125 337.26953125 C-143.154375 336.48964844 -143.72671875 335.70976562 -144.31640625 334.90625 C-147.4050803 330.37316662 -148.76080677 326.81157252 -148.58203125 321.26953125 C-146.9528865 318.16247037 -144.87021203 315.79922721 -141.55859375 314.4375 C-137.01583814 311.75314441 -136.07848348 305.07503981 -134.58203125 300.26953125 C-134.35306152 299.53798828 -134.1240918 298.80644531 -133.88818359 298.05273438 C-128.76685235 281.02207746 -128.55979067 263.93259384 -128.58203125 246.26953125 C-129.28714844 246.16769531 -129.99226563 246.06585938 -130.71875 245.9609375 C-133.9926277 245.17038313 -136.46787592 243.86429391 -139.39453125 242.20703125 C-140.37035156 241.65917969 -141.34617188 241.11132812 -142.3515625 240.546875 C-143.08761719 240.12535156 -143.82367188 239.70382812 -144.58203125 239.26953125 C-144.58203125 238.60953125 -144.58203125 237.94953125 -144.58203125 237.26953125 C-145.44828125 236.89828125 -145.44828125 236.89828125 -146.33203125 236.51953125 C-148.91143104 235.08653137 -150.64324717 233.48528449 -152.58203125 231.26953125 C-152.58203125 230.60953125 -152.58203125 229.94953125 -152.58203125 229.26953125 C-153.24203125 229.26953125 -153.90203125 229.26953125 -154.58203125 229.26953125 C-162.62679267 215.66413902 -167.94683838 203.90105136 -167.89453125 187.76953125 C-167.91064453 186.77566406 -167.92675781 185.78179687 -167.94335938 184.7578125 C-167.94640432 180.14777068 -167.81625964 176.28101509 -166.02734375 171.99609375 C-164.39719514 167.79295382 -164.46281671 165.55899044 -165.14453125 161.14453125 C-165.24677002 160.46841797 -165.34900879 159.79230469 -165.4543457 159.09570312 C-165.68516615 157.61126306 -165.92709063 156.12851719 -166.17871094 154.64746094 C-166.60012522 152.16285129 -166.98528853 149.67396174 -167.37109375 147.18359375 C-169.17611562 136.06413115 -171.77074409 125.38464534 -175.20776367 114.65234375 C-178.46482369 104.2412398 -180.35040458 93.84127827 -175.3203125 83.734375 C-173.01831647 79.72853939 -170.56665256 76.12445772 -167.45703125 72.70703125 C-164.59895552 69.5512393 -163.12258941 66.29578299 -161.48828125 62.39453125 C-157.6039564 53.2864592 -149.34220507 47.20396638 -140.57421875 43.03125 C-138.58203125 42.26953125 -138.58203125 42.26953125 -136.40234375 41.7890625 C-129.46617276 40.19302315 -127.10431 36.39537552 -123.12109375 30.71484375 C-109.93740737 12.32071239 -87.04016678 -3.74596083 -64.58203125 -7.73046875 C-42.57724149 -11.13252506 -20.94656472 -6.58896573 0 0 Z M-48.58203125 88.26953125 C-48.99775391 89.51669922 -48.99775391 89.51669922 -49.421875 90.7890625 C-50.80859375 94.94921875 -52.1953125 99.109375 -53.58203125 103.26953125 C-54.24203125 103.26953125 -54.90203125 103.26953125 -55.58203125 103.26953125 C-56.15953125 104.03265625 -56.73703125 104.79578125 -57.33203125 105.58203125 C-59.84402972 108.58247387 -62.07538294 109.63596968 -65.58203125 111.26953125 C-65.54126465 111.82302246 -65.50049805 112.37651367 -65.45849609 112.94677734 C-63.60063908 139.28011938 -63.60063908 139.28011938 -72.58203125 151.26953125 C-75.18281663 154.00788966 -77.94033261 155.94868193 -81.33203125 157.64453125 C-84.59245017 159.99927825 -84.78470181 162.41577231 -85.58203125 166.26953125 C-85.76378906 166.96304688 -85.94554687 167.6565625 -86.1328125 168.37109375 C-86.93241038 173.53023836 -86.57960547 178.7573367 -86.45507812 183.96484375 C-86.34820053 192.38931318 -86.34820053 192.38931318 -88.58203125 196.26953125 C-92.11888877 198.55808611 -95.39501692 198.52787598 -99.515625 197.88671875 C-103.19830063 196.78678917 -105.64735745 194.72507464 -108.58203125 192.26953125 C-108.91203125 191.60953125 -109.24203125 190.94953125 -109.58203125 190.26953125 C-110.24203125 190.26953125 -110.90203125 190.26953125 -111.58203125 190.26953125 C-111.78828125 189.30015625 -111.99453125 188.33078125 -112.20703125 187.33203125 C-114.90519267 178.05710138 -121.82567548 170.75364132 -129.95703125 165.83203125 C-135.41881337 164.66164937 -140.58820577 164.59238298 -145.89453125 166.39453125 C-151.65310335 170.41213969 -154.37179878 174.72541292 -156.14453125 181.43359375 C-158.00514008 193.49432596 -154.32722039 205.76970282 -148.58203125 216.26953125 C-147.92203125 216.26953125 -147.26203125 216.26953125 -146.58203125 216.26953125 C-146.33710938 217.00042969 -146.0921875 217.73132813 -145.83984375 218.484375 C-142.94910951 224.88528653 -136.39983571 230.83877534 -129.9609375 233.6875 C-123.32744646 235.31047236 -115.63961412 235.61714284 -109.58203125 232.26953125 C-106.33203125 232.14453125 -106.33203125 232.14453125 -103.58203125 232.26953125 C-101.4476102 236.75181546 -100.04086367 241.15362883 -98.76953125 245.95703125 C-96.86122809 252.88484 -94.03419761 258.98658847 -90.58203125 265.26953125 C-89.92203125 265.26953125 -89.26203125 265.26953125 -88.58203125 265.26953125 C-88.22431641 266.34847656 -88.22431641 266.34847656 -87.859375 267.44921875 C-86.38740582 270.69925468 -84.57171824 272.78799547 -82.14453125 275.39453125 C-81.36207031 276.24273437 -80.57960938 277.0909375 -79.7734375 277.96484375 C-79.05027344 278.72539062 -78.32710938 279.4859375 -77.58203125 280.26953125 C-77.03417969 280.86507812 -76.48632812 281.460625 -75.921875 282.07421875 C-74.63255149 283.49143561 -74.63255149 283.49143561 -72.58203125 283.26953125 C-72.58203125 283.92953125 -72.58203125 284.58953125 -72.58203125 285.26953125 C-69.94518378 287.6677343 -69.94518378 287.6677343 -66.58203125 288.26953125 C-66.58203125 288.92953125 -66.58203125 289.58953125 -66.58203125 290.26953125 C-64.91140625 291.25953125 -64.91140625 291.25953125 -63.20703125 292.26953125 C-62.26730469 292.82640625 -62.26730469 292.82640625 -61.30859375 293.39453125 C-59.60730458 294.42021473 -59.60730458 294.42021473 -57.58203125 294.26953125 C-57.58203125 294.92953125 -57.58203125 295.58953125 -57.58203125 296.26953125 C-56.75703125 296.68203125 -55.93203125 297.09453125 -55.08203125 297.51953125 C-53.92703125 298.09703125 -52.77203125 298.67453125 -51.58203125 299.26953125 C-50.95192139 299.58277344 -50.32181152 299.89601563 -49.67260742 300.21875 C-46.35114681 301.87233167 -43.04283585 303.5445769 -39.7578125 305.26953125 C-16.63753934 317.31538786 11.55373837 327.96275621 37.79296875 320.58203125 C42.65513796 318.80534783 46.53752022 316.69876483 50.41796875 313.26953125 C50.41796875 312.60953125 50.41796875 311.94953125 50.41796875 311.26953125 C51.07796875 311.26953125 51.73796875 311.26953125 52.41796875 311.26953125 C52.41796875 310.60953125 52.41796875 309.94953125 52.41796875 309.26953125 C53.07796875 309.26953125 53.73796875 309.26953125 54.41796875 309.26953125 C55.07796875 307.61953125 55.73796875 305.96953125 56.41796875 304.26953125 C57.07796875 304.26953125 57.73796875 304.26953125 58.41796875 304.26953125 C60.37807676 300.85387978 62.33574449 297.43683584 64.29296875 294.01953125 C64.84855469 293.05144531 65.40414062 292.08335937 65.9765625 291.0859375 C66.51152344 290.15136719 67.04648437 289.21679688 67.59765625 288.25390625 C68.08991699 287.39506836 68.58217773 286.53623047 69.08935547 285.65136719 C69.52779785 284.86536133 69.96624023 284.07935547 70.41796875 283.26953125 C70.8061377 282.58922852 71.19430664 281.90892578 71.59423828 281.20800781 C72.67869645 279.00700246 72.67869645 279.00700246 72.41796875 275.26953125 C73.07796875 274.93953125 73.73796875 274.60953125 74.41796875 274.26953125 C80.09455246 264.31841161 83.25300864 253.20679525 86.41796875 242.26953125 C86.76214844 241.12355469 87.10632813 239.97757813 87.4609375 238.796875 C91.21272754 224.86417113 89.73761581 211.53812857 86.85473633 197.61108398 C84.75926186 187.4017043 85.3097298 178.71327921 86.98046875 168.43359375 C87.3647183 165.65464612 87.50181668 163.06795587 87.41796875 160.26953125 C73.84695358 159.84388342 73.84695358 159.84388342 60.625 162.59375 C57.79741875 163.45954037 55.34830279 163.6452151 52.41796875 163.26953125 C50.41796875 161.26953125 50.41796875 161.26953125 50.29296875 157.95703125 C51.66438236 153.4618422 53.10274494 152.58052053 57.01953125 150.3125 C63.94186567 147.3022992 69.87991252 147.01167789 77.35546875 147.14453125 C78.81049805 147.15806641 78.81049805 147.15806641 80.29492188 147.171875 C82.66953282 147.19527018 85.04361651 147.22804949 87.41796875 147.26953125 C87.73097329 133.64513939 84.75435822 121.12461475 80.41796875 108.26953125 C76.14100639 107.17432531 76.14100639 107.17432531 72.0390625 108.4140625 C70.95818359 109.23970703 70.95818359 109.23970703 69.85546875 110.08203125 C61.04649219 116.69268924 50.53978261 117.35243976 39.83984375 115.92578125 C31.60321546 114.37170044 23.88339799 112.09328769 16.41796875 108.26953125 C15.42796875 108.26953125 14.43796875 108.26953125 13.41796875 108.26953125 C13.41796875 107.60953125 13.41796875 106.94953125 13.41796875 106.26953125 C11.90203125 105.64884766 11.90203125 105.64884766 10.35546875 105.015625 C6.55441884 103.38564761 2.98340744 101.42115548 -0.58203125 99.33203125 C-1.15953125 98.99751953 -1.73703125 98.66300781 -2.33203125 98.31835938 C-2.90953125 97.98384766 -3.48703125 97.64933594 -4.08203125 97.3046875 C-4.66106201 96.97065918 -5.24009277 96.63663086 -5.83666992 96.29248047 C-6.9973964 95.61218337 -8.1488677 94.91583568 -9.2902832 94.20361328 C-13.63696841 91.55296942 -17.81166778 90.12297892 -22.76953125 89.01953125 C-23.50913086 88.85042236 -24.24873047 88.68131348 -25.01074219 88.50708008 C-32.98376516 86.79697197 -40.59184751 86.50191866 -48.58203125 88.26953125 Z M-109.58203125 246.26953125 C-111.23203125 246.92953125 -112.88203125 247.58953125 -114.58203125 248.26953125 C-114.62690674 248.84582275 -114.67178223 249.42211426 -114.71801758 250.01586914 C-118.58855715 298.90613421 -118.58855715 298.90613421 -128.6640625 317.4140625 C-129.72984315 319.22327861 -129.72984315 319.22327861 -129.58203125 321.26953125 C-130.24203125 321.26953125 -130.90203125 321.26953125 -131.58203125 321.26953125 C-132.58420189 324.85280878 -132.58420189 324.85280878 -131.58203125 328.26953125 C-130.92203125 328.26953125 -130.26203125 328.26953125 -129.58203125 328.26953125 C-129.32421875 328.8315625 -129.06640625 329.39359375 -128.80078125 329.97265625 C-127.44033348 332.53657704 -125.85414163 334.7217949 -124.08203125 337.01953125 C-123.47359375 337.81875 -122.86515625 338.61796875 -122.23828125 339.44140625 C-121.69171875 340.0446875 -121.14515625 340.64796875 -120.58203125 341.26953125 C-119.92203125 341.26953125 -119.26203125 341.26953125 -118.58203125 341.26953125 C-118.58203125 341.92953125 -118.58203125 342.58953125 -118.58203125 343.26953125 C-99.93033771 363.70892705 -67.52372021 378.77797546 -40.15698242 380.48291016 C-36.29617436 380.60867264 -32.4447996 380.64070673 -28.58203125 380.64453125 C-27.28007812 380.66902344 -25.978125 380.69351563 -24.63671875 380.71875 C-16.26624761 380.74411506 -8.10446821 380.37009909 -1.61914062 374.48974609 C3.29073386 369.20968266 3.54398058 365.02451145 3.515625 357.87890625 C3.51421005 357.1742926 3.5127951 356.46967896 3.51133728 355.74371338 C3.50575808 353.50227541 3.49320948 351.26093882 3.48046875 349.01953125 C3.47545106 347.4960952 3.47088862 345.97265757 3.46679688 344.44921875 C3.45579549 340.72262353 3.43854521 336.99608729 3.41796875 333.26953125 C2.74443359 333.08890137 2.07089844 332.90827148 1.37695312 332.72216797 C-18.39470323 327.38840314 -35.85558293 321.70597445 -53.57861328 311.42089844 C-56.30037758 309.85669658 -59.06373669 308.37446077 -61.83203125 306.89453125 C-64.7022402 305.34259031 -67.45568882 303.74270934 -70.14453125 301.89453125 C-72.37112961 300.08463118 -72.37112961 300.08463118 -74.58203125 300.26953125 C-74.58203125 299.60953125 -74.58203125 298.94953125 -74.58203125 298.26953125 C-76.40120706 296.69975777 -76.40120706 296.69975777 -78.70703125 295.08203125 C-81.86844886 292.7122127 -84.51535416 290.38924 -87.01953125 287.33203125 C-87.86515625 286.32140625 -88.71078125 285.31078125 -89.58203125 284.26953125 C-90.24203125 284.26953125 -90.90203125 284.26953125 -91.58203125 284.26953125 C-91.8346875 283.7384375 -92.08734375 283.20734375 -92.34765625 282.66015625 C-93.27418002 280.86574946 -94.27738694 279.1106051 -95.31640625 277.37890625 C-99.92076286 269.70497857 -103.39893016 262.11095557 -106.35546875 253.66796875 C-107.29467417 251.0657117 -108.2659862 248.69253008 -109.58203125 246.26953125 Z " fill="#151414" transform="translate(277.58203125,33.73046875)"/>
<path d="M0 0 C0.33 0 0.66 0 1 0 C1.061875 0.78375 1.12375 1.5675 1.1875 2.375 C1.73288333 5.21051624 1.73288333 5.21051624 4.375 6.3125 C7.03143 7.1266797 7.03143 7.1266797 10 7 C10.63836872 10.75041625 11.03918625 14.21692577 10.90625 18.01953125 C10.8735462 23.72926482 11.95439934 29.15501832 13 34.75 C14.49154283 43.26288077 15.70173372 51.33761488 15 60 C14.95230469 61.04285156 14.90460938 62.08570313 14.85546875 63.16015625 C12.82937315 87.12211357 1.24504423 113.45221846 -11 134 C-11.74238749 135.27071651 -12.48455779 136.54155993 -13.2265625 137.8125 C-14.02476077 139.16742207 -14.82423654 140.52159238 -15.625 141.875 C-15.99753906 142.50647949 -16.37007812 143.13795898 -16.75390625 143.78857422 C-18.92911888 147.4123159 -21.15907648 150.84741398 -24 154 C-24.66 154 -25.32 154 -26 154 C-26 154.66 -26 155.32 -26 156 C-34.06199906 162.94276275 -44.54376483 168.77718824 -55.328125 169.31640625 C-56.52695312 169.37924805 -56.52695312 169.37924805 -57.75 169.44335938 C-58.575 169.48267578 -59.4 169.52199219 -60.25 169.5625 C-61.09046875 169.60568359 -61.9309375 169.64886719 -62.796875 169.69335938 C-64.86440671 169.79908543 -66.93218281 169.90001295 -69 170 C-68.97905273 171.04341553 -68.95810547 172.08683105 -68.93652344 173.16186523 C-68.8635782 177.06992621 -68.81800436 180.97792824 -68.78027344 184.88647461 C-68.76028114 186.57114821 -68.73307777 188.25575351 -68.69824219 189.94018555 C-68.47213806 201.16226535 -68.38168129 209.9180264 -76.125 218.75 C-88.06325948 229.76796538 -104.59142481 230.54602427 -119.98535156 230.09326172 C-131.66009294 229.55281683 -142.77299774 227.10044507 -154 224 C-155.40572266 223.62875 -155.40572266 223.62875 -156.83984375 223.25 C-163.21275611 221.4780686 -169.05140138 218.86877226 -175 216 C-176.64162109 215.24396484 -176.64162109 215.24396484 -178.31640625 214.47265625 C-187.30984247 210.20203011 -195.10948093 205.02596234 -203 199 C-204.53527344 197.83791016 -204.53527344 197.83791016 -206.1015625 196.65234375 C-211.17864421 192.71224231 -211.17864421 192.71224231 -213 191 C-213 190.34 -213 189.68 -213 189 C-213.66 189 -214.32 189 -215 189 C-215 188.34 -215 187.68 -215 187 C-215.66 187 -216.32 187 -217 187 C-217 186.34 -217 185.68 -217 185 C-217.66 185 -218.32 185 -219 185 C-220.69230716 183.03512655 -222.26263203 181.07301579 -223.8125 179 C-224.26101318 178.40421143 -224.70952637 177.80842285 -225.17163086 177.19458008 C-226.45868243 175.47079602 -227.73208068 173.73788776 -229 172 C-229.85851562 170.83017578 -229.85851562 170.83017578 -230.734375 169.63671875 C-233.82304905 165.10363537 -235.17877552 161.54204127 -235 156 C-233.37085525 152.89293912 -231.28818078 150.52969596 -227.9765625 149.16796875 C-223.43380689 146.48361316 -222.49645223 139.80550856 -221 135 C-220.77103027 134.26845703 -220.54206055 133.53691406 -220.30615234 132.78320312 C-215.1848211 115.75254621 -214.97775942 98.66306259 -215 81 C-215.70511719 80.89816406 -216.41023438 80.79632813 -217.13671875 80.69140625 C-220.41059645 79.90085188 -222.88584467 78.59476266 -225.8125 76.9375 C-226.78832031 76.38964844 -227.76414063 75.84179688 -228.76953125 75.27734375 C-229.50558594 74.85582031 -230.24164063 74.43429687 -231 74 C-231 73.34 -231 72.68 -231 72 C-231.86625 71.62875 -231.86625 71.62875 -232.75 71.25 C-235.32939979 69.81700012 -237.06121592 68.21575324 -239 66 C-239 65.34 -239 64.68 -239 64 C-239.66 64 -240.32 64 -241 64 C-249.04476142 50.39460777 -254.36480713 38.63152011 -254.3125 22.5 C-254.32861328 21.50613281 -254.34472656 20.51226562 -254.36132812 19.48828125 C-254.36543075 13.27690006 -253.55808625 8.66963706 -251 3 C-250.34 3.66 -249.68 4.32 -249 5 C-245.69164744 5.93312508 -244.32320026 6.10773342 -241 5 C-239.91015625 6.72265625 -239.91015625 6.72265625 -239 9 C-239.49609375 11.12109375 -239.49609375 11.12109375 -240.4375 13.4375 C-243.62722089 23.07754534 -241.36930046 33.6355593 -238 43 C-237.04710343 44.69403834 -236.06639644 46.37501495 -235 48 C-235 48.99 -235 49.98 -235 51 C-234.34 51 -233.68 51 -233 51 C-232.07775733 52.40044258 -231.15847254 53.80291925 -230.25390625 55.21484375 C-226.22614639 60.94906885 -220.89472401 66.16360621 -214 68 C-204.66922456 68.86909107 -204.66922456 68.86909107 -196 66 C-192.9375 65.5625 -192.9375 65.5625 -190 66 C-186.93712981 70.01368486 -185.89041672 74.45900485 -184.625 79.25 C-183.01410955 85.08457424 -181.23606342 90.21075742 -177.91796875 95.3359375 C-177 97 -177 97 -177 100 C-176.34 100 -175.68 100 -175 100 C-173.87503075 101.47522353 -172.82495715 103.00790333 -171.8125 104.5625 C-168.40568374 109.58007039 -164.56420365 115.21789817 -159 118 C-159 118.66 -159 119.32 -159 120 C-158.38125 120.309375 -157.7625 120.61875 -157.125 120.9375 C-155.75 121.625 -154.375 122.3125 -153 123 C-153 123.66 -153 124.32 -153 125 C-152.443125 125.103125 -151.88625 125.20625 -151.3125 125.3125 C-148.5230899 126.14178408 -146.3860936 127.34299056 -144 129 C-144 129.66 -144 130.32 -144 131 C-143.40880371 131.12890625 -142.81760742 131.2578125 -142.20849609 131.390625 C-138.739417 132.34782392 -135.75105304 134.25772315 -132.625 136 C-118.29512815 143.76981415 -102.91952951 150.32479761 -87 154 C-86.25790283 154.17370117 -85.51580566 154.34740234 -84.7512207 154.52636719 C-78.69110899 155.85581197 -72.88646922 156.38653082 -66.6875 156.375 C-65.77613281 156.37338867 -64.86476563 156.37177734 -63.92578125 156.37011719 C-53.92550353 156.18951727 -45.89152501 154.4321334 -38 148 C-37.34 148 -36.68 148 -36 148 C-36 147.34 -36 146.68 -36 146 C-35.34 146 -34.68 146 -34 146 C-34 145.34 -34 144.68 -34 144 C-33.34 144 -32.68 144 -32 144 C-31.34 142.35 -30.68 140.7 -30 139 C-29.34 139 -28.68 139 -28 139 C-27.75636719 138.15179688 -27.51273438 137.30359375 -27.26171875 136.4296875 C-25.87564876 132.66198022 -23.95887628 129.48600972 -21.8125 126.125 C-17.37989836 118.9654003 -13.95043141 111.60103551 -10.75683594 103.82226562 C-10.07398143 102.17812818 -9.35547879 100.54890654 -8.6328125 98.921875 C-5.18859456 91.09216216 -2.75648204 83.05868561 -0.50488281 74.82226562 C-0.10811807 73.39022884 0.31921692 71.96665862 0.7578125 70.546875 C4.24439568 58.07374646 2.00286042 44.73055368 -0.56347656 32.3425293 C-2.87206571 21.08553856 -1.84999644 11.3147104 0 0 Z M-196 81 C-197.65 81.66 -199.3 82.32 -201 83 C-201.04487549 83.5762915 -201.08975098 84.15258301 -201.13598633 84.74633789 C-205.0065259 133.63660296 -205.0065259 133.63660296 -215.08203125 152.14453125 C-216.1478119 153.95374736 -216.1478119 153.95374736 -216 156 C-216.66 156 -217.32 156 -218 156 C-219.00217064 159.58327753 -219.00217064 159.58327753 -218 163 C-217.34 163 -216.68 163 -216 163 C-215.7421875 163.56203125 -215.484375 164.1240625 -215.21875 164.703125 C-213.85830223 167.26704579 -212.27211038 169.45226365 -210.5 171.75 C-209.8915625 172.54921875 -209.283125 173.3484375 -208.65625 174.171875 C-208.1096875 174.77515625 -207.563125 175.3784375 -207 176 C-206.34 176 -205.68 176 -205 176 C-205 176.66 -205 177.32 -205 178 C-186.34830646 198.4393958 -153.94168896 213.50844421 -126.57495117 215.21337891 C-122.71414311 215.33914139 -118.86276835 215.37117548 -115 215.375 C-113.69804687 215.39949219 -112.39609375 215.42398438 -111.0546875 215.44921875 C-102.68421636 215.47458381 -94.52243696 215.10056784 -88.03710938 209.22021484 C-83.12723489 203.94015141 -82.87398817 199.7549802 -82.90234375 192.609375 C-82.9037587 191.90476135 -82.90517365 191.20014771 -82.90663147 190.47418213 C-82.91221067 188.23274416 -82.92475927 185.99140757 -82.9375 183.75 C-82.94251769 182.22656395 -82.94708013 180.70312632 -82.95117188 179.1796875 C-82.96217326 175.45309228 -82.97942354 171.72655604 -83 168 C-83.67353516 167.81937012 -84.34707031 167.63874023 -85.04101562 167.45263672 C-104.81267198 162.11887189 -122.27355168 156.4364432 -139.99658203 146.15136719 C-142.71834633 144.58716533 -145.48170544 143.10492952 -148.25 141.625 C-151.12020895 140.07305906 -153.87365757 138.47317809 -156.5625 136.625 C-158.78909836 134.81509993 -158.78909836 134.81509993 -161 135 C-161 134.34 -161 133.68 -161 133 C-162.81917581 131.43022652 -162.81917581 131.43022652 -165.125 129.8125 C-168.28641761 127.44268145 -170.93332291 125.11970875 -173.4375 122.0625 C-174.283125 121.051875 -175.12875 120.04125 -176 119 C-176.66 119 -177.32 119 -178 119 C-178.25265625 118.46890625 -178.5053125 117.9378125 -178.765625 117.390625 C-179.69214877 115.59621821 -180.69535569 113.84107385 -181.734375 112.109375 C-186.33873161 104.43544732 -189.81689891 96.84142432 -192.7734375 88.3984375 C-193.71264292 85.79618045 -194.68395495 83.42299883 -196 81 Z " fill="#242223" transform="translate(364,199)"/>
<path d="M0 0 C2.8497801 2.8497801 2.71836271 6.03985294 3.25 9.875 C4.74898074 19.24706763 7.9370901 26.65109644 13.390625 34.4609375 C21.43561638 46.04037226 21.43561638 46.04037226 20.76171875 53.51953125 C19.08974366 58.96416809 15.35669211 62.64490204 10.5 65.4375 C3.20732388 67.07835213 -5.22958602 68.86662469 -12 65 C-12.125 62.125 -12.125 62.125 -12 59 C-9.24362127 56.24362127 -6.8003867 56.18122322 -3 55.4375 C1.6372916 54.6267217 1.6372916 54.6267217 6 53 C6.08004482 49.4780279 6.04005702 46.38018531 5 43 C4.34 43 3.68 43 3 43 C-4.37147575 29.86791731 -9.92117088 18.5388821 -8 3 C-5.70882271 -0.22996913 -3.88093232 -0.49755543 0 0 Z " fill="#272526" transform="translate(327,207)"/>
<path d="M0 0 C2.98464404 0.27611244 4.58205455 1.06205869 7.16015625 2.55859375 C21.67622593 10.03978925 40.6952941 10.69109778 56.28515625 6.09765625 C57.97696558 5.49105356 59.64908807 4.82831753 61.3046875 4.12890625 C64.20542382 3.04173144 65.74209525 3.29969559 68.66015625 4.24609375 C69.65015625 5.23609375 69.65015625 5.23609375 70.66015625 6.24609375 C70.36713558 10.05536243 69.47974657 11.76406002 66.66015625 14.24609375 C51.28621365 23.19093308 33.27596908 23.24235906 16.39868164 18.953125 C11.22622861 17.52913984 6.38721047 15.7750144 1.66015625 13.24609375 C0.69078125 12.79234375 -0.27859375 12.33859375 -1.27734375 11.87109375 C-4.13211941 9.62187657 -4.75975873 7.79911451 -5.33984375 4.24609375 C-4.0061771 1.26495654 -3.28962021 0.34598677 0 0 Z " fill="#302E2E" transform="translate(271.33984375,284.75390625)"/>
<path d="M0 0 C1.07378906 -0.020625 2.14757812 -0.04125 3.25390625 -0.0625 C12.20708643 -0.10559593 23.60687993 0.65520644 31 6.25 C32 9.75 32 9.75 32 13.25 C30 16.25 30 16.25 27 17.03125 C22.22830456 17.52419374 17.68949107 16.57147301 13 15.75 C1.61354074 13.95035878 -9.09737539 13.33253668 -20.05859375 17.6171875 C-23.10982442 18.61175363 -25.8184684 18.45307648 -29 18.25 C-29.25 11.625 -29.25 11.625 -27 8.25 C-26.34 8.25 -25.68 8.25 -25 8.25 C-25 7.59 -25 6.93 -25 6.25 C-23.58671871 5.43162558 -22.16921654 4.62053781 -20.75 3.8125 C-19.56664062 3.13380859 -19.56664062 3.13380859 -18.359375 2.44140625 C-12.52873528 -0.50287374 -6.3930665 0.02983928 0 0 Z " fill="#232121" transform="translate(262,179.75)"/>
<path d="M0 0 C6.52026076 2.95257091 10.62910741 8.55318435 13.23046875 15.09375 C15.25534012 21.35111425 16.78760226 27.41567017 17 34 C16.34 34.99 15.68 35.98 15 37 C12.125 37.5 12.125 37.5 9 37 C6.625 34.5 6.625 34.5 5 32 C5.3403125 33.6396875 5.3403125 33.6396875 5.6875 35.3125 C6 39 6 39 4.9375 41 C3 42 3 42 0.0625 42.1875 C-3.23334362 40.90951982 -3.70821309 40.49272326 -5.375 37.5625 C-7.94836585 31.56515782 -8.0437261 25.68386712 -5.6875 19.625 C-4.21117971 17.32850177 -2.71527868 15.12367836 -1 13 C-2.051875 12.855625 -3.10375 12.71125 -4.1875 12.5625 C-12.69230769 11.30769231 -12.69230769 11.30769231 -14 10 C-14.46867749 3.67285383 -14.46867749 3.67285383 -12.81640625 1.30078125 C-9.10810117 -1.35484368 -4.33776918 -0.54222115 0 0 Z " fill="#272526" transform="translate(146,209)"/>
<path d="M0 0 C3.1648881 1.87016115 4.6680703 3.33614059 6.3125 6.625 C7.53703373 12.63634738 8.21368119 18.44620387 5.1875 24 C3 27 3 27 0 29 C-3.375 29.4375 -3.375 29.4375 -7 29 C-9.63016161 26.8272578 -11.47336894 25.05326212 -13 22 C-13.65618792 14.30861695 -13.84242922 8.22598042 -9 2 C-5.48746854 -0.34168764 -4.13530644 -0.49623677 0 0 Z " fill="#272425" transform="translate(273,205)"/>
<path d="M0 0 C0.66 0.66 1.32 1.32 2 2 C5.30835256 2.93312508 6.67679974 3.10773342 10 2 C11.47343094 4.32645249 12.12379094 5.429204 11.52807617 8.17602539 C11.22361572 8.95453857 10.91915527 9.73305176 10.60546875 10.53515625 C8.67514794 16.33676578 8.85057838 21.39981657 9.3125 27.4375 C9.37373047 28.41654297 9.43496094 29.39558594 9.49804688 30.40429688 C9.61053901 32.20293478 9.73045058 34.00113717 9.8605957 35.79858398 C9.9702085 37.52954478 10 39.26557207 10 41 C10.66 41 11.32 41 12 41 C12 41.99 12 42.98 12 44 C9.525 44.495 9.525 44.495 7 45 C7 44.34 7 43.68 7 43 C5.68 43.66 4.36 44.32 3 45 C3.33 43.68 3.66 42.36 4 41 C2.68 41 1.36 41 0 41 C-2.64661352 33.6791093 -3.46711334 27.13299041 -3.375 19.375 C-3.38660156 18.39015625 -3.39820312 17.4053125 -3.41015625 16.390625 C-3.38551554 10.23044792 -2.52542169 5.62541022 0 0 Z " fill="#211F20" transform="translate(113,202)"/>
<path d="M0 0 C2.5969394 1.3706069 3.73373978 2.56067064 5.25 5.0625 C7.06184004 12.15887351 6.56693425 18.06753215 3.0703125 24.50390625 C2 26 2 26 0 27 C-6.24259681 27.57801822 -6.24259681 27.57801822 -9.375 25.1875 C-13.2599928 19.957702 -12.57256406 13.22186277 -12 7 C-9.69472934 0.98007519 -6.21990905 -0.49759272 0 0 Z " fill="#1F1D1E" transform="translate(351,206)"/>
<path d="M0 0 C2.61376953 -0.34057617 2.61376953 -0.34057617 5.8828125 -0.29296875 C7.04941406 -0.28330078 8.21601563 -0.27363281 9.41796875 -0.26367188 C10.64128906 -0.23853516 11.86460937 -0.21339844 13.125 -0.1875 C14.35605469 -0.17396484 15.58710938 -0.16042969 16.85546875 -0.14648438 C19.90407843 -0.11103543 22.951825 -0.06162079 26 0 C26 0.99 26 1.98 26 3 C26.66 3.33 27.32 3.66 28 4 C27 7 27 7 26 9 C24.68 9 23.36 9 22 9 C22 9.66 22 10.32 22 11 C15.73 11 9.46 11 3 11 C3 10.34 3 9.68 3 9 C1.35 9 -0.3 9 -2 9 C-2.25 3.375 -2.25 3.375 0 0 Z " fill="#1D1A1B" transform="translate(296,295)"/>
<path d="M0 0 C5.43435886 2.46084175 8.96912858 6.94525679 12 12 C12.66796875 14.25 12.66796875 14.25 13 16 C12.34 16 11.68 16 11 16 C11 15.01 11 14.02 11 13 C10.071875 13.2475 10.071875 13.2475 9.125 13.5 C7 14 7 14 5 14 C3.0210578 14.9939932 3.0210578 14.9939932 0.9375 16.3125 C0.22464844 16.74175781 -0.48820313 17.17101562 -1.22265625 17.61328125 C-3.29672004 18.96776837 -3.29672004 18.96776837 -4 22 C-4.66 21.67 -5.32 21.34 -6 21 C-4.38731308 18.28775382 -2.75098126 15.62647188 -1 13 C-2.051875 12.855625 -3.10375 12.71125 -4.1875 12.5625 C-12.69230769 11.30769231 -12.69230769 11.30769231 -14 10 C-14.46867749 3.67285383 -14.46867749 3.67285383 -12.81640625 1.30078125 C-9.10810117 -1.35484368 -4.33776918 -0.54222115 0 0 Z " fill="#454343" transform="translate(146,209)"/>
<path d="M0 0 C1.32 0 2.64 0 4 0 C4 0.66 4 1.32 4 2 C4.66 2 5.32 2 6 2 C7.65625 4.1171875 7.65625 4.1171875 9.5 6.875 C12.01696681 10.62875168 12.01696681 10.62875168 15 14 C15.125 16.625 15.125 16.625 15 19 C15.99 19 16.98 19 18 19 C17.625 21.4375 17.625 21.4375 17 24 C14.50907189 25.24546405 13.58919267 24.7767578 11 24 C11 23.01 11 22.02 11 21 C9.02463255 21.34786708 9.02463255 21.34786708 7 22 C6.67 22.66 6.34 23.32 6 24 C5.67 23.01 5.34 22.02 5 21 C4.34 21 3.68 21 3 21 C0.91316083 18.9193167 -0.68549137 16.63427529 -2 14 C-1.8125 10.5625 -1.8125 10.5625 -1 8 C-1.99 8 -2.98 8 -4 8 C-4 7.01 -4 6.02 -4 5 C-3.34 5 -2.68 5 -2 5 C-1.34 3.35 -0.68 1.7 0 0 Z " fill="#292728" transform="translate(183,297)"/>
<path d="M0 0 C0.66 0.99 1.32 1.98 2 3 C1.34 3 0.68 3 0 3 C0 3.66 0 4.32 0 5 C0.639375 5.103125 1.27875 5.20625 1.9375 5.3125 C2.618125 5.539375 3.29875 5.76625 4 6 C4.33 6.99 4.66 7.98 5 9 C5.99 9.33 6.98 9.66 8 10 C7.36651054 13.71415741 5.71342582 16.19130299 3.5625 19.25 C2.94503906 20.14203125 2.32757813 21.0340625 1.69140625 21.953125 C1.13324219 22.62859375 0.57507813 23.3040625 0 24 C-0.66 24 -1.32 24 -2 24 C-2 24.66 -2 25.32 -2 26 C-6.47058824 30 -6.47058824 30 -9 30 C-9.94616328 26.57015811 -10 23.55824425 -10 20 C-11.98 20.33 -13.96 20.66 -16 21 C-15.01 19.515 -15.01 19.515 -14 18 C-13.34 18 -12.68 18 -12 18 C-12 17.34 -12 16.68 -12 16 C-11.34 16 -10.68 16 -10 16 C-10 15.34 -10 14.68 -10 14 C-9.34 14 -8.68 14 -8 14 C-7.34 12.35 -6.68 10.7 -6 9 C-5.34 9 -4.68 9 -4 9 C-3.71125 8.071875 -3.4225 7.14375 -3.125 6.1875 C-2 3 -2 3 0 0 Z " fill="#2B292A" transform="translate(340,329)"/>
<path d="M0 0 C0.28617188 0.57621094 0.57234375 1.15242187 0.8671875 1.74609375 C1.58896507 3.18218223 2.32218296 4.61261796 3.0703125 6.03515625 C3.59238281 7.03869141 3.59238281 7.03869141 4.125 8.0625 C4.47820312 8.73410156 4.83140625 9.40570313 5.1953125 10.09765625 C6 12 6 12 6 15 C6.66 15 7.32 15 8 15 C8.99 16.98 9.98 18.96 11 21 C9.68 21.33 8.36 21.66 7 22 C7 22.66 7 23.32 7 24 C2.52941176 28 2.52941176 28 0 28 C-1.29855607 25.79547458 -2.58888195 23.58676704 -3.875 21.375 C-4.23980469 20.75753906 -4.60460937 20.14007813 -4.98046875 19.50390625 C-7.14861194 15.75893164 -8.77764879 12.18172783 -10 8 C-8.68 8 -7.36 8 -6 8 C-6 8.99 -6 9.98 -6 11 C-4.68 11 -3.36 11 -2 11 C-0.68 11 0.64 11 2 11 C1.505 10.566875 1.01 10.13375 0.5 9.6875 C-1 8 -1 8 -1 5 C-0.68911632 3.32900023 -0.35919668 1.66128463 0 0 Z " fill="#343233" transform="translate(123,235)"/>
<path d="M0 0 C2.33333333 4.66666667 4.66666667 9.33333333 7 14 C5 15 3 16 1 17 C1 17.66 1 18.32 1 19 C0.34 19 -0.32 19 -1 19 C-1 19.99 -1 20.98 -1 22 C-0.01 22 0.98 22 2 22 C1.34 23.32 0.68 24.64 0 26 C-1.32002556 23.44113496 -2.63113782 20.87832932 -3.9375 18.3125 C-4.31068359 17.59126953 -4.68386719 16.87003906 -5.06835938 16.12695312 C-6.93965239 12.43494258 -8.48269556 9.16306904 -9 5 C-7.02 5.66 -5.04 6.32 -3 7 C-3 5.68 -3 4.36 -3 3 C-2.34 3 -1.68 3 -1 3 C-0.67 2.01 -0.34 1.02 0 0 Z M-7 7 C-7 7.66 -7 8.32 -7 9 C-6.34 9 -5.68 9 -5 9 C-5 8.34 -5 7.68 -5 7 C-5.66 7 -6.32 7 -7 7 Z " fill="#333132" transform="translate(180,283)"/>
<path d="M0 0 C2.0625 0.4375 2.0625 0.4375 4 1 C3.67 2.65 3.34 4.3 3 6 C3.66 5.67 4.32 5.34 5 5 C4.67 6.98 4.34 8.96 4 11 C2.948125 11.12375 1.89625 11.2475 0.8125 11.375 C-2.45958771 11.91140782 -5.00536076 12.63880035 -8 14 C-10.27521866 11.83312509 -12.15794162 9.54379491 -14 7 C-12.1746875 6.9071875 -12.1746875 6.9071875 -10.3125 6.8125 C-5.82764009 6.27972409 -3.88579932 4.49793857 -1 1 C-0.67 0.67 -0.34 0.34 0 0 Z " fill="#131111" transform="translate(327,348)"/>
<path d="M0 0 C1.98 0 3.96 0 6 0 C6.33 1.32 6.66 2.64 7 4 C7.66 3.01 8.32 2.02 9 1 C9.41713515 2.43146378 9.8080497 3.87058886 10.1875 5.3125 C10.40792969 6.11300781 10.62835938 6.91351563 10.85546875 7.73828125 C11 10 11 10 9.73828125 11.79296875 C8 13 8 13 5 13 C2 12 2 12 0.0625 9.5625 C-0.288125 8.716875 -0.63875 7.87125 -1 7 C0 5 0 5 2 3 C1.34 2.67 0.68 2.34 0 2 C0 1.34 0 0.68 0 0 Z " fill="#2D2C2D" transform="translate(141,238)"/>
<path d="M0 0 C0.66 0.99 1.32 1.98 2 3 C0.02 3.99 0.02 3.99 -2 5 C0.11326526 9.70842624 0.11326526 9.70842624 4 13 C-0.50353262 14.75747614 -4.17639811 15.19294408 -9 15 C-9.25 8.375 -9.25 8.375 -7 5 C-6.34 5 -5.68 5 -5 5 C-5 4.34 -5 3.68 -5 3 C-2.5 1.375 -2.5 1.375 0 0 Z " fill="#3C3637" transform="translate(242,183)"/>
<path d="M0 0 C0.66 1.32 1.32 2.64 2 4 C1.01 4.495 1.01 4.495 0 5 C-0.65213292 7.02463255 -0.65213292 7.02463255 -1 9 C-7.15234375 9.09765625 -7.15234375 9.09765625 -9 9 C-9.33 8.67 -9.66 8.34 -10 8 C-9.6875 4.5 -9.6875 4.5 -9 1 C-6.04335481 -0.4783226 -3.25770263 -0.06032783 0 0 Z " fill="#120F10" transform="translate(143,210)"/>
<path d="M0 0 C0.33 0.66 0.66 1.32 1 2 C1.99 1.67 2.98 1.34 4 1 C6.1875 1.4375 6.1875 1.4375 8 2 C7.37315423 4.92528027 6.51695295 7.41225673 5 10 C4.01 10.495 4.01 10.495 3 11 C2.67 11.99 2.34 12.98 2 14 C-0.97 13.505 -0.97 13.505 -4 13 C-3.38722388 10.03824877 -2.74627478 8.61941217 -1 6 C-0.60986284 4.0103005 -0.26797351 2.00980131 0 0 Z " fill="#121111" transform="translate(367,271)"/>
<path d="M0 0 C3.33434242 1.4031723 5.05526479 2.96989805 7.1875 5.875 C7.95126953 6.89207031 7.95126953 6.89207031 8.73046875 7.9296875 C9.98995557 9.98361986 10.56190327 11.64588985 11 14 C10.34 14 9.68 14 9 14 C9 13.01 9 12.02 9 11 C8.071875 11.2475 8.071875 11.2475 7.125 11.5 C5 12 5 12 3 12 C1.0210578 12.9939932 1.0210578 12.9939932 -1.0625 14.3125 C-1.77535156 14.74175781 -2.48820313 15.17101562 -3.22265625 15.61328125 C-5.29672004 16.96776837 -5.29672004 16.96776837 -6 20 C-6.66 19.67 -7.32 19.34 -8 19 C-6.03205595 15.45770071 -3.95691406 12.76614541 -1 10 C-0.34 9.34 0.32 8.68 1 8 C2 7 3 6 4 5 C2.68 5 1.36 5 0 5 C0 3.35 0 1.7 0 0 Z " fill="#454344" transform="translate(148,211)"/>
<path d="M0 0 C0.33 0 0.66 0 1 0 C1.1921167 5.08995341 1.3708613 10.18013197 1.53710938 15.27099609 C1.59558661 17.00354671 1.65774663 18.73597703 1.72363281 20.46826172 C1.81758626 22.95518088 1.89838011 25.44222889 1.9765625 27.9296875 C2.00875885 28.70682098 2.0409552 29.48395447 2.0741272 30.28463745 C2.12744129 32.18917246 2.07291252 34.09611456 2 36 C1.34 36.66 0.68 37.32 0 38 C-0.33 37.34 -0.66 36.68 -1 36 C-1.66 36 -2.32 36 -3 36 C-2.505 31.545 -2.505 31.545 -2 27 C-1.34 27 -0.68 27 0 27 C0 18.09 0 9.18 0 0 Z " fill="#5A5657" transform="translate(293,369)"/>
<path d="M0 0 C0.99 0.33 1.98 0.66 3 1 C3 1.99 3 2.98 3 4 C4.32 4 5.64 4 7 4 C7.66 5.65 8.32 7.3 9 9 C8.67 9.33 8.34 9.66 8 10 C8.99 10.33 9.98 10.66 11 11 C10.01 11.66 9.02 12.32 8 13 C-0.81548975 5.88610478 -0.81548975 5.88610478 -2 1 C-1.34 0.67 -0.68 0.34 0 0 Z " fill="#333031" transform="translate(191,317)"/>
<path d="M0 0 C1.32 0.33 2.64 0.66 4 1 C4.33 2.65 4.66 4.3 5 6 C4.67 5.34 4.34 4.68 4 4 C3.34 4 2.68 4 2 4 C1.34 6.31 0.68 8.62 0 11 C-2.31 10.67 -4.62 10.34 -7 10 C-6.67 9.34 -6.34 8.68 -6 8 C-6.33 7.01 -6.66 6.02 -7 5 C-4.92446352 4.4465236 -3.15634036 4 -1 4 C-0.67 2.68 -0.34 1.36 0 0 Z " fill="#121011" transform="translate(159,379)"/>
<path d="M0 0 C1.65 0 3.3 0 5 0 C5.33 1.32 5.66 2.64 6 4 C6.66 4 7.32 4 8 4 C8.33 5.98 8.66 7.96 9 10 C8.01 9.34 7.02 8.68 6 8 C6 7.34 6 6.68 6 6 C4.68 6.33 3.36 6.66 2 7 C2.66 7 3.32 7 4 7 C3.34 8.32 2.68 9.64 2 11 C1.34 10.67 0.68 10.34 0 10 C0 6.7 0 3.4 0 0 Z " fill="#100E0F" transform="translate(140,233)"/>
<path d="M0 0 C0.93619813 3.15506142 1.1057123 5.96586502 1.0625 9.25 C1.05347656 10.14203125 1.04445313 11.0340625 1.03515625 11.953125 C1.02355469 12.62859375 1.01195312 13.3040625 1 14 C1.99 14.33 2.98 14.66 4 15 C4 15.66 4 16.32 4 17 C4.66 17 5.32 17 6 17 C6 18.32 6 19.64 6 21 C7.65 21 9.3 21 11 21 C11 21.33 11 21.66 11 22 C4.64096386 22.48915663 4.64096386 22.48915663 1.625 20.1875 C-1.22838153 16.34640948 -1.13538833 13.08627566 -1.125 8.4375 C-1.12757813 7.28121094 -1.13015625 6.12492188 -1.1328125 4.93359375 C-1 2 -1 2 0 0 Z " fill="#585556" transform="translate(340,211)"/>
<path d="M0 0 C0 1.32 0 2.64 0 4 C0.99 4 1.98 4 3 4 C2.625 6.4375 2.625 6.4375 2 9 C-0.49092811 10.24546405 -1.41080733 9.7767578 -4 9 C-4.79953138 5.71303767 -5.09658936 4.28976808 -4 1 C-2 0 -2 0 0 0 Z " fill="#121212" transform="translate(198,312)"/>
<path d="M0 0 C0.33 0 0.66 0 1 0 C0.45018084 6.04801071 -0.90429574 11.30601106 -3 17 C-3.66 15.68 -4.32 14.36 -5 13 C-4.34 13 -3.68 13 -3 13 C-3.33 12.34 -3.66 11.68 -4 11 C-4.99 10.67 -5.98 10.34 -7 10 C-6.34 9.67 -5.68 9.34 -5 9 C-4.34786708 6.97536745 -4.34786708 6.97536745 -4 5 C-3.34 5 -2.68 5 -2 5 C-1.34 3.35 -0.68 1.7 0 0 Z " fill="#423D3F" transform="translate(374,276)"/>
<path d="M0 0 C-0.33 1.32 -0.66 2.64 -1 4 C-1.66 3.67 -2.32 3.34 -3 3 C-3 4.32 -3 5.64 -3 7 C-4.98 6.34 -6.96 5.68 -9 5 C-9 4.01 -9 3.02 -9 2 C-8.01 2 -7.02 2 -6 2 C-6 1.34 -6 0.68 -6 0 C-3 -1 -3 -1 0 0 Z M-7 7 C-6.34 7 -5.68 7 -5 7 C-5 7.66 -5 8.32 -5 9 C-5.66 9 -6.32 9 -7 9 C-7 8.34 -7 7.68 -7 7 Z " fill="#131011" transform="translate(180,283)"/>
<path d="M0 0 C0.33 0 0.66 0 1 0 C0.65520059 8.22346597 0.65520059 8.22346597 -1.6875 11 C-6.31364105 13.00049343 -10.13912812 13.28670138 -15 12 C-15 11.67 -15 11.34 -15 11 C-6.27058824 8.36470588 -6.27058824 8.36470588 -3 10 C-2.86722656 9.36191406 -2.73445312 8.72382813 -2.59765625 8.06640625 C-2.42105469 7.24011719 -2.24445313 6.41382813 -2.0625 5.5625 C-1.88847656 4.73878906 -1.71445313 3.91507813 -1.53515625 3.06640625 C-1 1 -1 1 0 0 Z " fill="#524C4F" transform="translate(191,220)"/>
<path d="M0 0 C1.1446875 0.3403125 1.1446875 0.3403125 2.3125 0.6875 C2.6425 1.6775 2.9725 2.6675 3.3125 3.6875 C-6.09752278 7.13169134 -6.09752278 7.13169134 -10.6875 6.6875 C-10.048125 6.584375 -9.40875 6.48125 -8.75 6.375 C-8.069375 6.148125 -7.38875 5.92125 -6.6875 5.6875 C-6.3575 4.6975 -6.0275 3.7075 -5.6875 2.6875 C-3.80173153 0.04742414 -3.30736142 -0.38457691 0 0 Z " fill="#413B3E" transform="translate(328.6875,298.3125)"/>
<path d="M0 0 C1.32 0.66 2.64 1.32 4 2 C-3.11389522 8.51936219 -3.11389522 8.51936219 -8 10 C-8 9.01 -8 8.02 -8 7 C-7.01 6.67 -6.02 6.34 -5 6 C-4.67 5.01 -4.34 4.02 -4 3 C-3.01 2.67 -2.02 2.34 -1 2 C-0.67 1.34 -0.34 0.68 0 0 Z " fill="#595657" transform="translate(202,183)"/>
<path d="M0 0 C0.99 0 1.98 0 3 0 C3 0.99 3 1.98 3 3 C2.01 3.66 1.02 4.32 0 5 C0.66 5.33 1.32 5.66 2 6 C1.67 7.32 1.34 8.64 1 10 C0.34 10 -0.32 10 -1 10 C-1 9.34 -1 8.68 -1 8 C-1.99 8 -2.98 8 -4 8 C-4 7.01 -4 6.02 -4 5 C-3.34 5 -2.68 5 -2 5 C-1.34 3.35 -0.68 1.7 0 0 Z " fill="#121111" transform="translate(183,297)"/>
<path d="M0 0 C0.66 1.32 1.32 2.64 2 4 C1.01 5.485 1.01 5.485 0 7 C-0.144375 7.70125 -0.28875 8.4025 -0.4375 9.125 C-0.623125 9.74375 -0.80875 10.3625 -1 11 C-1.99 11.33 -2.98 11.66 -4 12 C-4.33 12.66 -4.66 13.32 -5 14 C-4.46515599 8.65155992 -2.53309233 4.64203897 0 0 Z " fill="#504D4E" transform="translate(355,299)"/>
<path d="M0 0 C2.14208427 3.2131264 2.59687808 5.21065397 3 9 C2.67 9.66 2.34 10.32 2 11 C1.01 11 0.02 11 -1 11 C-1 10.34 -1 9.68 -1 9 C-1.66 9 -2.32 9 -3 9 C-2 7 -2 7 0 5 C-0.99 5 -1.98 5 -3 5 C-3 4.34 -3 3.68 -3 3 C-2.34 3 -1.68 3 -1 3 C-0.67 2.01 -0.34 1.02 0 0 Z " fill="#4B4849" transform="translate(149,239)"/>
<path d="M0 0 C-1.32 0.33 -2.64 0.66 -4 1 C-4 1.99 -4 2.98 -4 4 C-4.66 4 -5.32 4 -6 4 C-6.33 8.62 -6.66 13.24 -7 18 C-7.33 18 -7.66 18 -8 18 C-8.0809723 15.56183415 -8.14046972 13.12635616 -8.1875 10.6875 C-8.21263672 9.99720703 -8.23777344 9.30691406 -8.26367188 8.59570312 C-8.33760056 3.49462407 -8.33760056 3.49462407 -6.65625 1.03125 C-4.38225373 -0.38463447 -2.62238667 -0.21262595 0 0 Z " fill="#625F5F" transform="translate(327,207)"/>
<path d="M0 0 C-0.33 1.32 -0.66 2.64 -1 4 C-1.66 4 -2.32 4 -3 4 C-3 4.66 -3 5.32 -3 6 C-3.99 6 -4.98 6 -6 6 C-6.33 7.65 -6.66 9.3 -7 11 C-7.66 11 -8.32 11 -9 11 C-7.84101462 6.46942077 -5.51745129 0 0 0 Z " fill="#4B4A4B" transform="translate(126,85)"/>
<path d="M0 0 C0.33 0.66 0.66 1.32 1 2 C1.66 2 2.32 2 3 2 C3 3.65 3 5.3 3 7 C1.35 6.67 -0.3 6.34 -2 6 C-2 4.35 -2 2.7 -2 1 C-1.34 0.67 -0.68 0.34 0 0 Z " fill="#130F10" transform="translate(318,265)"/>
<path d="M0 0 C0.99 0 1.98 0 3 0 C1.58707905 4.8274799 -0.42974154 8.7162359 -3 13 C-3.33 13 -3.66 13 -4 13 C-4 11.35 -4 9.7 -4 8 C-3.34 8 -2.68 8 -2 8 C-1.7834375 6.576875 -1.7834375 6.576875 -1.5625 5.125 C-1 2 -1 2 0 0 Z " fill="#595256" transform="translate(354,324)"/>
<path d="M0 0 C0.33 0 0.66 0 1 0 C1.84023188 4.35332736 2.10770995 8.44442519 2.0625 12.875 C2.05347656 14.02742187 2.04445313 15.17984375 2.03515625 16.3671875 C2.02355469 17.23601562 2.01195312 18.10484375 2 19 C1.67 19 1.34 19 1 19 C-0.48725585 12.31349436 -1.27567351 6.76106962 0 0 Z " fill="#838181" transform="translate(377,240)"/>
<path d="M0 0 C0.66 0.99 1.32 1.98 2 3 C-3.17578125 6.22265625 -3.17578125 6.22265625 -5 7 C-5.99 6.67 -6.98 6.34 -8 6 C-8 5.34 -8 4.68 -8 4 C-5.64561267 2.57055055 -4.51967567 1.91338739 -1.75 2.375 C-0.88375 2.684375 -0.88375 2.684375 0 3 C0 2.01 0 1.02 0 0 Z " fill="#3F3C3D" transform="translate(329,357)"/>
<path d="M0 0 C0.99 0.66 1.98 1.32 3 2 C2.62403791 4.78211944 2.32681541 6.5879284 0.5625 8.8125 C-1 10 -1 10 -3 10 C-2.625 8.0625 -2.625 8.0625 -2 6 C-1.34 5.67 -0.68 5.34 0 5 C0 3.35 0 1.7 0 0 Z " fill="#686364" transform="translate(339,289)"/>
<path d="M0 0 C-0.99 0.495 -0.99 0.495 -2 1 C-1.67 1.99 -1.34 2.98 -1 4 C-1.845625 3.814375 -2.69125 3.62875 -3.5625 3.4375 C-7.2773282 2.96470368 -10.32974273 3.33935369 -14 4 C-11.8244694 1.8244694 -10.44026108 1.28120447 -7.5625 0.3125 C-6.78003906 0.04050781 -5.99757813 -0.23148437 -5.19140625 -0.51171875 C-3 -1 -3 -1 0 0 Z " fill="#665F60" transform="translate(338,289)"/>
<path d="M0 0 C2.97 0.33 5.94 0.66 9 1 C9.33 2.65 9.66 4.3 10 6 C6.40992874 4.66654496 3.20429093 3.1056769 0 1 C0 0.67 0 0.34 0 0 Z " fill="#514F51" transform="translate(274,131)"/>
<path d="M0 0 C0.33 0.66 0.66 1.32 1 2 C-0.23789629 5.71368887 -1.85224877 6.77354181 -5 9 C-5.66 9 -6.32 9 -7 9 C-6.67 7.68 -6.34 6.36 -6 5 C-5.01 5 -4.02 5 -3 5 C-2.690625 4.360625 -2.38125 3.72125 -2.0625 3.0625 C-1 1 -1 1 0 0 Z " fill="#484747" transform="translate(338,350)"/>
<path d="M0 0 C0.66 0.33 1.32 0.66 2 1 C1.01 2.32 0.02 3.64 -1 5 C-2.32 4.67 -3.64 4.34 -5 4 C-5.33 4.66 -5.66 5.32 -6 6 C-7.65 5.67 -9.3 5.34 -11 5 C-11 4.67 -11 4.34 -11 4 C-10.28972656 3.79503906 -9.57945312 3.59007812 -8.84765625 3.37890625 C-7.92855469 3.10949219 -7.00945312 2.84007812 -6.0625 2.5625 C-4.68771484 2.16224609 -4.68771484 2.16224609 -3.28515625 1.75390625 C-1.0597507 1.20973949 -1.0597507 1.20973949 0 0 Z " fill="#5C5659" transform="translate(322,350)"/>
<path d="M0 0 C0.66 0 1.32 0 2 0 C2.66 1.98 3.32 3.96 4 6 C2 7 0 8 -2 9 C-1.41196203 5.97580475 -0.77321882 2.98241547 0 0 Z " fill="#0F0C0D" transform="translate(146,329)"/>
<path d="M0 0 C0.99 0.33 1.98 0.66 3 1 C2.67 3.31 2.34 5.62 2 8 C0.68 8 -0.64 8 -2 8 C-1.67 7.236875 -1.34 6.47375 -1 5.6875 C0.17436686 3.00930865 0.17436686 3.00930865 0 0 Z " fill="#373435" transform="translate(291,187)"/>
<path d="M0 0 C1.65 0 3.3 0 5 0 C4.01 0.495 4.01 0.495 3 1 C3.33 3.64 3.66 6.28 4 9 C3.01 9 2.02 9 1 9 C1.020625 7.88625 1.04125 6.7725 1.0625 5.625 C1.26380718 2.16784079 1.26380718 2.16784079 0 0 Z " fill="#565456" transform="translate(209,144)"/>
<path d="M0 0 C3.125 0.375 3.125 0.375 6 1 C4.68 2.65 3.36 4.3 2 6 C1.34 5.67 0.68 5.34 0 5 C0.33 4.34 0.66 3.68 1 3 C0.01 2.67 -0.98 2.34 -2 2 C-1.34 1.34 -0.68 0.68 0 0 Z " fill="#585657" transform="translate(379,130)"/>
<path d="M0 0 C0.99 0 1.98 0 3 0 C3 0.99 3 1.98 3 3 C5.31 3.33 7.62 3.66 10 4 C10 4.33 10 4.66 10 5 C8.41590006 4.88512252 6.83271037 4.75765492 5.25 4.625 C4.36828125 4.55539062 3.4865625 4.48578125 2.578125 4.4140625 C0.00933618 4.00149945 -1.75841015 3.28839043 -4 2 C-2.68 2 -1.36 2 0 2 C0 1.34 0 0.68 0 0 Z " fill="#625D5F" transform="translate(289,300)"/>
<path d="M0 0 C1.65 0 3.3 0 5 0 C4.34 3.63 3.68 7.26 3 11 C2.34 10.67 1.68 10.34 1 10 C1.020625 9.0925 1.04125 8.185 1.0625 7.25 C1.0110245 4.57327412 0.7784983 2.53011948 0 0 Z " fill="#635D5E" transform="translate(332,250)"/>
<path d="M0 0 C1.32 0.33 2.64 0.66 4 1 C3.01 1.495 3.01 1.495 2 2 C1.67 2.99 1.34 3.98 1 5 C0.01 5.495 0.01 5.495 -1 6 C-1.33 6.66 -1.66 7.32 -2 8 C-2.33 7.01 -2.66 6.02 -3 5 C-3.66 4.67 -4.32 4.34 -5 4 C-4.360625 3.71125 -3.72125 3.4225 -3.0625 3.125 C-0.84793921 2.17176549 -0.84793921 2.17176549 0 0 Z " fill="#100D0E" transform="translate(149,215)"/>
<path d="M0 0 C0.66 0.33 1.32 0.66 2 1 C0.68 4.3 -0.64 7.6 -2 11 C-2.33 11 -2.66 11 -3 11 C-3.08096803 9.54257537 -3.13917774 8.08387193 -3.1875 6.625 C-3.22230469 5.81289062 -3.25710938 5.00078125 -3.29296875 4.1640625 C-3.19628906 3.44992188 -3.09960938 2.73578125 -3 2 C-2.01 1.34 -1.02 0.68 0 0 Z " fill="#140F11" transform="translate(264,211)"/>
<path d="M0 0 C0.33 0.66 0.66 1.32 1 2 C1.99 1.67 2.98 1.34 4 1 C4 2.65 4 4.3 4 6 C2.68 6.33 1.36 6.66 0 7 C-1.125 2.25 -1.125 2.25 0 0 Z " fill="#141213" transform="translate(289,403)"/>
<path d="M0 0 C2.92824652 0.97608217 4.61426621 2.10786631 7 4 C6.01 4.495 6.01 4.495 5 5 C5 5.99 5 6.98 5 8 C3.2925002 6.71937515 1.62626404 5.38232443 0 4 C0 3.34 0 2.68 0 2 C-0.66 1.67 -1.32 1.34 -2 1 C-1.34 0.67 -0.68 0.34 0 0 Z " fill="#514C4D" transform="translate(151,386)"/>
<path d="M0 0 C1 3 1 3 0.22265625 5.04296875 C-0.16019531 5.75066406 -0.54304688 6.45835937 -0.9375 7.1875 C-1.31777344 7.90292969 -1.69804687 8.61835938 -2.08984375 9.35546875 C-2.54037109 10.16951172 -2.54037109 10.16951172 -3 11 C-3.66 10.67 -4.32 10.34 -5 10 C-5 9.01 -5 8.02 -5 7 C-4.01 7 -3.02 7 -2 7 C-2.33 6.01 -2.66 5.02 -3 4 C-2.67 3.34 -2.34 2.68 -2 2 C-1.34 2 -0.68 2 0 2 C0 1.34 0 0.68 0 0 Z " fill="#5A5758" transform="translate(356,221)"/>
<path d="M0 0 C2.475 0.99 2.475 0.99 5 2 C3.515 4.475 3.515 4.475 2 7 C1.01 6.34 0.02 5.68 -1 5 C-0.67 3.35 -0.34 1.7 0 0 Z " fill="#343031" transform="translate(273,226)"/>
<path d="M0 0 C0.66 1.32 1.32 2.64 2 4 C2.78375 3.505 3.5675 3.01 4.375 2.5 C7 1 7 1 9 1 C9 1.66 9 2.32 9 3 C8.01 3 7.02 3 6 3 C5.67 3.99 5.34 4.98 5 6 C4.01 6.33 3.02 6.66 2 7 C1.34 6.67 0.68 6.34 0 6 C0 4.02 0 2.04 0 0 Z " fill="#7B7677" transform="translate(337,44)"/>
<path d="M0 0 C1.98 0.66 3.96 1.32 6 2 C5.34 3.32 4.68 4.64 4 6 C2.68 5.67 1.36 5.34 0 5 C0.33 4.01 0.66 3.02 1 2 C0.67 1.34 0.34 0.68 0 0 Z " fill="#0F0E0E" transform="translate(190,401)"/>
<path d="M0 0 C4.95 1.98 4.95 1.98 10 4 C6.8035914 5.06546953 4.34252724 5.07427838 1 5 C0.67 3.35 0.34 1.7 0 0 Z " fill="#626062" transform="translate(236,338)"/>
<path d="M0 0 C0.33 0 0.66 0 1 0 C0.91291331 1.45945288 0.80473093 2.91765868 0.6875 4.375 C0.62949219 5.18710938 0.57148438 5.99921875 0.51171875 6.8359375 C0 9 0 9 -3 11 C-2.32829194 7.1936543 -1.27253436 3.64793184 0 0 Z " fill="#6B6869" transform="translate(191,220)"/>
<path d="M0 0 C0.66 0.33 1.32 0.66 2 1 C1.67 1.99 1.34 2.98 1 4 C0.34 4 -0.32 4 -1 4 C-1 4.66 -1 5.32 -1 6 C-1.99 5.67 -2.98 5.34 -4 5 C-4 4.01 -4 3.02 -4 2 C-2.125 0.9375 -2.125 0.9375 0 0 Z " fill="#433F40" transform="translate(193,33)"/>
<path d="M0 0 C0.33 0.66 0.66 1.32 1 2 C-2.3 2.33 -5.6 2.66 -9 3 C-9.33 2.34 -9.66 1.68 -10 1 C-6.78548731 -0.60725635 -3.56387464 -0.05748185 0 0 Z " fill="#373737" transform="translate(233,25)"/>
<path d="M0 0 C4 4.75 4 4.75 4 7 C0.34683329 5.75023244 -0.78065836 5.32901247 -3 2 C-2.01 1.34 -1.02 0.68 0 0 Z " fill="#4E4C4D" transform="translate(164,395)"/>
<path d="M0 0 C0.99 0.66 1.98 1.32 3 2 C3.1875 5.125 3.1875 5.125 3 8 C-0.81538462 5.53846154 -0.81538462 5.53846154 -1.75 2.8125 C-1.8325 2.214375 -1.915 1.61625 -2 1 C-1.34 0.67 -0.68 0.34 0 0 Z " fill="#3A3838" transform="translate(191,317)"/>
<path d="M0 0 C0.99 0.495 0.99 0.495 2 1 C1.01 1.495 1.01 1.495 0 2 C0 1.34 0 0.68 0 0 Z M-8 2 C-0.49230769 1.63076923 -0.49230769 1.63076923 2 3.5 C2.495 4.2425 2.495 4.2425 3 5 C1.741875 4.87625 0.48375 4.7525 -0.8125 4.625 C-1.87404297 4.52058594 -1.87404297 4.52058594 -2.95703125 4.4140625 C-5 4 -5 4 -8 2 Z " fill="#5D5C5C" transform="translate(274,361)"/>
<path d="M0 0 C2.66735273 2.48952921 4.55746343 4.63408134 6 8 C3.03 7.505 3.03 7.505 0 7 C0 4.69 0 2.38 0 0 Z " fill="#6C6768" transform="translate(337,238)"/>
<path d="M0 0 C1.32 0.33 2.64 0.66 4 1 C3.34 1 2.68 1 2 1 C2.33 2.65 2.66 4.3 3 6 C1.02 5.34 -0.96 4.68 -3 4 C-2.67 3.34 -2.34 2.68 -2 2 C-1.34 2 -0.68 2 0 2 C0 1.34 0 0.68 0 0 Z " fill="#100E0F" transform="translate(295,137)"/>
<path d="M0 0 C1.5625 1 1.5625 1 3 3 C2.96726452 5.76614782 2.49404328 8.26030547 2 11 C-0.32590854 7.36576791 -0.16265833 4.22911669 0 0 Z " fill="#7F7E7E" transform="translate(363,160)"/>
<path d="M0 0 C1.33332095 2.6666419 0.67102033 4.16680303 0 7 C-1.32 7.33 -2.64 7.66 -4 8 C-2.87548273 5.0280615 -1.77706209 2.66559313 0 0 Z " fill="#4A4748" transform="translate(107,110)"/>
<path d="M0 0 C1.65 0 3.3 0 5 0 C5.33 1.32 5.66 2.64 6 4 C3.69 3.34 1.38 2.68 -1 2 C-0.67 1.34 -0.34 0.68 0 0 Z " fill="#474545" transform="translate(187,412)"/>
<path d="M0 0 C4.455 1.98 4.455 1.98 9 4 C6 5 6 5 2 5 C2 4.01 2 3.02 2 2 C1.34 2 0.68 2 0 2 C0 1.34 0 0.68 0 0 Z " fill="#4B4949" transform="translate(186,397)"/>
<path d="M0 0 C3 0 3 0 6 2 C6 2.66 6 3.32 6 4 C4.35 4 2.7 4 1 4 C0.67 2.68 0.34 1.36 0 0 Z " fill="#120F10" transform="translate(283,298)"/>
<path d="M0 0 C0.33 0.99 0.66 1.98 1 3 C0.34 3.66 -0.32 4.32 -1 5 C-3.125 4.625 -3.125 4.625 -5 4 C-3 1 -3 1 0 0 Z " fill="#120D0F" transform="translate(169,266)"/>
<path d="M0 0 C0.66 0 1.32 0 2 0 C2 1.32 2 2.64 2 4 C0.35 4.66 -1.3 5.32 -3 6 C-1.125 1.125 -1.125 1.125 0 0 Z " fill="#544A51" transform="translate(264,207)"/>
<path d="M0 0 C0.66 0.99 1.32 1.98 2 3 C1.125 5.6875 1.125 5.6875 0 8 C-0.66 8 -1.32 8 -2 8 C-2.125 5.125 -2.125 5.125 -2 2 C-1.34 1.34 -0.68 0.68 0 0 Z " fill="#151112" transform="translate(290,188)"/>
<path d="M0 0 C4.75 1.875 4.75 1.875 7 3 C6.67 3.33 6.34 3.66 6 4 C3.30917128 3.82364548 0.67148554 3.38164079 -2 3 C-1 1 -1 1 0 0 Z " fill="#0C0A0B" transform="translate(312,145)"/>
</svg>
