<?xml version="1.0" encoding="UTF-8"?>
<svg version="1.1" xmlns="http://www.w3.org/2000/svg" width="96" height="96">
<path d="M0 0 C2.92957558 2.38326778 5.5512446 5.04783821 8.1875 7.75 C9.39144398 8.73455863 10.60002746 9.71346348 11.8125 10.6875 C16.06391208 14.28271587 18.04179076 18.34590246 19.1875 23.75 C19.64843043 29.3562003 19.01829092 34.32343077 17.4296875 39.70703125 C17.11957408 42.32298804 17.92968736 43.4804685 19.1875 45.75 C19.87069304 51.78487184 18.56766259 54.9211963 15.1875 59.75 C14.1975 60.08 13.2075 60.41 12.1875 60.75 C12.1875 57.12 12.1875 53.49 12.1875 49.75 C6.5775 49.75 0.9675 49.75 -4.8125 49.75 C-4.8125 42.75 -4.8125 42.75 -3.1875 40.625 C-2.73375 40.00625 -2.28 39.3875 -1.8125 38.75 C-2.52207237 36.01601865 -2.52207237 36.01601865 -3.8125 33.75 C-6.22869823 33.49969023 -6.22869823 33.49969023 -8.8125 33.75 C-11.076884 36.44155201 -11.076884 36.44155201 -10.5625 38.8125 C-9.88717282 40.94476975 -9.88717282 40.94476975 -7.8125 42.75 C-7.53799455 46.09896654 -7.72621196 49.38476663 -7.8125 52.75 C-2.2025 52.75 3.4075 52.75 9.1875 52.75 C9.41536458 55.02864583 9.64322917 57.30729167 9.87109375 59.5859375 C10.07840114 61.79272805 10.07840114 61.79272805 11.1875 63.75 C11.69730775 68.16833381 11.53623068 70.20048499 9.125 74 C6.29537755 77.04666735 2.99558728 78.15752714 -0.8125 79.75 C-2.15077304 81.41270287 -3.48439785 83.07916181 -4.8125 84.75 C-9.12773726 86.81380912 -12.21548272 87.07802721 -16.8125 85.75 C-19.58637201 83.74133406 -20.2010566 82.04623581 -20.8125 78.75 C-20.88040675 76.50092848 -20.89749984 74.24998395 -20.875 72 C-20.86597656 70.82953125 -20.85695312 69.6590625 -20.84765625 68.453125 C-20.83605469 67.56109375 -20.82445312 66.6690625 -20.8125 65.75 C-19.37594146 65.66868537 -17.9380517 65.61066441 -16.5 65.5625 C-15.29923828 65.51029297 -15.29923828 65.51029297 -14.07421875 65.45703125 C-11.29505457 65.81702661 -10.65853049 66.73614856 -8.8125 68.75 C-6.18679296 69.00069913 -6.18679296 69.00069913 -3.8125 68.75 C-2.61411791 66.42145537 -2.61411791 66.42145537 -1.8125 63.75 C-2.4725 62.76 -3.1325 61.77 -3.8125 60.75 C-6.26991537 60.24985047 -6.26991537 60.24985047 -8.8125 60.75 C-9.8025 61.74 -10.7925 62.73 -11.8125 63.75 C-14.7825 63.75 -17.7525 63.75 -20.8125 63.75 C-20.8125 49.89 -20.8125 36.03 -20.8125 21.75 C-15.2025 21.75 -9.5925 21.75 -3.8125 21.75 C-2.8225 22.74 -1.8325 23.73 -0.8125 24.75 C2.31299017 25.00048636 2.31299017 25.00048636 5.1875 24.75 C5.22991723 22.41705225 5.22842937 20.08297433 5.1875 17.75 C4.06215895 16.39381501 4.06215895 16.39381501 1.125 16.6875 C0.155625 16.708125 -0.81375 16.72875 -1.8125 16.75 C-2.1425 17.41 -2.4725 18.07 -2.8125 18.75 C-8.7525 18.75 -14.6925 18.75 -20.8125 18.75 C-21.12279619 3.7006347 -21.12279619 3.7006347 -18.8125 -1.25 C-13.6005239 -5.15898208 -5.07014559 -3.51692812 0 0 Z " fill="#000000" transform="translate(69.8125,6.25)"/>
<path d="M0 0 C2.94562486 4.41843729 3.12682559 8.29821933 3.09765625 13.51953125 C3.09443359 14.54111328 3.09121094 15.56269531 3.08789062 16.61523438 C3.07532227 18.19788086 3.07532227 18.19788086 3.0625 19.8125 C3.05798828 20.88693359 3.05347656 21.96136719 3.04882812 23.06835938 C3.03707729 25.71229683 3.02064787 28.35611952 3 31 C0.03 31 -2.94 31 -6 31 C-6 27.7 -6 24.4 -6 21 C-8.97 21 -11.94 21 -15 21 C-15.33 20.34 -15.66 19.68 -16 19 C-17.99954746 18.95745644 -20.00041636 18.95919217 -22 19 C-23.41577477 20.18424326 -23.41577477 20.18424326 -23.0625 23.5625 C-23.041875 24.696875 -23.02125 25.83125 -23 27 C-20.12549017 27.25048636 -20.12549017 27.25048636 -17 27 C-15.97980427 26.0206121 -14.97850195 25.02104551 -14 24 C-12.35 24 -10.7 24 -9 24 C-9 27.3 -9 30.6 -9 34 C-5.04 34 -1.08 34 3 34 C3 39.28 3 44.56 3 50 C-2.28 50 -7.56 50 -13 50 C-12.938125 51.876875 -12.87625 53.75375 -12.8125 55.6875 C-12.65182076 60.56143691 -13.39459988 62.92198242 -16 67 C-15.30859649 69.30287793 -15.30859649 69.30287793 -14 71 C-11.58354218 71.16687448 -11.58354218 71.16687448 -9 71 C-8.01 70.01 -8.01 70.01 -7 69 C-7.32971479 65.70285207 -7.6226839 64.3773161 -10 62 C-10.27240673 58.98173347 -10.08675125 56.03629378 -10 53 C-5.71 53 -1.42 53 3 53 C3.05399793 57.54182617 3.09367592 62.08300869 3.125 66.625 C3.14175781 67.91019531 3.15851562 69.19539063 3.17578125 70.51953125 C3.18544922 72.38544922 3.18544922 72.38544922 3.1953125 74.2890625 C3.21102295 76.00150146 3.21102295 76.00150146 3.22705078 77.74853516 C2.94738477 81.75347276 2.49342529 85.67889301 -0.625 88.4375 C-4.21308468 89.28730953 -7.48949204 88.97902612 -11 88 C-13.50894813 86.32736792 -15.40678372 84.64480031 -17.4375 82.4375 C-19.07732996 80.78402328 -19.07732996 80.78402328 -21.9375 79.625 C-25.43845834 77.76734863 -27.01721134 76.4317496 -29 73 C-29.06640625 71.0390625 -29.06640625 71.0390625 -28.9375 68.9375 C-28.958125 67.638125 -28.97875 66.33875 -29 65 C-31.28536927 62.80495512 -31.28536927 62.80495512 -34 61 C-36.85631117 56.56779301 -37.4850824 53.23888993 -37 48 C-36.34 46.68 -35.68 45.36 -35 44 C-31.04 44 -27.08 44 -23 44 C-22.67 44.66 -22.34 45.32 -22 46 C-19.69 46 -17.38 46 -15 46 C-15 43.36 -15 40.72 -15 38 C-17.64 38 -20.28 38 -23 38 C-23.33 38.99 -23.66 39.98 -24 41 C-27.63 41 -31.26 41 -35 41 C-37.6097567 34.63871804 -38.02100352 28.42729476 -35.875 21.875 C-32.96954255 15.02739606 -28.16520527 10.93523741 -22 7 C-20.31384218 5.35305515 -18.64429829 3.68873879 -17 2 C-11.76565492 -1.48956339 -6.02750208 -1.65785912 0 0 Z " fill="#000000" transform="translate(44,4)"/>
<path d="M0 0 C2.475 0.495 2.475 0.495 5 1 C5 1.99 5 2.98 5 4 C4.01 4.33 3.02 4.66 2 5 C1.34 4.67 0.68 4.34 0 4 C0 2.68 0 1.36 0 0 Z " fill="#000000" transform="translate(61,42)"/>
<path d="M0 0 C2.475 0.495 2.475 0.495 5 1 C4.67 1.99 4.34 2.98 4 4 C2.68 4 1.36 4 0 4 C0 2.68 0 1.36 0 0 Z " fill="#000000" transform="translate(61,69)"/>
<path d="M0 0 C1.32 0 2.64 0 4 0 C4 1.32 4 2.64 4 4 C2.35 3.67 0.7 3.34 -1 3 C-0.67 2.01 -0.34 1.02 0 0 Z " fill="#000000" transform="translate(31,69)"/>
<path d="M0 0 C0.99 0.33 1.98 0.66 3 1 C3 2.32 3 3.64 3 5 C1.68 5 0.36 5 -1 5 C-0.67 3.35 -0.34 1.7 0 0 Z " fill="#000000" transform="translate(24,24)"/>
<path d="M0 0 C0.66 0.33 1.32 0.66 2 1 C2 2.32 2 3.64 2 5 C0.68 5 -0.64 5 -2 5 C-2 3.68 -2 2.36 -2 1 C-1.34 0.67 -0.68 0.34 0 0 Z " fill="#000000" transform="translate(71,24)"/>
<path d="M0 0 C1.32 0 2.64 0 4 0 C4 1.32 4 2.64 4 4 C2.68 4 1.36 4 0 4 C0 2.68 0 1.36 0 0 Z " fill="#000000" transform="translate(23,44)"/>
</svg>
