<?xml version="1.0" encoding="UTF-8"?>
<svg version="1.1" xmlns="http://www.w3.org/2000/svg" width="512" height="512">
<path d="M0 0 C0.70432271 -0.00350607 1.40864541 -0.00701215 2.13431123 -0.01062447 C4.48226688 -0.01989022 6.82997186 -0.01502775 9.17793751 -0.01015663 C10.88324634 -0.01389533 12.58855346 -0.01849773 14.29385787 -0.02388728 C18.97095638 -0.0361056 23.64798329 -0.03585818 28.3250941 -0.03349853 C33.37297691 -0.03309006 38.42083686 -0.04413236 43.46870899 -0.05361366 C53.35537958 -0.07021845 63.24202633 -0.07572298 73.1287097 -0.07683842 C81.16664557 -0.07778918 89.20457359 -0.08190088 97.24250698 -0.08823967 C120.03912892 -0.10585099 142.83573204 -0.11507876 165.63236084 -0.11357872 C166.86103838 -0.11349881 168.08971592 -0.1134189 169.35562611 -0.11333656 C170.58580657 -0.1132548 171.81598704 -0.11317304 173.08344571 -0.1130888 C193.01695483 -0.11227603 212.95038837 -0.13141182 232.88387563 -0.1596133 C253.35889175 -0.18835197 273.83387101 -0.20215303 294.30890781 -0.20042574 C305.80105711 -0.19976216 317.29312718 -0.20524048 328.78525829 -0.22678185 C338.57061411 -0.24500658 348.35585478 -0.24933034 358.14122023 -0.235763 C363.13119856 -0.22923981 368.12095606 -0.22909277 373.11091328 -0.2464695 C377.68503789 -0.26223393 382.25876721 -0.25930223 386.83288238 -0.24190123 C388.48158682 -0.23883875 390.13032101 -0.24243522 391.77899035 -0.25362138 C409.8263504 -0.36789541 425.01094372 4.27536612 438.305089 16.91742516 C448.89923204 27.78367804 455.8262335 41.28574555 455.8436079 56.67092991 C455.84711398 57.37525261 455.85062005 58.07957532 455.85423237 58.80524114 C455.86349812 61.15319679 455.85863565 63.50090177 455.85376453 65.84886742 C455.85750323 67.55417625 455.86210563 69.25948337 455.86749518 70.96478778 C455.8797135 75.64188629 455.87946608 80.3189132 455.87710643 84.99602401 C455.87669796 90.04390682 455.88774026 95.09176677 455.89722157 100.1396389 C455.91382636 110.02630949 455.91933089 119.91295623 455.92044632 129.7996396 C455.92139708 137.83757548 455.92550878 145.8755035 455.93184757 153.91343689 C455.94945889 176.71005883 455.95868666 199.50666195 455.95718662 222.30329075 C455.95706676 224.14630705 455.95706676 224.14630705 455.95694447 226.02655602 C455.9568627 227.25673648 455.95678094 228.48691695 455.9566967 229.75437561 C455.95588393 249.68788474 455.97501972 269.62131828 456.0032212 289.55480554 C456.03195987 310.02982166 456.04576094 330.50480092 456.04403365 350.97983772 C456.04337007 362.47198702 456.04884839 373.96405708 456.07038975 385.4561882 C456.08861449 395.24154402 456.09293824 405.02678469 456.0793709 414.81215014 C456.07284771 419.80212846 456.07270067 424.79188596 456.0900774 429.78184319 C456.10584183 434.3559678 456.10291013 438.92969712 456.08550914 443.50381229 C456.08244665 445.15251673 456.08604312 446.80125092 456.09722929 448.44992026 C456.21150331 466.4972803 451.56824178 481.68187363 438.92618275 494.97601891 C428.05992986 505.57016195 414.55786235 512.49716341 399.17267799 512.51453781 C398.46835529 512.51804389 397.76403258 512.52154996 397.03836676 512.52516228 C394.69041111 512.53442803 392.34270613 512.52956556 389.99474049 512.52469444 C388.28943165 512.52843314 386.58412453 512.53303554 384.87882012 512.53842509 C380.20172162 512.55064341 375.52469471 512.55039599 370.84758389 512.54803634 C365.79970108 512.54762787 360.75184113 512.55867017 355.703969 512.56815147 C345.81729841 512.58475626 335.93065167 512.59026079 326.0439683 512.59137623 C318.00603242 512.59232699 309.9681044 512.59643869 301.93017101 512.60277748 C279.13354907 512.6203888 256.33694595 512.62961657 233.54031716 512.62811653 C232.31163962 512.62803662 231.08296208 512.62795671 229.81705189 512.62787437 C228.58687142 512.62779261 227.35669095 512.62771085 226.08923229 512.62762661 C206.15572316 512.62681384 186.22228963 512.64594963 166.28880236 512.67415111 C145.81378625 512.70288978 125.33880698 512.71669085 104.86377019 512.71496356 C93.37162089 512.71429997 81.87955082 512.7197783 70.3874197 512.74131966 C60.60206388 512.7595444 50.81682321 512.76386815 41.03145776 512.75030081 C36.04147944 512.74377762 31.05172194 512.74363058 26.06176472 512.76100731 C21.4876401 512.77677174 16.91391078 512.77384004 12.33979561 512.75643905 C10.69109117 512.75337656 9.04235698 512.75697303 7.39368764 512.7681592 C-10.6536724 512.88243322 -25.83826573 508.23917169 -39.132411 495.59711266 C-49.72655405 484.73085977 -56.65355551 471.22879226 -56.67092991 455.8436079 C-56.67443598 455.1392852 -56.67794206 454.43496249 -56.68155438 453.70929667 C-56.69082013 451.36134102 -56.68595765 449.01363604 -56.68108654 446.66567039 C-56.68482524 444.96036156 -56.68942764 443.25505444 -56.69481719 441.54975003 C-56.70703551 436.87265153 -56.70678809 432.19562462 -56.70442843 427.5185138 C-56.70401997 422.47063099 -56.71506227 417.42277104 -56.72454357 412.37489891 C-56.74114836 402.48822832 -56.74665289 392.60158158 -56.74776833 382.71489821 C-56.74871909 374.67696233 -56.75283079 366.63903431 -56.75916958 358.60110092 C-56.7767809 335.80447898 -56.78600867 313.00787586 -56.78450863 290.21124706 C-56.78442872 288.98256953 -56.78434881 287.75389199 -56.78426647 286.4879818 C-56.78418471 285.25780133 -56.78410295 284.02762086 -56.78401871 282.7601622 C-56.78320594 262.82665307 -56.80234173 242.89321954 -56.83054321 222.95973227 C-56.85928188 202.48471616 -56.87308294 182.00973689 -56.87135565 161.5347001 C-56.87069207 150.0425508 -56.87617039 138.55048073 -56.89771175 127.05834961 C-56.91593649 117.27299379 -56.92026025 107.48775312 -56.90669291 97.70238767 C-56.90016972 92.71240935 -56.90002267 87.72265185 -56.91739941 82.73269463 C-56.93316383 78.15857001 -56.93023214 73.58484069 -56.91283114 69.01072552 C-56.90976865 67.36202108 -56.91336513 65.71328689 -56.92455129 64.06461755 C-57.03882532 46.01725751 -52.39556379 30.83266418 -39.75350475 17.53851891 C-28.88725187 6.94437586 -15.38518436 0.0173744 0 0 Z M-10.413661 46.25726891 C-15.62871792 52.85361117 -16.53733635 58.75860405 -16.54229546 67.09521866 C-16.54404849 67.76158744 -16.54580153 68.42795622 -16.54760769 69.11451799 C-16.55225608 71.34529924 -16.54980519 73.57601499 -16.54737377 75.80679893 C-16.54924232 77.42319801 -16.55154321 79.03959663 -16.55423909 80.65599453 C-16.56035794 85.09641562 -16.5602234 89.53681789 -16.55904472 93.97724223 C-16.55884074 98.76670354 -16.56435921 103.5561588 -16.56910229 108.34561729 C-16.57740967 117.72822234 -16.58015716 127.11082111 -16.58071467 136.49342953 C-16.58118975 144.11907755 -16.5832441 151.7447235 -16.58641529 159.37037086 C-16.5952218 180.98670885 -16.59983463 202.60304188 -16.59908482 224.21938168 C-16.59902488 225.96749376 -16.59902488 225.96749376 -16.59896374 227.75092125 C-16.59892286 228.91775075 -16.59888198 230.08458025 -16.59883986 231.28676821 C-16.5984333 250.2020472 -16.60800528 269.11730629 -16.6221021 288.03257953 C-16.63645979 307.45094262 -16.64337264 326.869296 -16.64250833 346.28766453 C-16.64217617 357.19112432 -16.64493167 368.09456325 -16.65568638 378.99801826 C-16.66478334 388.28031985 -16.66697322 397.56259112 -16.66017696 406.84489523 C-16.6569078 411.58102243 -16.65686936 416.31709142 -16.6655302 421.05321312 C-16.67337853 425.38958573 -16.67198085 429.7258538 -16.66324607 434.06222381 C-16.66170742 435.63014459 -16.66354099 437.1980731 -16.66910615 438.76598476 C-16.94887605 453.47661763 -16.94887605 453.47661763 -10.413661 466.25726891 C-3.81731874 471.47232582 2.08767415 472.38094425 10.42428875 472.38590336 C11.09065753 472.3876564 11.75702631 472.38940943 12.44358808 472.39121559 C14.67436934 472.39586398 16.90508508 472.3934131 19.13586903 472.39098167 C20.7522681 472.39285023 22.36866672 472.39515111 23.98506463 472.397847 C28.42548571 472.40396585 32.86588798 472.4038313 37.30631232 472.40265262 C42.09577363 472.40244864 46.88522889 472.40796711 51.67468739 472.41271019 C61.05729243 472.42101757 70.4398912 472.42376506 79.82249962 472.42432257 C87.44814764 472.42479765 95.07379359 472.426852 102.69944096 472.43002319 C124.31577895 472.4388297 145.93211197 472.44344253 167.54845177 472.44269272 C169.29656386 472.44263279 169.29656386 472.44263279 171.07999134 472.44257164 C172.24682084 472.44253076 173.41365034 472.44248988 174.6158383 472.44244776 C193.53111729 472.4420412 212.44637638 472.45161318 231.36164962 472.46571001 C250.78001271 472.48006769 270.19836609 472.48698054 289.61673462 472.48611623 C300.52019442 472.48578407 311.42363334 472.48853957 322.32708836 472.49929428 C331.60938994 472.50839124 340.89166121 472.51058112 350.17396532 472.50378486 C354.91009252 472.5005157 359.64616151 472.50047726 364.38228321 472.50913811 C368.71865582 472.51698643 373.05492389 472.51558875 377.3912939 472.50685398 C378.95921468 472.50531532 380.52714319 472.50714889 382.09505485 472.51271405 C396.80568772 472.79248395 396.80568772 472.79248395 409.586339 466.25726891 C414.80139591 459.66092664 415.71001434 453.75593376 415.71497345 445.41931915 C415.71760301 444.41976599 415.71760301 444.41976599 415.72028568 443.40001982 C415.72493407 441.16923857 415.72248319 438.93852282 415.72005177 436.70773888 C415.72192032 435.0913398 415.7242212 433.47494118 415.72691709 431.85854328 C415.73303594 427.41812219 415.73290139 422.97771992 415.73172271 418.53729558 C415.73151873 413.74783427 415.73703721 408.95837901 415.74178028 404.16892052 C415.75008767 394.78631547 415.75283515 385.4037167 415.75339266 376.02110828 C415.75386774 368.39546026 415.75592209 360.76981431 415.75909328 353.14416695 C415.7678998 331.52782896 415.77251262 309.91149593 415.77176281 288.29515614 C415.77172285 287.12974808 415.7716829 285.96434002 415.77164173 284.76361656 C415.77160085 283.59678706 415.77155997 282.42995757 415.77151785 281.2277696 C415.77111129 262.31249061 415.78068327 243.39723152 415.7947801 224.48195828 C415.80913778 205.06359519 415.81605063 185.64524181 415.81518632 166.22687328 C415.81485416 155.32341349 415.81760966 144.41997456 415.82836437 133.51651955 C415.83746134 124.23421796 415.83965121 114.95194669 415.83285495 105.66964258 C415.82958579 100.93351538 415.82954735 96.19744639 415.8382082 91.46132469 C415.84605652 87.12495208 415.84465884 82.78868401 415.83592407 78.452314 C415.83438541 76.88439323 415.83621899 75.31646471 415.84178414 73.74855305 C416.12155404 59.03792018 416.12155404 59.03792018 409.586339 46.25726891 C402.98999673 41.04221199 397.08500385 40.13359356 388.74838924 40.12863445 C388.08202047 40.12688142 387.41565169 40.12512838 386.72908992 40.12332222 C384.49830866 40.11867383 382.26759291 40.12112472 380.03680897 40.12355614 C378.42040989 40.12168758 376.80401127 40.1193867 375.18761337 40.11669081 C370.74719228 40.11057197 366.30679001 40.11070651 361.86636567 40.11188519 C357.07690436 40.11208917 352.2874491 40.1065707 347.49799061 40.10182762 C338.11538556 40.09352024 328.73278679 40.09077275 319.35017838 40.09021524 C311.72453035 40.08974016 304.0988844 40.08768581 296.47323704 40.08451462 C274.85689905 40.07570811 253.24056602 40.07109528 231.62422623 40.07184509 C229.87611414 40.07190503 229.87611414 40.07190503 228.09268665 40.07196617 C226.34244241 40.07202749 226.34244241 40.07202749 224.55683969 40.07209005 C205.6415607 40.07249661 186.72630161 40.06292463 167.81102838 40.0488278 C148.39266529 40.03447012 128.9743119 40.02755727 109.55594337 40.02842158 C98.65248358 40.02875374 87.74904465 40.02599824 76.84558964 40.01524353 C67.56328805 40.00614657 58.28101679 40.00395669 48.99871267 40.01075295 C44.26258547 40.01402211 39.52651648 40.01406055 34.79039478 40.0053997 C30.45402218 39.99755138 26.1177541 39.99894906 21.7813841 40.00768384 C20.21346332 40.00922249 18.6455348 40.00738892 17.07762314 40.00182376 C2.36699027 39.72205386 2.36699027 39.72205386 -10.413661 46.25726891 Z " fill="#000000" transform="translate(56.41366100311279,-0.25726890563964844)"/>
<path d="M0 0 C3.11522725 2.61655622 6.03934966 5.33136339 8.8125 8.3125 C9.47894531 8.97378906 10.14539063 9.63507813 10.83203125 10.31640625 C25.33330074 25.31175647 30.8125 43.70211172 30.8125 64.3125 C17.2825 64.3125 3.7525 64.3125 -10.1875 64.3125 C-11.1775 58.3725 -11.1775 58.3725 -12.1875 52.3125 C-16.81222112 41.21316932 -23.15411155 33.4679821 -34.1875 28.3125 C-44.25201133 24.86316044 -55.87582652 24.77287621 -65.7265625 28.98828125 C-75.80757828 34.41282784 -82.88443131 42.21077958 -86.4921875 53.125 C-88.97122201 64.4895627 -87.88000923 75.82824477 -81.64453125 85.7734375 C-75.38060281 94.40246478 -67.63512424 99.93645168 -57.1875 102.3125 C-53.77873061 102.74861453 -50.36252425 103.03637685 -46.9375 103.3125 C-25.53859511 105.04836049 -6.05760167 112.3271407 8.8125 128.3125 C9.81216797 129.30443359 9.81216797 129.30443359 10.83203125 130.31640625 C27.16007686 147.20077368 31.35960753 167.97598127 31.08203125 190.765625 C30.59324164 207.70712119 23.27651992 224.77301314 11.8125 237.3125 C11.01199219 238.20453125 10.21148437 239.0965625 9.38671875 240.015625 C-4.01723833 254.21489646 -22.78301617 263.93571223 -42.51953125 264.74609375 C-44.67955799 264.7697833 -46.8399417 264.77061186 -49 264.75 C-50.14001465 264.74097656 -51.2800293 264.73195313 -52.45458984 264.72265625 C-70.73825861 264.34808685 -88.5699734 257.78903166 -102.1875 245.3125 C-103.09113281 244.48878906 -103.99476562 243.66507812 -104.92578125 242.81640625 C-117.84197708 230.4944603 -126.2169871 215.00281703 -129.1875 197.3125 C-129.1875 193.0225 -129.1875 188.7325 -129.1875 184.3125 C-115.6575 184.3125 -102.1275 184.3125 -88.1875 184.3125 C-87.5275 188.2725 -86.8675 192.2325 -86.1875 196.3125 C-81.56277888 207.41183068 -75.22088845 215.1570179 -64.1875 220.3125 C-54.12298867 223.76183956 -42.49917348 223.85212379 -32.6484375 219.63671875 C-22.56742172 214.21217216 -15.49056869 206.41422042 -11.8828125 195.5 C-9.40377799 184.1354373 -10.49499077 172.79675523 -16.73046875 162.8515625 C-22.99439719 154.22253522 -30.73987576 148.68854832 -41.1875 146.3125 C-44.59626939 145.87638547 -48.01247575 145.58862315 -51.4375 145.3125 C-70.13082918 143.79611345 -88.10186466 138.21791818 -102.1875 125.3125 C-103.09113281 124.48878906 -103.99476562 123.66507813 -104.92578125 122.81640625 C-114.1683105 113.99910839 -120.62007958 104.23504226 -125.1875 92.3125 C-125.58195312 91.28511719 -125.97640625 90.25773437 -126.3828125 89.19921875 C-133.20781936 68.12760665 -130.24979795 45.31973405 -120.33105469 25.89282227 C-117.47976266 20.57010218 -114.14131636 15.87821651 -110.1875 11.3125 C-109.59066406 10.51972656 -108.99382812 9.72695312 -108.37890625 8.91015625 C-100.17885931 -0.81004199 -88.92737258 -7.23294315 -77.1875 -11.6875 C-76.07632813 -12.120625 -74.96515625 -12.55375 -73.8203125 -13 C-49.04999178 -21.08826799 -20.58490593 -15.63497001 0 0 Z " fill="#000000" transform="translate(205.1875,131.6875)"/>
<path d="M0 0 C22.77234515 17.33682439 33.72599792 43.61380001 38.31640625 71.15625 C38.31640625 83.03625 38.31640625 94.91625 38.31640625 107.15625 C-0.29359375 107.15625 -38.90359375 107.15625 -78.68359375 107.15625 C-69.53746237 129.22042198 -69.53746237 129.22042198 -52.55859375 144.09375 C-45.32283042 146.72644192 -36.33731376 146.36443372 -29.37109375 143.21875 C-23.97706257 140.12366743 -19.82071727 135.74306086 -15.68359375 131.15625 C-9.89102306 134.2486981 -4.87954615 137.95048024 0.25390625 142.03125 C1.78331945 143.23765736 3.31326364 144.44339188 4.84375 145.6484375 C5.58222168 146.23077148 6.32069336 146.81310547 7.08154297 147.41308594 C10.4554697 150.04470456 13.88017401 152.60676846 17.31640625 155.15625 C10.01629406 170.2627153 -6.47087086 179.2746353 -21.4296875 185.25390625 C-38.80699548 190.67643341 -58.49941293 187.98425118 -74.43359375 179.90625 C-97.01134284 166.98904083 -111.06690992 145.44482509 -117.82519531 120.70214844 C-123.56257633 98.93016545 -124.51755367 73.84102985 -117.68359375 52.15625 C-117.46396973 51.45661133 -117.2443457 50.75697266 -117.01806641 50.03613281 C-112.15867078 35.08996621 -104.72091246 22.19447212 -94.68359375 10.15625 C-93.84054687 9.13917969 -93.84054687 9.13917969 -92.98046875 8.1015625 C-68.92415327 -18.26318729 -28.20366006 -19.37718712 0 0 Z M-65.58203125 39.57421875 C-71.34458974 46.6542395 -78.68359375 57.64673154 -78.68359375 67.15625 C-54.26359375 67.15625 -29.84359375 67.15625 -4.68359375 67.15625 C-9.57086404 50.86534903 -16.22980811 37.56584018 -31.68359375 29.15625 C-45.10597636 24.68212246 -56.42336933 29.81684572 -65.58203125 39.57421875 Z " fill="#000000" transform="translate(397.68359375,208.84375)"/>
</svg>
